SplineFontDB: 3.0
FontName: N-Noten
FullName: Noten
FamilyName: N
Weight: Standard
Copyright: Copyright 2011-2012 Florian Kretlow
UComments: "2011-5-24: Created." 
Version: 0
ItalicAngle: 0
UnderlinePosition: -100
UnderlineWidth: 50
Ascent: 800
Descent: 200
sfntRevision: 0x00000000
LayerCount: 2
Layer: 0 0 "Back"  1
Layer: 1 0 "Zeichenebene"  0
XUID: [1021 201 23757 16427]
FSType: 0
OS2Version: 0
OS2_WeightWidthSlopeOnly: 0
OS2_UseTypoMetrics: 1
CreationTime: 1306259327
ModificationTime: 1409117973
OS2TypoAscent: 0
OS2TypoAOffset: 1
OS2TypoDescent: 0
OS2TypoDOffset: 1
OS2TypoLinegap: 90
OS2WinAscent: 0
OS2WinAOffset: 1
OS2WinDescent: 0
OS2WinDOffset: 1
HheadAscent: 0
HheadAOffset: 1
HheadDescent: 0
HheadDOffset: 1
OS2Vendor: 'PfEd'
MarkAttachClasses: 1
DEI: 91125
Encoding: UnicodeBmp
UnicodeInterp: none
NameList: Adobe Glyph List
DisplaySize: -72
AntiAlias: 1
FitToEm: 1
WinInfo: 792 8 7
Grid
-500 -263 m 0
 -500 -237 l 0
 1480 -237 l 0
 1480 -263 l 0
 -500 -263 l 0
-500 -513 m 0
 -500 -487 l 0
 1480 -487 l 0
 1480 -513 l 0
 -500 -513 l 0
-500 487 m 0
 -500 513 l 0
 1480 513 l 0
 1480 487 l 0
 -500 487 l 0
-500 237 m 0
 -500 263 l 0
 1480 263 l 0
 1480 237 l 0
 -500 237 l 0
-500 -13 m 0
 -500 13 l 0
 1480 13 l 0
 1480 -13 l 0
 -500 -13 l 0
EndSplineSet
BeginChars: 65536 254

StartChar: Ohungarumlaut
Encoding: 336 336 0
Width: 500
Flags: HW
HStem: -140 280<192 311>
VStem: 6 26<-250 -81.9997 78.527 250> 468 26<-250 -71.726 76.7693 250>
LayerCount: 2
Back
SplineSet
21 -2 m 0
 22 111 164 140 255 140 c 0
 343 140 479 113 479 2 c 0
 478 -110 336 -140 245 -140 c 0
 157 -140 21 -113 21 -2 c 0
335 52 m 0
 323 97 275 123 214 115 c 0
 130 105 136 43 151 -7 c 0
 165 -52 l 0
 177 -93 224 -123 286 -115 c 0
 369 -105 363 -43 349 4 c 0
 335 52 l 0
468 250 m 1
 500 250 l 5
 500 -250 l 5
 468 -250 l 1
 468 250 l 1
0 250 m 1
 32 250 l 1
 32 -250 l 1
 0 -250 l 1
 0 250 l 1
EndSplineSet
Fore
SplineSet
335 52 m 1
 323 97 275 123 214 115 c 0
 130 105 136 43 151 -7 c 2
 165 -52 l 2
 177 -93 224 -123 286 -115 c 0
 369 -105 363 -43 349 4 c 2
 335 52 l 1
0 250 m 1
 32 250 l 1
 32 86 l 2
 32 74 46 71 57 81 c 0
 106 126 192 140 255 140 c 0
 318 140 407 126 451 77 c 0
 456 72 468 72 468 82 c 2
 468 250 l 1
 500 250 l 1
 500 -250 l 1
 468 -250 l 1
 468 -77 l 2
 468 -70 456 -66 451 -72 c 0
 405 -124 311 -140 245 -140 c 0
 184 -140 101 -127 55 -83 c 0
 48 -76 32 -66 32 -90 c 2
 32 -250 l 1
 0 -250 l 1
 0 250 l 1
EndSplineSet
EndChar

StartChar: OE
Encoding: 338 338 1
Width: 476
VWidth: 1332
Flags: W
HStem: -129 34<191.615 320.511> -79 159<38.4442 99.7755 380.791 437.893> 95 34<156.316 284.303> 213 20G<11 27 449 465>
VStem: 0 132<-29.6383 76.4789> 0 37<-232.999 -79.2942 80.0073 232.999> 344 132<-76.4789 28.9971> 439 37<-232.999 -77.0592 84.0059 232.999>
LayerCount: 2
Back
SplineSet
0 6 m 3
 0 125 91 264 117 264 c 3
 123 264 131 262 131 253 c 3
 131 238 45 170 45 -9 c 3
 45 -182 131 -218 131 -245 c 7
 131 -252 129 -264 116 -264 c 7
 104 -264 0 -152 0 6 c 3
EndSplineSet
Fore
SplineSet
19 233 m 0xf5
 35 233 37 232 37 215 c 2
 37 111 l 2
 37 90 44 80 56 80 c 0
 63 80 72 84 83 91 c 0
 127 120 243 129 243 129 c 1
 290 129 346 121 389 97 c 0
 400 89 412 84 420 84 c 0
 432 84 439 92 439 115 c 2
 439 216 l 2
 439 232 441 233 457 233 c 0
 473 233 476 232 476 215 c 2
 476 -215 l 2
 476 -232 474 -233 457 -233 c 0
 440 -233 439 -233 439 -213 c 2
 439 -103 l 2
 439 -86 431 -77 419 -77 c 0
 411 -77 400 -81 389 -89 c 0
 344 -117 282 -129 233 -129 c 0
 184 -129 122 -118 79 -87 c 0
 72 -82 64 -79 59 -79 c 0
 46 -79 37 -90 37 -117 c 2
 37 -215 l 2
 37 -232 36 -233 19 -233 c 0
 2 -233 0 -233 0 -213 c 2
 0 216 l 2
 0 232 3 233 19 233 c 0xf5
252 -95 m 0
 313 -95 344 -71 344 -35 c 0
 344 -24 341 -12 336 0 c 2
 323 29 l 2
 298 86 257 95 224 95 c 0
 164 95 132 71 132 35 c 0xfa
 132 24 135 13 140 1 c 2
 152 -27 l 2
 177 -84 216 -95 252 -95 c 0
EndSplineSet
EndChar

StartChar: Racute
Encoding: 340 340 2
Width: 505
Flags: W
HStem: -97 26<217.771 314.547> -59 119<102.35 161.207 347.512 402.869> 71 26<190.987 287.007> 155 20G<82 94 411 423>
VStem: 0 28<-174.999 -161 160 174.999> 74 99<-32.8886 59.3534> 74 28<-174.999 -59.1657 60.0051 174.999> 332 99<-57.8769 33.1437> 403 28<-174.999 -58.0397 63.0044 174.999> 477 28<-174.999 -160 161 174.999>
LayerCount: 2
Fore
SplineSet
14 -175 m 0xf840
 26 -175 28 -174 28 -161 c 2
 28 161 l 2
 28 174 27 175 14 175 c 0
 1 175 0 175 0 160 c 2
 0 -162 l 2
 0 -174 2 -175 14 -175 c 0xf840
491 175 m 0
 479 175 477 174 477 161 c 2
 477 -161 l 2
 477 -174 478 -175 491 -175 c 0
 504 -175 505 -175 505 -160 c 2
 505 162 l 2
 505 174 503 175 491 175 c 0
88 175 m 0
 100 175 102 174 102 161 c 2
 102 83 l 2
 102 67 107 60 116 60 c 0
 121 60 128 63 136 68 c 0
 169 90 256 97 256 97 c 1
 291 97 334 91 366 73 c 0
 374 67 383 63 389 63 c 0
 398 63 403 69 403 86 c 2
 403 162 l 2
 403 174 405 175 417 175 c 0
 429 175 431 174 431 161 c 2
 431 -161 l 2
 431 -174 430 -175 417 -175 c 0
 404 -175 403 -175 403 -160 c 2
 403 -77 l 2
 403 -64 397 -58 388 -58 c 0
 382 -58 374 -61 366 -67 c 0
 332 -88 286 -97 249 -97 c 0
 212 -97 165 -88 133 -65 c 0
 128 -61 122 -59 118 -59 c 0
 108 -59 102 -68 102 -88 c 2
 102 -161 l 2
 102 -174 101 -175 88 -175 c 0
 75 -175 74 -175 74 -160 c 2
 74 162 l 2xfac0
 74 174 76 175 88 175 c 0
263 -71 m 0
 309 -71 332 -53 332 -26 c 0
 332 -18 330 -9 326 0 c 2
 316 22 l 2
 297 65 267 71 242 71 c 0
 197 71 173 53 173 26 c 0xfd40
 173 18 175 10 179 1 c 2
 188 -20 l 2
 207 -63 236 -71 263 -71 c 0
EndSplineSet
EndChar

StartChar: kgreenlandic
Encoding: 312 312 4
Width: 326
Flags: HMW
HStem: 121 20G<199.5 239.5>
LayerCount: 2
Fore
SplineSet
95 101 m 0
 130 125 178 141 221 141 c 0
 258 141 292 130 311 100 c 0
 322 85 326 68 326 50 c 0
 326 -6 280 -68 231 -101 c 0
 196 -125 148 -141 105 -141 c 0
 68 -141 34 -130 15 -100 c 0
 4 -85 0 -68 0 -50 c 0
 0 6 46 68 95 101 c 0
EndSplineSet
EndChar

StartChar: uni0210
Encoding: 528 528 5
Width: 274
VWidth: 0
Flags: W
HStem: -137 40<80.1356 194.365> 97 40<79.6349 193.864>
VStem: 0 40<-57.3651 56.8644> 234 40<-56.8644 57.3651>
LayerCount: 2
Fore
SplineSet
40 0 m 0
 40 -51 82 -97 137 -97 c 0
 188 -97 234 -55 234 0 c 0
 234 51 192 97 137 97 c 0
 86 97 40 55 40 0 c 0
0 0 m 0
 0 77 65 137 137 137 c 0
 214 137 274 72 274 0 c 0
 274 -77 209 -137 137 -137 c 0
 60 -137 0 -72 0 0 c 0
EndSplineSet
EndChar

StartChar: uni0211
Encoding: 529 529 6
Width: 274
VWidth: 0
Flags: W
HStem: -137 40<80.1356 194.365> 97 40<79.6349 193.864>
VStem: 0 40<-57.3651 56.8644> 234 40<-56.8644 57.3651>
LayerCount: 2
Fore
SplineSet
0 0 m 0
 0 77 65 137 137 137 c 0
 214 137 274 72 274 0 c 0
 274 -77 209 -137 137 -137 c 0
 60 -137 0 -72 0 0 c 0
EndSplineSet
EndChar

StartChar: uni0220
Encoding: 544 544 7
Width: 304
VWidth: 0
Flags: W
LayerCount: 2
Fore
SplineSet
228 55 m 2
 100 -73 l 2
 94 -79 93 -95 104 -100 c 0
 145 -120 196 -114 231 -79 c 0
 266 -44 273 10 250 53 c 0
 247 59 232 59 228 55 c 2
56 -117 m 1
 -86 -259 l 1
 -107 -238 l 1
 35 -96 l 1
 -15 -34 -8 54 45 107 c 0
 102 164 191 164 248 117 c 1
 390 259 l 5
 411 238 l 1
 269 96 l 1
 319 34 312 -54 259 -107 c 0
 202 -164 113 -164 56 -117 c 1
201 100 m 0
 160 120 108 114 73 79 c 0
 40 46 31 -5 51 -47 c 0
 55 -55 72 -59 79 -52 c 2
 206 76 l 2
 212 82 209 96 201 100 c 0
EndSplineSet
EndChar

StartChar: uni0222
Encoding: 546 546 8
Width: 304
VWidth: 0
Flags: W
LayerCount: 2
Fore
SplineSet
56 -117 m 1
 -86 -259 l 1
 -107 -238 l 1
 35 -96 l 1
 -15 -34 -8 54 45 107 c 0
 102 164 191 164 248 117 c 1
 390 259 l 1
 411 238 l 1
 269 96 l 1
 319 34 312 -54 259 -107 c 0
 202 -164 113 -164 56 -117 c 1
201 100 m 0
 160 120 108 114 73 79 c 0
 40 46 31 -5 51 -47 c 0
 55 -55 72 -59 79 -52 c 2
 206 76 l 2
 212 82 209 96 201 100 c 0
EndSplineSet
EndChar

StartChar: uni0223
Encoding: 547 547 9
Width: 304
VWidth: 0
Flags: W
LayerCount: 2
Fore
SplineSet
56 -117 m 1
 -86 -259 l 1
 -107 -238 l 1
 35 -96 l 1
 -15 -34 -8 54 45 107 c 0
 102 164 191 164 248 117 c 1
 390 259 l 1
 411 238 l 1
 269 96 l 1
 319 34 312 -54 259 -107 c 0
 202 -164 113 -164 56 -117 c 1
EndSplineSet
EndChar

StartChar: Scommaaccent
Encoding: 536 536 10
Width: 304
VWidth: 0
Flags: W
VStem: 0 40<-61.416 62.9279> 137 30<-295 -149.041 -104.736 106.354 149.041 295> 264 40<-62.5029 61.7382>
CounterMasks: 1 e0
LayerCount: 2
Fore
SplineSet
167 93 m 2
 167 -88 l 2
 167 -97 178 -109 189 -105 c 0
 232 -90 264 -49 264 0 c 0
 264 49 231 93 184 107 c 0
 178 109 167 99 167 93 c 2
167 -151 m 1
 167 -295 l 1
 137 -295 l 1
 137 -151 l 1
 58 -143 0 -75 0 0 c 0
 0 81 63 144 137 151 c 1
 137 295 l 1
 167 295 l 1
 167 151 l 1
 246 143 304 75 304 0 c 0
 304 -81 241 -144 167 -151 c 1
116 106 m 0
 73 91 40 50 40 0 c 0
 40 -47 70 -89 114 -105 c 0
 123 -108 137 -98 137 -88 c 2
 137 92 l 2
 137 101 124 109 116 106 c 0
EndSplineSet
EndChar

StartChar: uni021A
Encoding: 538 538 11
Width: 304
VWidth: 0
Flags: W
VStem: 0 40<-61.416 62.9279> 137 167<-78.5903 75.6873> 137 30<-295 -149.041 149.041 295>
LayerCount: 2
Fore
SplineSet
167 -151 m 1xa0
 167 -295 l 1
 137 -295 l 1
 137 -151 l 1
 58 -143 0 -75 0 0 c 0
 0 81 63 144 137 151 c 1
 137 295 l 1
 167 295 l 1
 167 151 l 1xa0
 246 143 304 75 304 0 c 0xc0
 304 -81 241 -144 167 -151 c 1xa0
116 106 m 0
 73 91 40 50 40 0 c 0
 40 -47 70 -89 114 -105 c 0
 123 -108 137 -98 137 -88 c 2
 137 92 l 2
 137 101 124 109 116 106 c 0
EndSplineSet
EndChar

StartChar: uni021C
Encoding: 540 540 12
Width: 304
VWidth: 0
Flags: W
HStem: -152 40<89.4971 213.738> -15 30<-143 2.95947 47.2645 258.354 301.041 447> 112 40<90.584 214.928>
CounterMasks: 1 e0
LayerCount: 2
Fore
SplineSet
245 -15 m 2
 64 -15 l 2
 55 -15 43 -26 47 -37 c 0
 62 -80 103 -112 152 -112 c 0
 201 -112 245 -79 259 -32 c 0
 261 -26 251 -15 245 -15 c 2
1 -15 m 1
 -143 -15 l 1
 -143 15 l 1
 1 15 l 1
 9 94 77 152 152 152 c 0
 233 152 296 89 303 15 c 1
 447 15 l 1
 447 -15 l 1
 303 -15 l 1
 295 -94 227 -152 152 -152 c 0
 71 -152 8 -89 1 -15 c 1
258 36 m 0
 243 79 202 112 152 112 c 0
 105 112 63 82 47 38 c 0
 44 29 54 15 64 15 c 2
 244 15 l 2
 253 15 261 28 258 36 c 0
EndSplineSet
EndChar

StartChar: uni021D
Encoding: 541 541 13
Width: 304
VWidth: 0
Flags: W
HStem: -152 40<89.4971 213.738> -15 167<76.3127 230.59> -15 30<-143 2.95947 301.041 447>
LayerCount: 2
Fore
SplineSet
245 -15 m 2xa0
 64 -15 l 2
 55 -15 43 -26 47 -37 c 0
 62 -80 103 -112 152 -112 c 0
 201 -112 245 -79 259 -32 c 0
 261 -26 251 -15 245 -15 c 2xa0
1 -15 m 1
 -143 -15 l 1
 -143 15 l 1
 1 15 l 1xa0
 9 94 77 152 152 152 c 0xc0
 233 152 296 89 303 15 c 1
 447 15 l 1
 447 -15 l 1
 303 -15 l 1
 295 -94 227 -152 152 -152 c 0
 71 -152 8 -89 1 -15 c 1
EndSplineSet
EndChar

StartChar: uni021E
Encoding: 542 542 14
Width: 304
VWidth: 0
Flags: W
HStem: -152 167<73.4097 227.687> -15 30<-143 2.95947 301.041 447> 112 40<90.584 214.928>
LayerCount: 2
Fore
SplineSet
1 -15 m 1x60
 -143 -15 l 1
 -143 15 l 1
 1 15 l 1
 9 94 77 152 152 152 c 0
 233 152 296 89 303 15 c 1
 447 15 l 1
 447 -15 l 1
 303 -15 l 1x60
 295 -94 227 -152 152 -152 c 0xa0
 71 -152 8 -89 1 -15 c 1x60
258 36 m 0
 243 79 202 112 152 112 c 0
 105 112 63 82 47 38 c 0
 44 29 54 15 64 15 c 2
 244 15 l 2
 253 15 261 28 258 36 c 0
EndSplineSet
EndChar

StartChar: uni021F
Encoding: 543 543 15
Width: 304
VWidth: 0
Flags: W
HStem: -15 30<-143 2.95947 301.041 447>
LayerCount: 2
Fore
SplineSet
1 -15 m 1
 -143 -15 l 1
 -143 15 l 1
 1 15 l 1
 9 94 77 152 152 152 c 0
 233 152 296 89 303 15 c 1
 447 15 l 1
 447 -15 l 1
 303 -15 l 1
 295 -94 227 -152 152 -152 c 0
 71 -152 8 -89 1 -15 c 1
EndSplineSet
EndChar

StartChar: uni0241
Encoding: 577 577 16
Width: 304
Flags: HW
LayerCount: 2
Fore
SplineSet
0 0 m 1
 152 152 l 1
 304 0 l 1
 152 -152 l 1
 0 0 l 1
EndSplineSet
EndChar

StartChar: uni0248
Encoding: 584 584 17
Width: 343
VWidth: 0
Flags: HMW
HStem: -137 40<60.9491 295.84>
VStem: 20 40<-96.6449 107.787>
LayerCount: 2
Back
SplineSet
280 -117 m 29
 0 -117 l 29
 0 163 l 29
 280 -117 l 29
EndSplineSet
Fore
SplineSet
228 -73 m 2
 61 94 l 2
 54 101 40 92 40 83 c 6
 40 -78 l 2
 40 -86 49 -97 57 -97 c 2
 220 -97 l 2
 230 -97 234 -79 228 -73 c 2
333 -137 m 2
 0 -137 l 1
 0 202 l 2
 0 209 2 210 7 205 c 2
 337 -125 l 2
 347 -136 345 -137 333 -137 c 2
EndSplineSet
EndChar

StartChar: uni024C
Encoding: 588 588 18
Width: 343
VWidth: 0
Flags: HW
HStem: -137 40<47.4028 282.403>
VStem: 283.403 40<-97 108>
LayerCount: 2
Back
SplineSet
496 171 m 0
 505 185 516 201 530 218 c 0
 567 263 606 285 648 286 c 0
 660 286 671 283 678 276 c 0
 685 269 690 263 695 256 c 0
 700 249 706 245 711 245 c 0
 716 245 720 247 724 251 c 0
 748 274 776 286 809 286 c 0
 860 286 886 250 886 179 c 0
 886 130 869 85 834 45 c 0
 799 4 761 -15 720 -15 c 0
 693 -15 672 -5 656 15 c 0
 653 19 649 21 645 21 c 0
 636 21 625 2 613 -39 c 0
 601 -80 596 -106 596 -117 c 0
 596 -128 603 -134 617 -134 c 0
 668 -134 l 0
 677 -134 682 -138 682 -147 c 0
 682 -148 l 0
 682 -158 676 -163 663 -163 c 0
 401 -163 l 0
 391 -163 386 -158 386 -150 c 0
 386 -139 394 -134 411 -134 c 0
 453 -134 l 0
 476 -134 492 -118 503 -86 c 0
 559 77 l 0
 565 94 574 119 587 153 c 0
 600 187 606 209 606 219 c 0
 606 228 604 232 599 232 c 0
 586 232 566 217 540 185 c 0
 536 180 532 174 528 168 c 0
 519 153 509 145 499 143 c 0
 482 140 482 148 496 171 c 0
784 257 m 0
 760 257 736 236 712 193 c 0
 688 150 676 109 676 67 c 0
 676 54 679 42 686 31 c 0
 693 20 700 15 708 15 c 0
 724 15 737 27 747 53 c 0
 754 71 760 85 763 95 c 0
 774 130 l 0
 794 194 804 230 804 237 c 0
 804 250 797 257 784 257 c 0
148 233 m 0
 148 218 l 0
 148 210 149 206 153 206 c 0
 156 206 162 211 170 221 c 0
 204 262 235 282 262 282 c 0
 276 282 287 277 293 268 c 0
 299 259 302 247 302 234 c 0
 302 217 l 0
 302 208 303 204 307 204 c 0
 311 204 318 209 326 220 c 0
 358 261 389 282 418 282 c 0
 434 282 446 276 454 266 c 0
 462 256 465 244 465 230 c 0
 465 216 462 201 456 185 c 0
 450 170 440 148 425 121 c 0
 400 76 388 48 388 36 c 0
 388 25 392 19 402 19 c 0
 423 19 449 50 480 111 c 0
 484 118 487 122 491 122 c 0
 492 122 495 121 496 120 c 0
 502 116 504 112 504 108 c 0
 504 103 503 99 501 95 c 0
 485 63 468 38 449 18 c 0
 432 0 414 -9 395 -9 c 0
 376 -9 363 -3 354 8 c 0
 346 19 342 32 342 48 c 0
 342 74 356 111 385 161 c 0
 392 173 l 0
 413 208 423 230 423 239 c 0
 423 248 418 253 408 253 c 0
 387 253 360 230 328 186 c 0
 296 141 268 89 244 26 c 0
 237 9 228 0 218 0 c 0
 200 0 l 0
 191 0 187 4 187 11 c 0
 187 14 189 17 190 21 c 0
 249 185 l 0
 260 214 265 233 265 241 c 0
 265 249 261 253 252 253 c 0
 234 253 209 231 176 188 c 0
 143 145 111 87 82 18 c 0
 77 6 70 0 61 0 c 0
 40 0 l 0
 31 0 27 4 27 10 c 0
 27 12 28 14 29 17 c 0
 89 185 l 0
 100 214 106 233 106 241 c 0
 106 249 101 253 93 253 c 0
 77 253 57 226 29 173 c 0
 23 162 17 157 10 157 c 0
 4 157 0 160 0 166 c 0
 0 169 1 174 4 180 c 0
 17 210 33 235 50 254 c 0
 66 272 83 282 100 282 c 0
 117 282 130 277 137 267 c 0
 144 257 148 247 148 233 c 0
EndSplineSet
Fore
SplineSet
115.402 -73 m 2
 109.402 -79 113.402 -97 123.402 -97 c 2
 286.402 -97 l 2
 294.402 -97 303.402 -86 303.402 -78 c 2
 303.402 83 l 2
 303.402 92 289.402 101 282.402 94 c 2
 115.402 -73 l 2
10.4023 -137 m 2
 -1.59766 -137 -3.59766 -136 6.40234 -125 c 2
 336.402 205 l 2
 341.402 210 343.402 209 343.402 202 c 2
 343.402 -137 l 5
 10.4023 -137 l 2
EndSplineSet
EndChar

StartChar: uni020E
Encoding: 526 526 19
Width: 274
VWidth: 0
Flags: HW
LayerCount: 2
Fore
SplineSet
346 187 m 5
 -50 -209 l 5
 -72 -187 l 5
 324 209 l 5
 346 187 l 5
324 -209 m 1
 -72 187 l 1
 -50 209 l 1
 346 -187 l 1
 324 -209 l 1
EndSplineSet
EndChar

StartChar: uni020F
Encoding: 527 527 20
Width: 274
VWidth: 0
Flags: W
LayerCount: 2
Back
SplineSet
280 -15 m 1
 -280 -15 l 1
 -280 15 l 1
 280 15 l 1
 280 -15 l 1
-15 -280 m 5
 -15 280 l 5
 15 280 l 5
 15 -280 l 5
 -15 -280 l 5
EndSplineSet
Fore
SplineSet
153.412 37.5 m 6
 324 209 l 5
 346 187 l 5
 175.5 17.4069 l 6
 168.856 10.7986 167.188 -9.13905 172 -13.9255 c 6
 346 -187 l 5
 324 -209 l 5
 149.931 -34 l 6
 141.988 -26.0151 127.192 -30.8608 121.582 -36.5 c 6
 -50 -209 l 5
 -72 -187 l 5
 100 -15.9149 l 6
 104.976 -10.9653 105.641 10.3039 99 16.9096 c 6
 -72 187 l 5
 -50 209 l 5
 120.588 37.5 l 6
 129.19 28.8519 147.636 31.6933 153.412 37.5 c 6
EndSplineSet
EndChar

StartChar: ldot
Encoding: 320 320 21
Width: 354
VWidth: 0
Flags: HW
HStem: -146 39<35.0989 122.27> 107 39<231.73 318.901>
VStem: 0 23<-100.079 -50.348> 331 23<50.348 100.079>
LayerCount: 2
Back
SplineSet
149.257 93.2656 m 0
 128.06 127.188 58.3086 95.3945 -26.4961 42.4023 c 0
 -111.301 -10.5898 -170.453 -59.3438 -149.257 -93.2656 c 0
 -128.06 -127.188 -58.3086 -95.3945 26.4961 -42.4023 c 0
 111.301 10.5898 170.453 59.3438 149.257 93.2656 c 0
166.218 103.864 m 0
 203.312 44.501 138.323 -70.3965 70.4795 -112.79 c 0
 2.63574 -155.184 -129.123 -163.228 -166.218 -103.864 c 0
 -203.312 -44.501 -138.323 70.3965 -70.4795 112.79 c 0
 -2.63574 155.184 129.123 163.228 166.218 103.864 c 0
0 176 m 7
 -40 176 -50 100 -50 0 c 7
 -50 -100 -40 -176 0 -176 c 7
 40 -176 50 -100 50 0 c 7
 50 100 40 176 0 176 c 7
-0 196 m 7
 70 196 133 80 133 0 c 7
 133 -80 70 -196 0 -196 c 7
 -70 -196 -133 -80 -133 0 c 7
 -133 80 -70 196 -0 196 c 7
EndSplineSet
Fore
SplineSet
331 78 m 0
 331 97 315 107 297 107 c 0
 264 107 211 80 151 42 c 0
 77 -3 23 -46 23 -78 c 0
 23 -97 39 -107 57 -107 c 0
 90 -107 143 -80 203 -42 c 0
 277 3 331 46 331 78 c 0
236 146 m 0
 298 146 354 125 354 62 c 0
 354 1 302 -79 247 -113 c 0
 214 -134 164 -146 118 -146 c 0
 56 -146 0 -125 0 -62 c 0
 0 -1 52 79 107 113 c 0
 140 134 190 146 236 146 c 0
EndSplineSet
EndChar

StartChar: lslash
Encoding: 322 322 22
Width: 214
VWidth: 0
Flags: HW
HStem: -101 32<33.2381 96.7657> 69 32<117.234 180.762>
VStem: 0 30<-65.5074 -11.4243> 184 30<11.4243 65.5074>
LayerCount: 2
Back
SplineSet
70.4766 59.1367 m 0
 49.2637 84.416 8.26758 53.9316 -22.374 28.2207 c 0
 -53.0156 2.50879 -91.6885 -33.8574 -70.4766 -59.1367 c 0
 -49.2637 -84.416 -8.26758 -53.9316 22.374 -28.2207 c 0
 53.0156 -2.50879 91.6885 33.8574 70.4766 59.1367 c 0
-91.9258 -77.1348 m 0
 -127.278 -35.002 -91.6797 39.2529 -57.208 68.1777 c 0
 -22.7363 97.1035 56.5723 119.267 91.9258 77.1348 c 0
 127.278 35.002 91.6797 -39.2529 57.208 -68.1777 c 0
 22.7363 -97.1035 -56.5723 -119.267 -91.9258 -77.1348 c 0
0 92 m 3
 -33 92 -36 41 -36 1 c 3
 -36 -39 -33 -92 0 -92 c 3
 33 -92 36 -41 36 -1 c 3
 36 39 33 92 0 92 c 3
0 -120 m 3
 -55 -120 -89 -45 -89 0 c 3
 -89 45 -55 120 0 120 c 3
 55 120 89 45 89 0 c 3
 89 -45 55 -120 0 -120 c 3
400 93 m 0
 391 93 384 90 379 83 c 0
 366 68 365 33 365 1 c 0
 365 -35 366 -74 382 -87 c 0
 387 -91 392 -94 400 -93 c 0
 409 -93 416 -90 421 -83 c 0
 434 -68 435 -33 435 -1 c 0
 435 35 434 74 418 87 c 0
 413 91 408 94 400 93 c 0
399 -120 m 0
 385 -120 371 -114 360 -104 c 0
 332 -80 315 -35 315 0 c 0
 315 30 328 68 349 93 c 0
 363 109 381 120 401 120 c 0
 415 120 429 114 440 104 c 0
 468 80 485 35 485 0 c 0
 485 -30 472 -68 451 -93 c 0
 437 -109 419 -120 399 -120 c 0
EndSplineSet
Fore
SplineSet
184 43 m 0
 184 57 170 69 157 69 c 0
 135 69 107 47 85 28 c 0
 60 8 30 -20 30 -43 c 0
 30 -57 44 -69 57 -69 c 0
 79 -69 107 -47 129 -28 c 0
 154 -8 184 20 184 43 c 0
73 -101 m 0
 33 -101 0 -76 0 -34 c 0
 0 5 25 48 50 68 c 0
 71 86 107 101 141 101 c 0
 181 101 214 76 214 34 c 0
 214 -5 189 -48 164 -68 c 0
 143 -86 107 -101 73 -101 c 0
EndSplineSet
EndChar

StartChar: Lacute
Encoding: 313 313 23
Width: 178
Flags: W
HStem: -82 164<42.7653 135.235>
VStem: 0 178<-39.5804 39.5804>
LayerCount: 2
Back
SplineSet
-77 -54 m 4
 -105 -14 -78 38 -44 62 c 4
 -10 86 49 94 77 54 c 4
 105 14 78 -38 44 -62 c 4
 10 -86 -49 -94 -77 -54 c 4
0 -94 m 0
 -49 -94 -76 -42 -76 0 c 0
 -76 42 -49 94 0 94 c 0
 49 94 76 42 76 0 c 0
 76 -42 49 -94 0 -94 c 0
EndSplineSet
Fore
SplineSet
70 -82 m 0
 35 -82 0 -57 0 -17 c 0
 0 36 51 82 108 82 c 0
 143 82 178 57 178 17 c 0
 178 -36 127 -82 70 -82 c 0
EndSplineSet
EndChar

StartChar: Scaron
Encoding: 352 352 24
Width: 326
Flags: HW
LayerCount: 2
Fore
SplineSet
0 575 m 5
 26 575 l 5
 26 -5 l 5
 0 -5 l 5
 0 575 l 5
300 850 m 1
 326 850 l 1
 326 49 l 1
 300 49 l 1
 300 850 l 1
EndSplineSet
EndChar

StartChar: scaron
Encoding: 353 353 25
Width: 354
VWidth: 0
Flags: W
HStem: -146 39<35.0989 122.27> 107 26<247.751 325.897>
VStem: 0 23<-100.079 -50.348> 328 26<45.052 102.834 133.829 850>
LayerCount: 2
Fore
SplineSet
331 78 m 0
 331 97 315 107 297 107 c 0
 264 107 211 80 151 42 c 1
 77 -3 23 -46 23 -78 c 0
 23 -97 39 -107 57 -107 c 0
 90 -107 143 -80 203 -42 c 1
 277 3 331 46 331 78 c 0
328 850 m 1
 354 850 l 1
 354 62 l 2
 354 1 302 -79 247 -113 c 0
 214 -134 164 -146 118 -146 c 0
 56 -146 0 -125 0 -62 c 0
 0 -1 52 79 107 113 c 0
 140 134 190 146 236 146 c 0
 263 146 288 142 308 133 c 0
 316 129 328 135 328 143 c 2
 328 850 l 1
EndSplineSet
EndChar

StartChar: Tcommaaccent
Encoding: 354 354 26
Width: 354
VWidth: 0
Flags: HW
HStem: 107 39<231.73 318.901> -133 26<28.1032 106.249>
VStem: 331 23<50.348 100.079> 0 26<-102.834 -45.052 -850 -133.829>
LayerCount: 2
Fore
SplineSet
23 -78 m 0
 23 -97 39 -107 57 -107 c 0
 90 -107 143 -80 203 -42 c 1
 277 3 331 46 331 78 c 0
 331 97 315 107 297 107 c 0
 264 107 211 80 151 42 c 1
 77 -3 23 -46 23 -78 c 0
26 -850 m 1
 0 -850 l 1
 0 -62 l 2
 0 -1 52 79 107 113 c 0
 140 134 190 146 236 146 c 0
 298 146 354 125 354 62 c 0
 354 1 302 -79 247 -113 c 0
 214 -134 164 -146 118 -146 c 0
 91 -146 66 -142 46 -133 c 0
 38 -129 26 -135 26 -143 c 2
 26 -850 l 1
EndSplineSet
EndChar

StartChar: utilde
Encoding: 361 361 27
Width: 326
Flags: HW
VStem: 0 26<-850 -123.911>
LayerCount: 2
Fore
SplineSet
231 -101 m 0
 196 -125 148 -141 105 -141 c 0
 80 -141 57 -136 39 -124 c 0
 35 -122 26 -126 26 -129 c 2
 26 -850 l 1
 0 -850 l 1
 0 -50 l 1
 0 -49 l 1
 1 7 46 68 95 101 c 0
 130 125 178 141 221 141 c 0
 258 141 292 130 311 100 c 1
 322 85 326 68 326 50 c 0
 326 -6 280 -68 231 -101 c 0
EndSplineSet
EndChar

StartChar: Utilde
Encoding: 360 360 28
Width: 326
Flags: W
VStem: 300 26<123.911 850>
LayerCount: 2
Fore
SplineSet
95 101 m 0
 130 125 178 141 221 141 c 0
 246 141 269 136 287 124 c 0
 291 122 300 126 300 129 c 2
 300 850 l 1
 326 850 l 1
 326 50 l 1
 326 49 l 1
 325 -7 280 -68 231 -101 c 0
 196 -125 148 -141 105 -141 c 0
 68 -141 34 -130 15 -100 c 1
 4 -85 0 -68 0 -50 c 0
 0 6 46 68 95 101 c 0
EndSplineSet
EndChar

StartChar: Uhungarumlaut
Encoding: 368 368 29
Width: 326
Flags: HW
VStem: 300 26<123.911 850>
LayerCount: 2
Fore
SplineSet
95 101 m 0
 130 125 178 141 221 141 c 0
 246 141 269 136 287 124 c 0
 291 122 300 126 300 129 c 2
 300 850 l 1
 327 850 l 1
 327 818 340 769 373 728 c 0
 445 637 575 535 575 320 c 0
 575 214 536 123 517 88 c 1
 489 102 l 1
 515 155 541 232 541 321 c 0
 541 437 498 521 425 569 c 0
 395 588 369 595 342 595 c 0
 333 595 326 588 326 582 c 2
 326 49 l 1
 325 -7 280 -68 231 -101 c 0
 196 -125 148 -141 105 -141 c 0
 68 -141 34 -130 15 -100 c 1
 4 -85 0 -68 0 -50 c 0
 0 6 46 68 95 101 c 0
EndSplineSet
EndChar

StartChar: uni0180
Encoding: 384 384 30
Width: 326
Flags: W
VStem: 300 27<123.911 369.92 525.177 578.793 727.878 786.793 935.878 983> 542 33<3.43535 218.641 310.735 453.804 521.087 661.197>
LayerCount: 2
Fore
SplineSet
327 567 m 0
 327 527 368 478 426 433 c 0
 472 397 508 357 533 310 c 1
 538 328 542 349 542 372 c 0
 542 445 507 519 421 560 c 0
 398 571 368 579 343 579 c 0
 334 579 327 573 327 567 c 0
95 101 m 0
 130 125 178 141 221 141 c 0
 246 141 269 136 287 124 c 0
 291 122 300 126 300 129 c 2
 300 983 l 1
 327 983 l 1
 327 935 363 896 426 846 c 0
 505 783 575 697 575 579 c 0
 575 536 565 502 554 478 c 1
 567 446 575 410 575 371 c 0
 575 326 564 290 552 266 c 1
 567 224 575 176 575 120 c 0
 575 33 544 -56 527 -86 c 1
 498 -75 l 1
 514 -38 542 34 542 121 c 0
 542 243 471 370 342 370 c 0
 333 370 326 363 326 357 c 2
 326 49 l 1
 325 -7 280 -68 231 -101 c 0
 196 -125 148 -141 105 -141 c 0
 68 -141 34 -130 15 -100 c 1
 4 -85 0 -68 0 -50 c 0
 0 6 46 68 95 101 c 0
327 775 m 0
 327 727 363 688 426 638 c 0
 467 605 506 566 533 520 c 1
 538 537 542 558 542 580 c 0
 542 653 507 727 421 768 c 0
 398 779 368 787 343 787 c 0
 334 787 327 781 327 775 c 0
EndSplineSet
EndChar

StartChar: uni0181
Encoding: 385 385 31
Width: 326
Flags: W
VStem: 0 27<-1008 -960.878 -811.793 -752.878 -603.793 -550.177 -394.92 -123.911> 242 33<-686.197 -546.087 -478.804 -335.735 -243.641 -95.5666>
LayerCount: 2
Fore
SplineSet
239 -95 m 1
 203 -121 152 -141 105 -141 c 0
 80 -141 57 -136 39 -124 c 0
 35 -122 26 -126 26 -129 c 2
 26 -382 l 2
 26 -388 33 -395 42 -395 c 0
 171 -395 242 -268 242 -146 c 0
 242 -128 241 -112 239 -95 c 1
27 -592 m 0
 27 -598 34 -604 43 -604 c 0
 68 -604 98 -596 121 -585 c 0
 207 -544 242 -470 242 -397 c 0
 242 -374 238 -353 233 -335 c 1
 208 -382 172 -422 126 -458 c 0
 68 -503 27 -552 27 -592 c 0
0 -1008 m 1
 0 -49 l 1
 1 7 46 68 95 101 c 0
 130 125 178 141 221 141 c 0
 258 141 292 130 311 100 c 1
 322 85 326 68 326 50 c 0
 326 9 301 -36 268 -70 c 1
 272 -94 275 -120 275 -145 c 0
 275 -201 267 -249 252 -291 c 1
 264 -315 275 -351 275 -396 c 0
 275 -435 267 -471 254 -503 c 1
 265 -527 275 -561 275 -604 c 0
 275 -722 205 -808 126 -871 c 0
 63 -921 27 -960 27 -1008 c 1
 0 -1008 l 1
233 -545 m 1
 206 -591 167 -630 126 -663 c 0
 63 -713 27 -752 27 -800 c 0
 27 -806 34 -812 43 -812 c 0
 68 -812 98 -804 121 -793 c 0
 207 -752 242 -678 242 -605 c 0
 242 -583 238 -562 233 -545 c 1
EndSplineSet
EndChar

StartChar: uni0188
Encoding: 392 392 32
Width: 326
Flags: HW
VStem: 300 27<123.911 369.92 525.177 578.793 727.878 786.793 935.878 983> 542 33<3.43535 218.641 310.735 453.804 521.087 661.197>
LayerCount: 2
Fore
SplineSet
327 750 m 0
 327 702 363 663 426 613 c 0
 467 580 506 541 533 495 c 1
 538 512 542 533 542 555 c 0
 542 628 507 702 421 743 c 0
 398 754 368 762 343 762 c 0
 334 762 327 756 327 750 c 0
95 101 m 0
 130 125 178 141 221 141 c 0
 246 141 269 136 287 124 c 0
 291 122 300 126 300 129 c 2
 300 1166 l 1
 327 1166 l 1
 327 1118 363 1079 426 1029 c 0
 505 966 575 880 575 762 c 0
 575 719 565 685 554 661 c 1
 567 629 575 593 575 554 c 0
 575 511 565 477 554 453 c 1
 567 421 575 385 575 346 c 0
 575 301 564 265 552 241 c 1
 567 199 575 151 575 95 c 0
 575 8 544 -81 527 -111 c 1
 498 -100 l 1
 514 -63 542 9 542 96 c 0
 542 218 471 345 342 345 c 0
 333 345 326 338 326 332 c 2
 326 49 l 1
 325 -7 280 -68 231 -101 c 0
 196 -125 148 -141 105 -141 c 0
 68 -141 34 -130 15 -100 c 1
 4 -85 0 -68 0 -50 c 0
 0 6 46 68 95 101 c 0
327 542 m 0
 327 502 368 453 426 408 c 0
 472 372 508 332 533 285 c 1
 538 303 542 324 542 347 c 0
 542 420 507 494 421 535 c 0
 398 546 368 554 343 554 c 0
 334 554 327 548 327 542 c 0
327 958 m 0
 327 910 363 871 426 821 c 0
 467 788 506 749 533 703 c 1
 538 720 542 741 542 763 c 0
 542 836 507 910 421 951 c 0
 398 962 368 970 343 970 c 0
 334 970 327 964 327 958 c 0
EndSplineSet
EndChar

StartChar: uni0189
Encoding: 393 393 33
Width: 326
Flags: W
VStem: 0 27<-1191 -1143.88 -994.793 -935.878 -786.793 -727.878 -578.793 -525.177 -369.92 -123.911> 242 33<-869.197 -729.087 -661.804 -521.087 -453.804 -310.735 -218.641 -94.5547>
LayerCount: 2
Fore
SplineSet
241 -94 m 1
 206 -121 153 -141 105 -141 c 0
 80 -141 57 -136 39 -124 c 0
 35 -122 26 -126 26 -129 c 2
 26 -357 l 2
 26 -363 33 -370 42 -370 c 0
 171 -370 242 -243 242 -121 c 0
 242 -112 242 -103 241 -94 c 1
27 -567 m 0
 27 -573 34 -579 43 -579 c 0
 68 -579 98 -571 121 -560 c 0
 207 -519 242 -445 242 -372 c 0
 242 -349 238 -328 233 -310 c 1
 208 -357 172 -397 126 -433 c 0
 68 -478 27 -527 27 -567 c 0
0 -1191 m 1
 0 -49 l 1
 1 7 46 68 95 101 c 0
 130 125 178 141 221 141 c 0
 258 141 292 130 311 100 c 1
 322 85 326 68 326 50 c 0
 326 10 303 -33 271 -66 c 1
 274 -84 275 -102 275 -120 c 0
 275 -176 267 -224 252 -266 c 1
 264 -290 275 -326 275 -371 c 0
 275 -410 267 -446 254 -478 c 1
 265 -502 275 -536 275 -579 c 0
 275 -618 267 -654 254 -686 c 1
 265 -710 275 -744 275 -787 c 0
 275 -905 205 -991 126 -1054 c 0
 63 -1104 27 -1143 27 -1191 c 1
 0 -1191 l 1
233 -520 m 1
 206 -566 167 -605 126 -638 c 0
 63 -688 27 -727 27 -775 c 0
 27 -781 34 -787 43 -787 c 0
 68 -787 98 -779 121 -768 c 0
 207 -727 242 -653 242 -580 c 0
 242 -558 238 -537 233 -520 c 1
233 -728 m 1
 206 -774 167 -813 126 -846 c 0
 63 -896 27 -935 27 -983 c 0
 27 -989 34 -995 43 -995 c 0
 68 -995 98 -987 121 -976 c 0
 207 -935 242 -861 242 -788 c 0
 242 -766 238 -745 233 -728 c 1
EndSplineSet
EndChar

StartChar: uni0191
Encoding: 401 401 34
Width: 326
Flags: HMW
VStem: 0 27<-1191 -1143.88 -994.793 -935.878 -786.793 -727.878 -578.793 -525.177 -369.92 -123.911> 242 33<-869.197 -729.087 -661.804 -521.087 -453.804 -310.735 -218.641 -94.5547>
LayerCount: 2
Fore
SplineSet
233 -728 m 1
 206 -774 167 -813 126 -846 c 0
 63 -896 27 -935 27 -983 c 0
 27 -989 34 -995 43 -995 c 0
 68 -995 98 -987 121 -976 c 0
 207 -935 242 -861 242 -788 c 0
 242 -766 238 -745 233 -728 c 1
233 -520 m 1
 206 -566 167 -605 126 -638 c 0
 63 -688 27 -727 27 -775 c 0
 27 -781 34 -787 43 -787 c 0
 68 -787 98 -779 121 -768 c 0
 207 -727 242 -653 242 -580 c 0
 242 -558 238 -537 233 -520 c 1
27 -567 m 0
 27 -573 34 -579 43 -579 c 0
 68 -579 98 -571 121 -560 c 0
 207 -519 242 -445 242 -372 c 0
 242 -349 238 -328 233 -310 c 1
 208 -357 172 -397 126 -433 c 0
 68 -478 27 -527 27 -567 c 0
241 -94 m 1
 206 -121 153 -141 105 -141 c 0
 80 -141 57 -136 39 -124 c 0
 35 -122 26 -126 26 -129 c 2
 26 -357 l 2
 26 -363 33 -370 42 -370 c 0
 171 -370 242 -243 242 -121 c 0
 242 -112 242 -103 241 -94 c 1
254 -894 m 1
 265 -918 275 -952 275 -995 c 0
 275 -1113 205 -1199 126 -1262 c 0
 63 -1312 27 -1351 27 -1399 c 1
 0 -1399 l 1
 0 -49 l 1
 1 7 46 68 95 101 c 0
 130 125 178 141 221 141 c 0
 258 141 292 130 311 100 c 1
 322 85 326 68 326 50 c 0
 326 10 303 -33 271 -66 c 1
 274 -84 275 -102 275 -120 c 0
 275 -176 267 -224 252 -266 c 1
 264 -290 275 -326 275 -371 c 0
 275 -410 267 -446 254 -478 c 1
 265 -502 275 -536 275 -579 c 0
 275 -618 267 -654 254 -686 c 1
 265 -710 275 -744 275 -787 c 0
 275 -826 267 -862 254 -894 c 1
233 -936 m 1
 206 -982 167 -1021 126 -1054 c 0
 63 -1104 27 -1143 27 -1191 c 0
 27 -1197 34 -1203 43 -1203 c 0
 68 -1203 98 -1195 121 -1184 c 0
 207 -1143 242 -1069 242 -996 c 0
 242 -974 238 -953 233 -936 c 1
EndSplineSet
EndChar

StartChar: uni01A8
Encoding: 424 424 35
Width: 202
Flags: W
HStem: -95 190<59.623 143.943>
VStem: 178 24<90.7285 275.996 394.137 445.918 557.345 600> 352 30<2.97531 173.314 243.593 363.788>
LayerCount: 2
Fore
SplineSet
0 -26 m 0
 0 37 62 95 129 95 c 0
 140 95 151 93 161 89 c 0
 166 86 178 91 178 96 c 2
 178 600 l 1
 203 600 l 1
 203 566 223 529 268 493 c 0
 322 450 382 385 382 302 c 0
 382 265 370 232 358 211 c 1
 373 178 382 141 382 98 c 0
 382 37 361 -25 349 -46 c 1
 323 -36 l 1
 334 -10 352 38 352 99 c 0
 352 163 321 222 277 251 c 0
 254 266 233 276 213 276 c 0
 207 276 202 271 202 267 c 2
 202 27 l 2
 202 -37 141 -95 74 -95 c 0
 35 -95 0 -68 0 -26 c 0
203 434 m 0
 203 400 226 367 268 327 c 0
 296 300 321 273 340 243 c 1
 346 260 352 282 352 303 c 0
 352 354 324 404 264 433 c 0
 248 441 233 446 216 446 c 0
 208 446 203 443 203 434 c 0
EndSplineSet
EndChar

StartChar: uni01A9
Encoding: 425 425 36
Width: 202
Flags: W
HStem: -95 190<58.0566 142.377>
VStem: 0 25<-625 -578.987 -470.991 -415.902 -300.996 -91.0391> 174 30<-388.788 -268.593 -198.314 -55.6425>
LayerCount: 2
Fore
SplineSet
25 -459 m 0
 25 -468 30 -471 38 -471 c 0
 55 -471 70 -466 86 -458 c 0
 146 -429 174 -379 174 -328 c 0
 174 -307 168 -285 162 -268 c 1
 143 -298 118 -325 90 -352 c 0
 48 -392 25 -425 25 -459 c 0
166 -55 m 1
 142 -79 108 -95 73 -95 c 0
 62 -95 51 -93 41 -89 c 0
 36 -86 24 -91 24 -96 c 2
 24 -292 l 2
 24 -296 29 -301 35 -301 c 0
 55 -301 76 -291 99 -276 c 0
 143 -247 174 -188 174 -124 c 0
 174 -98 171 -75 166 -55 c 1
0 -625 m 1
 0 -27 l 2
 0 37 61 95 128 95 c 0
 167 95 202 68 202 26 c 0
 202 8 197 -9 189 -24 c 1
 197 -52 204 -88 204 -123 c 0
 204 -166 195 -203 180 -236 c 1
 192 -257 204 -290 204 -327 c 0
 204 -410 144 -475 90 -518 c 0
 45 -554 25 -591 25 -625 c 1
 0 -625 l 1
EndSplineSet
EndChar

StartChar: racute
Encoding: 341 341 37
Width: 696
VWidth: 1429
Flags: W
HStem: -139 37<292.482 438.462> -93 187<144.762 213.968 488.448 549.722> 102 37<258.603 403.3> 223 20G<13.5 34.5 112.5 133.5 565.5 586.5 664.5 685.5>
VStem: 0 46<-242.991 242.934> 99 128<-31.8236 77.3779> 99 45<-242.991 -93.008 94.0102 242.934> 469 129<-77.3779 30.9969> 552 46<-242.991 -87.0066 100.006 242.934> 651 45<-242.991 242.934>
LayerCount: 2
Fore
SplineSet
696 -223 m 2xf840
 696 -240 690 -243 674 -243 c 3
 653 -243 651 -240 651 -220 c 2
 651 210 l 2
 651 233 654 243 675 243 c 3
 696 243 696 234 696 214 c 2
 696 -223 l 2xf840
144 -223 m 2xfac0
 144 -240 138 -243 122 -243 c 0
 101 -243 99 -240 99 -220 c 2
 99 210 l 2
 99 233 102 243 123 243 c 0
 144 243 144 234 144 214 c 2
 144 129 l 2
 144 108 148 94 164 94 c 0
 170 94 181 97 192 103 c 0
 239 130 303 139 353 139 c 0
 397 139 450 133 493 113 c 0
 506 106 521 100 531 100 c 0
 544 100 552 108 552 137 c 2
 552 210 l 2
 552 233 555 243 576 243 c 0
 597 243 598 234 598 214 c 2
 598 -223 l 2
 598 -240 591 -243 575 -243 c 0
 554 -243 552 -240 552 -220 c 2
 552 -120 l 2
 552 -96 546 -87 535 -87 c 0
 525 -87 511 -95 495 -104 c 0
 449 -128 390 -139 343 -139 c 0
 294 -139 234 -128 190 -102 c 0
 180 -96 172 -93 166 -93 c 0
 152 -93 144 -104 144 -123 c 2
 144 -223 l 2xfac0
363 -102 m 0
 435 -102 469 -70 469 -31 c 0
 469 -21 466 -10 462 0 c 2
 448 31 l 2
 421 92 369 102 333 102 c 0
 263 102 227 70 227 31 c 0xfd40
 227 21 231 11 235 1 c 2
 247 -29 l 2
 274 -90 324 -102 363 -102 c 0
46 -223 m 2
 46 -240 39 -243 23 -243 c 3
 2 -243 0 -240 0 -220 c 2
 0 210 l 2
 0 233 3 243 24 243 c 3
 45 243 46 234 46 214 c 2
 46 -223 l 2
EndSplineSet
EndChar

StartChar: Rcommaaccent
Encoding: 342 342 38
Width: 499
Flags: W
HStem: -132 83<31.3448 467.307> 49 83<32.2573 467.008> 231 20G<8 23 477.5 491>
VStem: 0 31<-249.986 -134.247 -46.6688 46.2636 134.937 250.999> 468 31<-249.998 -134.666 -47.4191 46.3816 134.804 251>
LayerCount: 2
Fore
SplineSet
428 -49 m 2
 465 -49 468 -45 468 -17 c 2
 468 16 l 2
 468 41 461 49 432 49 c 10
 68 49 l 2
 34 49 31 37 31 18 c 2
 31 -23 l 2
 31 -47 50 -49 64 -49 c 2
 428 -49 l 2
70 -132 m 2
 33 -132 31 -141 31 -164 c 2
 31 -234 l 2
 31 -248 29 -250 14 -250 c 3
 0 -250 0 -250 0 -236 c 2
 0 234 l 2
 0 250 1 251 15 251 c 3
 31 251 31 250 31 237 c 2
 31 167 l 2
 31 133 49 132 69 132 c 10
 432 132 l 18
 452 132 468 135 468 165 c 2
 468 238 l 2
 468 251 472 251 483 251 c 3
 499 251 499 251 499 236 c 2
 499 -232 l 2
 499 -250 497 -250 484 -250 c 3
 470 -250 468 -248 468 -234 c 2
 468 -163 l 2
 468 -134 453 -132 428 -132 c 10
 70 -132 l 2
EndSplineSet
EndChar

StartChar: Nacute
Encoding: 323 323 39
Width: 403
VWidth: 0
Flags: W
HStem: -101 32<33.2381 96.7026 221.548 285.766> 69 32<117.234 181.346 306.297 369.762>
VStem: 0 30<-65.5074 -11.4243> 184 35<-43 43> 373 30<11.4243 65.5074>
LayerCount: 2
Fore
SplineSet
73 -101 m 0
 33 -101 0 -76 0 -34 c 0
 0 5 25 48 50 68 c 0
 71 86 107 101 141 101 c 0
 167 101 191 90 204 70 c 0
 209 63 214 59 220 59 c 0
 225 59 231 62 239 68 c 0
 261 85 296 101 330 101 c 0
 370 101 403 76 403 34 c 0
 403 -5 378 -48 353 -68 c 0
 332 -86 296 -101 262 -101 c 0
 234 -101 209 -88 197 -66 c 0
 194 -62 190 -60 185 -60 c 0
 178 -60 171 -62 164 -68 c 0
 142 -85 107 -101 73 -101 c 0
184 43 m 0
 184 57 170 69 157 69 c 0
 135 69 107 47 85 28 c 1
 60 8 30 -20 30 -43 c 0
 30 -57 44 -69 57 -69 c 0
 79 -69 107 -47 129 -28 c 1
 154 -8 184 20 184 43 c 0
373 43 m 0
 373 57 359 69 346 69 c 0
 324 69 296 47 274 28 c 1
 249 8 219 -20 219 -43 c 0
 219 -57 233 -69 246 -69 c 0
 268 -69 296 -47 318 -28 c 1
 343 -8 373 20 373 43 c 0
EndSplineSet
EndChar

StartChar: lacute
Encoding: 314 314 40
Width: 269
VWidth: 1332
Flags: W
HStem: -127 254<92.6702 177.866>
VStem: 0 269<-39.47 38.6096>
LayerCount: 2
Fore
SplineSet
0 -35 m 0
 0 49 83 127 172 127 c 0
 224 127 269 92 269 36 c 0
 269 -49 188 -127 99 -127 c 0
 47 -127 0 -91 0 -35 c 0
EndSplineSet
EndChar

StartChar: oe
Encoding: 339 339 41
Width: 660
VWidth: 0
Flags: HW
HStem: -140 280<272 391>
VStem: 6 26<-250 250> 86 26<-250 -81.9997 78.527 250> 548 26<-250 -71.726 76.7693 250> 628 26<-250 250>
LayerCount: 2
Fore
SplineSet
628 250 m 1
 660 250 l 1
 660 -250 l 1
 628 -250 l 1
 628 250 l 1
0 250 m 1
 32 250 l 1
 32 -250 l 1
 0 -250 l 1
 0 250 l 1
415 52 m 1
 403 97 355 123 294 115 c 0
 210 105 216 43 231 -7 c 2
 245 -52 l 2
 257 -93 304 -123 366 -115 c 0
 449 -105 443 -43 429 4 c 2
 415 52 l 1
80 250 m 1
 112 250 l 1
 112 86 l 2
 112 74 126 71 137 81 c 0
 186 126 272 140 335 140 c 0
 398 140 487 126 531 77 c 0
 536 72 548 72 548 82 c 2
 548 250 l 1
 580 250 l 1
 580 -250 l 1
 548 -250 l 1
 548 -77 l 2
 548 -70 536 -66 531 -72 c 0
 485 -124 391 -140 325 -140 c 0
 264 -140 181 -127 135 -83 c 0
 128 -76 112 -66 112 -90 c 2
 112 -250 l 1
 80 -250 l 1
 80 250 l 1
EndSplineSet
EndChar

StartChar: rcommaaccent
Encoding: 343 343 42
Width: 349
Flags: W
HStem: -97 61<28.1282 320.554> 36 61<28.5024 320.336> 162 20G<8.5 21 329 342>
VStem: 0 28<-180.997 -98.905 -35.1875 33.9611 98.4852 181.994> 321 28<-180.992 -98.7462 -33.7661 34.246 99.2676 181.994>
LayerCount: 2
Fore
SplineSet
321 -9 m 2
 321 10 l 2
 321 33 313 36 286 36 c 2
 62 36 l 2
 36 36 28 31 28 9 c 2
 28 -13 l 2
 28 -36 39 -36 58 -36 c 2
 285 -36 l 2
 316 -36 321 -29 321 -9 c 2
28 -124 m 2
 28 -167 l 2
 28 -179 27 -181 14 -181 c 3
 2 -181 0 -177 0 -168 c 2
 0 164 l 2
 0 180 2 182 15 182 c 3
 27 182 28 180 28 167 c 2
 28 129 l 2
 28 97 38 97 63 97 c 2
 284 97 l 2
 310 97 321 99 321 130 c 2
 321 166 l 2
 321 181 322 182 336 182 c 3
 348 182 349 180 349 168 c 10
 349 -165 l 2
 349 -179 348 -181 334 -181 c 3
 322 -181 321 -180 321 -166 c 2
 321 -128 l 2
 321 -100 313 -97 288 -97 c 2
 60 -97 l 2
 30 -97 28 -106 28 -124 c 2
EndSplineSet
EndChar

StartChar: ohungarumlaut
Encoding: 337 337 43
Width: 357
Flags: W
HStem: -97 26<143.771 240.547> -59 119<28.3504 87.2065 273.512 328.869> 71 26<116.987 213.007> 155 20G<8 20 337 349>
VStem: 0 99<-32.8886 59.3534> 0 28<-174.999 -59.1657 60.0051 174.999> 258 99<-57.8769 33.1437> 329 28<-174.999 -58.0397 63.0044 174.999>
LayerCount: 2
Back
SplineSet
343 175 m 0
 355 175 357 174 357 161 c 2
 357 -161 l 2
 357 -174 356 -175 343 -175 c 0
 330 -175 329 -175 329 -160 c 2
 329 162 l 2
 329 174 331 175 343 175 c 0
189 -71 m 0
 248 -71 269 -41 252 0 c 2
 242 22 l 2
 223 65 193 71 168 71 c 0
 110 71 88 41 105 1 c 2
 114 -20 l 2
 133 -63 162 -71 189 -71 c 0
24 -1 m 0
 24 78 118 97 182 97 c 0
 244 97 333 79 333 1 c 0
 333 -69 239 -97 175 -97 c 0
 113 -97 24 -71 24 -1 c 0
14 175 m 4
 26 175 28 174 28 161 c 6
 28 -161 l 6
 28 -174 27 -175 14 -175 c 4
 1 -175 0 -175 0 -160 c 6
 0 162 l 6
 0 174 2 175 14 175 c 4
EndSplineSet
Fore
SplineSet
14 175 m 0xf5
 26 175 28 174 28 161 c 2
 28 83 l 2
 28 67 33 60 42 60 c 0
 47 60 54 63 62 68 c 0
 95 90 182 97 182 97 c 1
 217 97 260 91 292 73 c 0
 300 67 309 63 315 63 c 0
 324 63 329 69 329 86 c 2
 329 162 l 2
 329 174 331 175 343 175 c 0
 355 175 357 174 357 161 c 2
 357 -161 l 2
 357 -174 356 -175 343 -175 c 0
 330 -175 329 -175 329 -160 c 2
 329 -77 l 2
 329 -64 323 -58 314 -58 c 0
 308 -58 300 -61 292 -67 c 0
 258 -88 212 -97 175 -97 c 0
 138 -97 91 -88 59 -65 c 0
 54 -61 48 -59 44 -59 c 0
 34 -59 28 -68 28 -88 c 2
 28 -161 l 2
 28 -174 27 -175 14 -175 c 0
 1 -175 0 -175 0 -160 c 2
 0 162 l 2
 0 174 2 175 14 175 c 0xf5
189 -71 m 0
 235 -71 258 -53 258 -26 c 0
 258 -18 256 -9 252 0 c 2
 242 22 l 2
 223 65 193 71 168 71 c 0
 123 71 99 53 99 26 c 0xfa
 99 18 101 10 105 1 c 2
 114 -20 l 2
 133 -63 162 -71 189 -71 c 0
EndSplineSet
EndChar

StartChar: ncaron
Encoding: 328 328 44
Width: 458
Flags: HW
HStem: -140 280<143 315>
VStem: 0 458<-110 111>
LayerCount: 2
Back
SplineSet
0 -2 m 4
 1 111 143 140 234 140 c 4
 322 140 458 113 458 2 c 4
 457 -110 315 -140 224 -140 c 4
 136 -140 0 -113 0 -2 c 4
314 52 m 4
 302 97 254 123 193 115 c 4
 109 105 115 43 130 -7 c 4
 144 -52 l 4
 156 -93 203 -123 265 -115 c 4
 348 -105 342 -43 328 4 c 4
 314 52 l 4
314 52 m 6
 296 113 254 121 193 115 c 4
 110 106 107 66 130 -7 c 6
 144 -52 l 6
 164 -115 203 -120 265 -115 c 4
 349 -108 348 -65 328 4 c 6
 314 52 l 6
EndSplineSet
Fore
SplineSet
0 -2 m 4
 1 111 143 140 234 140 c 4
 322 140 458 113 458 2 c 4
 457 -110 315 -140 224 -140 c 4
 136 -140 0 -113 0 -2 c 4
314 52 m 4
 302 97 254 123 193 115 c 4
 109 105 115 43 130 -7 c 4
 144 -52 l 4
 156 -93 203 -123 265 -115 c 4
 348 -105 342 -43 328 4 c 4
 314 52 l 4
EndSplineSet
EndChar

StartChar: Ohorn
Encoding: 416 416 45
Width: 202
Flags: W
HStem: -95 190<59.623 143.943>
VStem: 178 24<90.7285 396.996 523.761 575> 352 30<107.571 287.017>
LayerCount: 2
Fore
SplineSet
0 -26 m 0
 0 37 62 95 129 95 c 0
 140 95 151 93 161 89 c 0
 166 86 178 91 178 96 c 2
 178 575 l 1
 203 575 l 1
 203 549 214 515 229 496 c 0
 279 432 382 354 382 204 c 0
 382 133 355 66 342 42 c 1
 317 54 l 1
 335 91 352 146 352 205 c 0
 352 286 312 347 271 376 c 0
 251 390 235 397 213 397 c 0
 207 397 202 392 202 388 c 2
 202 27 l 2
 202 -37 141 -95 74 -95 c 0
 35 -95 0 -68 0 -26 c 0
EndSplineSet
EndChar

StartChar: uni01A2
Encoding: 418 418 46
Width: 202
Flags: W
HStem: -95 190<59.623 143.943>
VStem: 178 24<90.7285 241 276 396.996 523.761 575> 352 30<107.571 287.941>
LayerCount: 2
Back
SplineSet
457 369 m 5
 465 346 l 5
 67 201 l 5
 59 224 l 5
 457 369 l 5
0 -26 m 4
 0 37 62 95 129 95 c 4
 140 95 151 93 161 89 c 4
 166 86 178 91 178 96 c 6
 178 575 l 5
 203 575 l 5
 203 549 214 515 229 496 c 4
 279 432 382 354 382 204 c 4
 382 133 355 66 342 42 c 5
 317 54 l 5
 335 91 352 146 352 205 c 4
 352 286 312 347 271 376 c 4
 251 390 235 397 213 397 c 4
 207 397 202 392 202 388 c 6
 202 27 l 6
 202 -37 141 -95 74 -95 c 4
 35 -95 0 -68 0 -26 c 4
EndSplineSet
Fore
SplineSet
0 -26 m 0
 0 37 62 95 129 95 c 0
 140 95 151 93 161 89 c 0
 166 86 178 91 178 96 c 2
 178 241 l 1
 67 201 l 1
 59 224 l 1
 178 267 l 1
 178 575 l 1
 203 575 l 1
 203 549 214 515 229 496 c 0
 262 453 320 404 354 331 c 1
 457 369 l 1
 465 346 l 1
 363 309 l 1
 375 278 382 244 382 204 c 0
 382 133 355 66 342 42 c 1
 317 54 l 1
 335 91 352 146 352 205 c 0
 352 240 345 271 333 298 c 1
 202 250 l 1
 202 27 l 2
 202 -37 141 -95 74 -95 c 0
 35 -95 0 -68 0 -26 c 0
202 276 m 1
 322 320 l 1
 307 344 289 363 271 376 c 0
 251 390 235 397 213 397 c 0
 207 397 202 392 202 388 c 2
 202 276 l 1
EndSplineSet
EndChar

StartChar: uni0190
Encoding: 400 400 47
Width: 326
Flags: W
VStem: 300 27<123.911 319.92 475.177 528.793 677.878 736.793 885.878 944.793 1093.88 1152.79 1301.88 1349> 542 33<-46.5647 168.641 260.735 403.804 471.087 611.804 679.087 819.804 887.087 1027.2>
LayerCount: 2
Fore
SplineSet
327 933 m 0
 327 885 363 846 426 796 c 0
 467 763 506 724 533 678 c 1
 538 695 542 716 542 738 c 0
 542 811 507 885 421 926 c 0
 398 937 368 945 343 945 c 0
 334 945 327 939 327 933 c 0
327 517 m 0
 327 477 368 428 426 383 c 0
 472 347 508 307 533 260 c 1
 538 278 542 299 542 322 c 0
 542 395 507 469 421 510 c 0
 398 521 368 529 343 529 c 0
 334 529 327 523 327 517 c 0
95 101 m 0
 130 125 178 141 221 141 c 0
 246 141 269 136 287 124 c 0
 291 122 300 126 300 129 c 2
 300 1349 l 1
 327 1349 l 1
 327 1301 363 1262 426 1212 c 0
 505 1149 575 1063 575 945 c 0
 575 902 565 868 554 844 c 1
 567 812 575 776 575 737 c 0
 575 694 565 660 554 636 c 1
 567 604 575 568 575 529 c 0
 575 486 565 452 554 428 c 1
 567 396 575 360 575 321 c 0
 575 276 564 240 552 216 c 1
 567 174 575 126 575 70 c 0
 575 -17 544 -106 527 -136 c 1
 498 -125 l 1
 514 -88 542 -16 542 71 c 0
 542 193 471 320 342 320 c 0
 333 320 326 313 326 307 c 2
 326 49 l 1
 325 -7 280 -68 231 -101 c 0
 196 -125 148 -141 105 -141 c 0
 68 -141 34 -130 15 -100 c 1
 4 -85 0 -68 0 -50 c 0
 0 6 46 68 95 101 c 0
327 725 m 0
 327 677 363 638 426 588 c 0
 467 555 506 516 533 470 c 1
 538 487 542 508 542 530 c 0
 542 603 507 677 421 718 c 0
 398 729 368 737 343 737 c 0
 334 737 327 731 327 725 c 0
327 1141 m 0
 327 1093 363 1054 426 1004 c 0
 467 971 506 932 533 886 c 1
 538 903 542 924 542 946 c 0
 542 1019 507 1093 421 1134 c 0
 398 1145 368 1153 343 1153 c 0
 334 1153 327 1147 327 1141 c 0
EndSplineSet
EndChar

StartChar: uni01E8
Encoding: 488 488 48
Width: 344
Flags: HW
HStem: -137 40<40 300> 97 40<40 300>
VStem: 0 40<-97 97> 300 40<-96.7879 97>
LayerCount: 2
Back
SplineSet
40 97 m 1
 40 -97 l 1
 300 -97 l 1
 300 97 l 1
 40 97 l 1
0 137 m 1
 340 137 l 1
 340 -137 l 1
 0 -137 l 1
 0 137 l 1
EndSplineSet
Fore
SplineSet
40 82 m 2
 40 -79 l 2
 40 -88 52 -97 57 -97 c 2
 282 -97 l 2
 291 -97 304 -85 304 -77 c 2
 304 77 l 2
 304 85 293 97 285 97 c 2
 56 97 l 2
 50 97 40 86 40 82 c 2
0 137 m 1
 344 137 l 1
 344 -137 l 1
 0 -137 l 1
 0 137 l 1
EndSplineSet
EndChar

StartChar: uni01E9
Encoding: 489 489 49
Width: 344
Flags: HW
HStem: -137 274<0 340>
VStem: 0 340<-137 137>
LayerCount: 2
Fore
SplineSet
0 137 m 1
 344 137 l 1
 344 -137 l 1
 0 -137 l 1
 0 137 l 1
EndSplineSet
EndChar

StartChar: uni01EA
Encoding: 490 490 50
Width: 274
Flags: W
HStem: -137 40<40 234> 97 40<40 234>
VStem: 0 40<-97 97> 234 40<-96.7879 97>
LayerCount: 2
Fore
SplineSet
40 82 m 2
 40 -79 l 2
 40 -88 52 -97 57 -97 c 2
 212 -97 l 2
 221 -97 234 -85 234 -77 c 2
 234 77 l 2
 234 85 223 97 215 97 c 2
 56 97 l 2
 50 97 40 86 40 82 c 2
0 137 m 1
 274 137 l 1
 274 -137 l 1
 0 -137 l 1
 0 137 l 1
EndSplineSet
EndChar

StartChar: uni01EB
Encoding: 491 491 51
Width: 274
Flags: W
HStem: -137 274<0 274>
VStem: 0 274<-137 137>
LayerCount: 2
Fore
SplineSet
0 137 m 1
 274 137 l 1
 274 -137 l 1
 0 -137 l 1
 0 137 l 1
EndSplineSet
EndChar

StartChar: uni01EC
Encoding: 492 492 52
Width: 354
Flags: HMW
LayerCount: 2
Back
SplineSet
40 70 m 6
 40 -67 l 6
 40 -76 52 -85 57 -85 c 6
 188 -85 l 6
 197 -85 210 -73 210 -65 c 6
 210 65 l 6
 210 73 199 85 191 85 c 6
 56 85 l 6
 50 85 40 74 40 70 c 6
0 125 m 5
 250 125 l 5
 250 -125 l 5
 0 -125 l 5
 0 125 l 5
EndSplineSet
Fore
SplineSet
67 -11 m 2
 164 -107 l 2
 170 -113 185 -112 189 -108 c 6
 282 -16 l 2
 288 -10 289 8 283 14 c 2
 191 106 l 2
 185 112 170 113 164 107 c 2
 68 11 l 2
 64 7 64 -8 67 -11 c 2
0 0 m 1
 177 177 l 1
 354 0 l 1
 177 -177 l 1
 0 0 l 1
EndSplineSet
EndChar

StartChar: uni01ED
Encoding: 493 493 53
Width: 354
Flags: HW
LayerCount: 2
Fore
SplineSet
0 0 m 1
 177 177 l 1
 354 0 l 1
 177 -177 l 1
 0 0 l 1
EndSplineSet
EndChar

StartChar: uni01EE
Encoding: 494 494 54
Width: 304
VWidth: 0
Flags: W
HStem: -152 40<90.4229 213.111> 112 40<90.8888 213.577>
VStem: 0 40<-61.1112 61.5771> 264 40<-61.5771 61.1112>
LayerCount: 2
Fore
SplineSet
0 0 m 0
 0 86 72 152 152 152 c 0
 238 152 304 80 304 0 c 0
 304 -86 232 -152 152 -152 c 0
 66 -152 0 -80 0 0 c 0
40 0 m 0
 40 -59 89 -112 152 -112 c 0
 211 -112 264 -63 264 0 c 0
 264 59 215 112 152 112 c 0
 93 112 40 63 40 0 c 0
EndSplineSet
EndChar

StartChar: uni01EF
Encoding: 495 495 55
Width: 304
VWidth: 0
Flags: HW
HStem: -152 40<90.4229 213.111> 112 40<90.8888 213.577>
VStem: 0 40<-61.1112 61.5771> 264 40<-61.5771 61.1112>
LayerCount: 2
Fore
SplineSet
0 0 m 0
 0 86 72 152 152 152 c 0
 238 152 304 80 304 0 c 0
 304 -86 232 -152 152 -152 c 0
 66 -152 0 -80 0 0 c 0
EndSplineSet
EndChar

StartChar: uni01F0
Encoding: 496 496 56
Width: 401
Flags: W
HStem: -137 40<84.1696 316.949>
LayerCount: 2
Back
SplineSet
344.654 -120 m 1
 187.538 152.333 l 1
 200.5 210.562 l 1
 401 -137 l 1
 344.654 -120 l 1
0 -137 m 1
 200.5 210.562 l 1
 211.827 149.5 l 1
 58.6539 -116 l 1
 0 -137 l 1
46.5 -97 m 1
 355.333 -97 l 1
 401 -137 l 1
 0 -137 l 1
 46.5 -97 l 1
366 -157 m 1
 141 233 l 1
 176 253 l 1
 401 -137 l 1
 366 -157 l 1
0 -137 m 1
 225 253 l 1
 260 233 l 1
 35 -157 l 1
 0 -137 l 1
0 -97 m 5
 401 -97 l 5
 401 -137 l 5
 0 -137 l 5
 0 -97 l 5
EndSplineSet
Fore
SplineSet
100 -97 m 2
 304 -97 l 2
 320 -97 319 -77 315 -69 c 2
 216 102 l 2
 210 113 190 112 184 102 c 2
 86 -70 l 2
 80 -79 89 -97 100 -97 c 2
0 -137 m 1
 200 211 l 1
 401 -137 l 1
 0 -137 l 1
EndSplineSet
EndChar

StartChar: uni01F1
Encoding: 497 497 57
Width: 401
Flags: W
LayerCount: 2
Fore
SplineSet
0 -137 m 1
 200 211 l 1
 401 -137 l 1
 0 -137 l 1
EndSplineSet
EndChar

StartChar: uni01F2
Encoding: 498 498 58
Width: 401
Flags: W
HStem: 97 40<84.1696 316.949>
LayerCount: 2
Fore
SplineSet
100 97 m 2
 89 97 80 79 86 70 c 2
 184 -102 l 2
 190 -112 210 -113 216 -102 c 2
 315 69 l 2
 319 77 320 97 304 97 c 2
 100 97 l 2
0 137 m 1
 401 137 l 1
 200 -211 l 1
 0 137 l 1
EndSplineSet
EndChar

StartChar: uni01F3
Encoding: 499 499 59
Width: 401
Flags: W
LayerCount: 2
Fore
SplineSet
0 137 m 1
 401 137 l 1
 200 -211 l 1
 0 137 l 1
EndSplineSet
EndChar

StartChar: uni01F4
Encoding: 500 500 60
Width: 409
Flags: W
HStem: -137 40<40.9491 275.84>
VStem: 0 40<-96.6449 107.787>
LayerCount: 2
Back
SplineSet
337 -122 m 5
 8 154 l 5
 -17 226 l 5
 417 -137 l 5
 337 -122 l 5
0 -137 m 5
 0 230 l 5
 40 172 l 5
 40 -137 l 5
 0 -137 l 5
0 -97 m 5
 346 -97 l 5
 417 -137 l 5
 0 -137 l 5
 0 -97 l 5
EndSplineSet
Fore
SplineSet
0 -137 m 1
 0 201 l 2
 0 209 3 210 8 205 c 2
 404 -126 l 2
 408 -129 409 -132 409 -133 c 0
 409 -136 406 -137 398 -137 c 2
 0 -137 l 1
62 -97 m 2
 263 -97 l 2
 278 -97 281 -75 270 -66 c 2
 65 106 l 2
 58 112 40 108 40 97 c 2
 40 -72 l 2
 40 -83 54 -97 62 -97 c 2
EndSplineSet
EndChar

StartChar: uni01F5
Encoding: 501 501 61
Width: 409
Flags: W
LayerCount: 2
Fore
SplineSet
0 -137 m 5
 0 201 l 2
 0 209 3 210 8 205 c 2
 404 -126 l 2
 408 -129 409 -132 409 -133 c 0
 409 -136 406 -137 398 -137 c 2
 0 -137 l 5
EndSplineSet
EndChar

StartChar: uni01F6
Encoding: 502 502 62
Width: 409
Flags: HW
HStem: -137 40<133 368>
VStem: 369 40<-97 108>
LayerCount: 2
Fore
SplineSet
11 -137 m 6
 3 -137 0 -136 0 -133 c 0
 0 -132 1 -129 5 -126 c 2
 401 205 l 2
 406 210 409 209 409 201 c 2
 409 -137 l 1
 11 -137 l 6
347 -97 m 2
 355 -97 369 -83 369 -72 c 2
 369 97 l 2
 369 108 351 112 344 106 c 2
 139 -66 l 2
 128 -75 131 -97 146 -97 c 2
 347 -97 l 2
EndSplineSet
EndChar

StartChar: uni01F7
Encoding: 503 503 63
Width: 409
Flags: HW
HStem: -137 40<133 368>
VStem: 369 40<-97 108>
LayerCount: 2
Fore
SplineSet
11 -137 m 6
 3 -137 0 -136 0 -133 c 0
 0 -132 1 -129 5 -126 c 2
 401 205 l 2
 406 210 409 209 409 201 c 2
 409 -137 l 1
 11 -137 l 6
EndSplineSet
EndChar

StartChar: uni01F8
Encoding: 504 504 64
Width: 409
Flags: W
HStem: 97 40<40.9491 275.84>
VStem: 0 40<-107.787 96.6449>
LayerCount: 2
Fore
SplineSet
398 137 m 2
 406 137 409 136 409 133 c 0
 409 132 408 129 404 126 c 2
 8 -205 l 2
 3 -210 0 -209 0 -201 c 2
 0 137 l 1
 398 137 l 2
62 97 m 2
 54 97 40 83 40 72 c 2
 40 -97 l 2
 40 -108 58 -112 65 -106 c 2
 270 66 l 2
 281 75 278 97 263 97 c 2
 62 97 l 2
EndSplineSet
EndChar

StartChar: uni01F9
Encoding: 505 505 65
Width: 409
Flags: HW
HStem: 97 40<41 276>
VStem: 0 40<-108 97>
LayerCount: 2
Fore
SplineSet
398 137 m 2
 406 137 409 136 409 133 c 0
 409 132 408 129 404 126 c 2
 8 -205 l 2
 3 -210 0 -209 0 -201 c 2
 0 137 l 5
 398 137 l 2
EndSplineSet
EndChar

StartChar: Aringacute
Encoding: 506 506 66
Width: 409
Flags: W
HStem: 97 40<133.16 368.051>
VStem: 369 40<-107.787 96.6449>
LayerCount: 2
Fore
SplineSet
409 137 m 1
 409 -201 l 2
 409 -209 406 -210 401 -205 c 2
 5 126 l 2
 1 129 0 132 0 133 c 0
 0 136 3 137 11 137 c 2
 409 137 l 1
347 97 m 2
 146 97 l 2
 131 97 128 75 139 66 c 2
 344 -106 l 6
 351 -112 369 -108 369 -97 c 2
 369 72 l 2
 369 83 355 97 347 97 c 2
EndSplineSet
EndChar

StartChar: aringacute
Encoding: 507 507 67
Width: 409
Flags: HW
HStem: 97 40<133 368>
VStem: 369 40<-108 97>
LayerCount: 2
Fore
SplineSet
409 137 m 5
 409 -201 l 2
 409 -209 406 -210 401 -205 c 2
 5 126 l 2
 1 129 0 132 0 133 c 0
 0 136 3 137 11 137 c 2
 409 137 l 5
EndSplineSet
EndChar

StartChar: AEacute
Encoding: 508 508 68
Width: 330
Flags: HMW
LayerCount: 2
Back
SplineSet
412 7 m 0
 412 -4 436 -22 444 -30 c 0
 451 -37 457 -43 462 -49 c 0
 469 -57 475 -61 481 -61 c 0
 487 -61 493 -56 501 -48 c 2
 524 -25 l 2
 531 -18 535 -14 535 -8 c 0
 535 -3 531 2 521 12 c 0
 515 17 509 24 503 30 c 2
 486 47 l 2
 476 57 471 62 465 62 c 0
 460 62 455 57 448 50 c 2
 423 24 l 2
 416 17 412 12 412 7 c 0
372 36 m 2
 435 99 l 2
 448 112 455 119 461 119 c 0
 468 119 474 111 486 96 c 0
 505 71 541 34 567 14 c 0
 583 2 591 -5 591 -13 c 0
 591 -19 586 -25 576 -35 c 2
 509 -101 l 2
 497 -113 490 -119 484 -119 c 0
 478 -119 473 -113 464 -101 c 0
 453 -87 440 -70 422 -52 c 0
 405 -35 387 -21 373 -10 c 0
 360 0 354 6 354 12 c 0
 354 18 360 24 372 36 c 2
64 61 m 0
 45 58 19 56 0 56 c 0
 -19 56 -44 58 -62 61 c 0
 -70 62 -77 55 -77 49 c 2
 -77 -45 l 2
 -77 -52 -67 -61 -60 -60 c 0
 -42 -58 -18 -56 0 -56 c 0
 19 -56 44 -58 62 -61 c 0
 71 -62 78 -55 78 -47 c 2
 78 51 l 2
 78 55 69 61 64 61 c 0
78 62.835 m 1
 61.1504 59.8643 25 56 0 56 c 0
 -25 56 -60.1504 59.8643 -77 62.835 c 1
 -77 -62.835 l 1
 -60.1504 -59.8643 -25 -56 0 -56 c 0
 25 -56 61.1504 -59.8643 78 -62.835 c 1
 78 62.835 l 1
-128 105 m 1
 -104.053 97.2188 -45 87 0 87 c 0
 45 87 105.053 97.2188 129 105 c 1
 129 -105 l 1
 105.053 -97.2188 45 -87 0 -87 c 0
 -45 -87 -104.053 -97.2188 -128 -105 c 1
 -128 105 l 1
EndSplineSet
Fore
SplineSet
253 -2 m 0
 237 9 218 27 205 40 c 0
 192 53 175 72 164 87 c 0
 159 93 149 93 145 89 c 2
 79 23 l 2
 74 18 74 4 80 0 c 0
 94 -11 112 -27 125 -40 c 0
 138 -53 155 -72 166 -87 c 0
 172 -94 181 -94 187 -88 c 2
 256 -19 l 2
 259 -16 257 -6 253 -2 c 0
149 165 m 1
 160 143 195 94 227 62 c 0
 259 30 308 -6 330 -17 c 1
 182 -165 l 1
 171 -143 135 -94 103 -62 c 0
 71 -30 22 5 0 16 c 1
 149 165 l 1
EndSplineSet
EndChar

StartChar: aeacute
Encoding: 509 509 69
Width: 330
Flags: W
LayerCount: 2
Fore
SplineSet
149 165 m 1
 160 143 195 94 227 62 c 0
 259 30 308 -6 330 -17 c 1
 182 -165 l 1
 171 -143 135 -94 103 -62 c 0
 71 -30 22 5 0 16 c 1
 149 165 l 1
EndSplineSet
EndChar

StartChar: uni0200
Encoding: 512 512 70
Width: 414
Flags: HW
HStem: -137 40<40 300> 97 40<40 300>
VStem: 0 40<-97 97> 300 40<-96.7879 97>
LayerCount: 2
Fore
SplineSet
40 82 m 2
 40 -79 l 2
 40 -88 52 -97 57 -97 c 2
 352 -97 l 2
 361 -97 374 -85 374 -77 c 2
 374 77 l 2
 374 85 363 97 355 97 c 2
 56 97 l 2
 50 97 40 86 40 82 c 2
0 137 m 1
 414 137 l 1
 414 -137 l 1
 0 -137 l 1
 0 137 l 1
EndSplineSet
EndChar

StartChar: uni0201
Encoding: 513 513 71
Width: 414
Flags: HW
HStem: -137 40<40 300> 97 40<40 300>
VStem: 0 40<-97 97> 300 40<-96.7879 97>
LayerCount: 2
Fore
SplineSet
0 137 m 1
 414 137 l 1
 414 -137 l 1
 0 -137 l 1
 0 137 l 1
EndSplineSet
EndChar

StartChar: uni0208
Encoding: 520 520 72
Width: 274
Flags: W
HStem: -137 40<78.7253 190.016> 97 40<78.6828 197.316>
VStem: 0 40<-54.4375 60.2711> 234 40<-53.4109 59.3641>
LayerCount: 2
Fore
SplineSet
22 137 m 1
 252 137 l 1
 374 259 l 1
 396 237 l 1
 274 115 l 1
 274 -115 l 1
 396 -237 l 1
 374 -259 l 1
 252 -137 l 1
 22 -137 l 1
 -100 -259 l 1
 -122 -237 l 1
 0 -115 l 1
 -0 115 l 1
 -122 237 l 1
 -100 259 l 1
 22 137 l 1
79 79 m 2
 121 37 l 2
 129 29 148 32 153 37 c 2
 197 82 l 2
 204 89 194 97 186 97 c 2
 86 97 l 2
 80 97 72 86 79 79 c 2
40 52 m 2
 40 -44 l 2
 40 -52 50 -65 59 -57 c 2
 100 -16 l 2
 105 -11 106 10 99 17 c 2
 56 60 l 2
 50 66 40 58 40 52 c 2
87 -97 m 2
 182 -97 l 2
 194 -97 193 -77 188 -72 c 2
 150 -34 l 2
 142 -26 127 -31 122 -36 c 2
 79 -79 l 2
 73 -85 76 -97 87 -97 c 2
234 -46 m 2
 234 50 l 2
 234 60 225 67 217 59 c 2
 176 17 l 2
 169 11 167 -9 172 -14 c 2
 212 -53 l 2
 220 -62 234 -56 234 -46 c 2
EndSplineSet
EndChar

StartChar: uni0209
Encoding: 521 521 73
Width: 274
Flags: HW
HStem: -137 40<78.7253 190.016> 97 40<78.6828 197.316>
VStem: 0 40<-54.4375 60.2711> 234 40<-53.4109 59.3641>
LayerCount: 2
Fore
SplineSet
22 137 m 1
 252 137 l 1
 374 259 l 1
 396 237 l 1
 274 115 l 1
 274 -115 l 1
 396 -237 l 1
 374 -259 l 1
 252 -137 l 1
 22 -137 l 1
 -100 -259 l 1
 -122 -237 l 1
 0 -115 l 1
 -0 115 l 1
 -122 237 l 1
 -100 259 l 1
 22 137 l 1
EndSplineSet
EndChar

StartChar: uni020A
Encoding: 522 522 74
Width: 274
Flags: HW
HStem: -137 40<83.1777 234> 97 40<40 190.002>
VStem: 0 40<-54.2732 97> 234 40<-96.7879 54.2725>
LayerCount: 2
Fore
SplineSet
252 137 m 1
 374 259 l 1
 396 237 l 1
 274 115 l 1
 274 -137 l 1
 22 -137 l 1
 -100 -259 l 5
 -122 -237 l 5
 0 -115 l 1
 0 137 l 1
 252 137 l 1
175 97 m 2
 56 97 l 2
 50 97 40 86 40 82 c 2
 40 -45 l 2
 40 -55 55 -60 61 -54 c 2
 190 75 l 2
 198 82 184 97 175 97 c 2
213 54 m 2
 84 -74 l 2
 79 -80 84 -97 91 -97 c 2
 212 -97 l 2
 221 -97 234 -85 234 -77 c 2
 234 44 l 2
 234 54 219 60 213 54 c 2
EndSplineSet
EndChar

StartChar: uni0202
Encoding: 514 514 75
Width: 484
Flags: HW
HStem: -137 40<40 300> 97 40<40 300>
VStem: 0 40<-97 97> 300 40<-96.7879 97>
LayerCount: 2
Fore
SplineSet
40 82 m 2
 40 -79 l 2
 40 -88 52 -97 57 -97 c 2
 422 -97 l 2
 431 -97 444 -85 444 -77 c 2
 444 77 l 2
 444 85 433 97 425 97 c 2
 56 97 l 2
 50 97 40 86 40 82 c 2
0 137 m 1
 484 137 l 1
 484 -137 l 1
 0 -137 l 1
 0 137 l 1
EndSplineSet
EndChar

StartChar: uni0203
Encoding: 515 515 76
Width: 484
Flags: HW
HStem: -137 40<40 300> 97 40<40 300>
VStem: 0 40<-97 97> 300 40<-96.7879 97>
LayerCount: 2
Fore
SplineSet
0 137 m 1
 484 137 l 1
 484 -137 l 1
 0 -137 l 1
 0 137 l 1
EndSplineSet
EndChar

StartChar: oslashacute
Encoding: 511 511 77
Width: 260
VWidth: 0
Flags: W
HStem: 260 20G<121.5 137>
VStem: 114 32<-279.991 279.994>
LayerCount: 2
Fore
SplineSet
129 280 m 0
 145 280 146 278 146 265 c 2
 146 -262 l 2
 146 -277 146 -280 131 -280 c 0
 114 -280 114 -278 114 -260 c 2
 114 265 l 2
 114 278 114 280 129 280 c 0
EndSplineSet
EndChar

StartChar: Oslashacute
Encoding: 510 510 78
Width: 260
VWidth: 0
Flags: HW
LayerCount: 2
Fore
SplineSet
327.283 198.697 m 0
 338.597 187.383 337.89 185.262 328.697 176.069 c 2
 171.333 18.7054 l 2
 156.314 3.68605 157.021 -2.97924 170.333 -16.2918 c 2
 329.404 -175.362 l 2
 338.597 -184.555 340.011 -185.969 329.404 -196.576 c 0
 318.09 -207.89 315.969 -207.183 306.776 -197.99 c 2
 149 -40.2139 l 2
 132.56 -23.7736 126.481 -26.1473 112 -40.6279 c 2
 -43.9482 -196.576 l 2
 -54.5547 -207.183 -56.6758 -209.304 -67.2832 -198.697 c 0
 -79.3037 -186.676 -77.8891 -185.262 -65.1611 -172.534 c 2
 90.3726 -17 l 2
 104.52 -2.85296 104.726 4.05974 88.3333 20.4528 c 2
 -65.8691 174.655 l 2
 -76.4756 185.262 -78.5967 187.383 -67.9902 197.99 c 0
 -55.9688 210.011 -54.5552 208.596 -41.8271 195.868 c 2
 111.333 42.7081 l 2
 128.021 26.0207 132.686 25.3137 148.039 40.6667 c 2
 306.069 198.697 l 2
 315.262 207.89 316.676 209.304 327.283 198.697 c 0
EndSplineSet
EndChar

StartChar: uni020B
Encoding: 523 523 79
Width: 274
Flags: HW
HStem: -137 40<83.1777 234> 97 40<40 190.002>
VStem: 0 40<-54.2732 97> 234 40<-96.7879 54.2725>
LayerCount: 2
Fore
SplineSet
274 -115 m 1
 396 -237 l 1
 374 -259 l 1
 252 -137 l 1
 0 -137 l 1
 0 115 l 1
 -122 237 l 1
 -100 259 l 1
 22 137 l 1
 274 137 l 1
 274 -115 l 1
234 -38 m 2
 234 81 l 2
 234 87 223 97 219 97 c 2
 92 97 l 2
 82 97 77 82 83 76 c 2
 212 -53 l 2
 219 -61 234 -47 234 -38 c 2
191 -76 m 2
 63 53 l 2
 57 58 40 53 40 46 c 2
 40 -75 l 2
 40 -84 52 -97 60 -97 c 2
 181 -97 l 2
 191 -97 197 -82 191 -76 c 2
EndSplineSet
EndChar

StartChar: uni020C
Encoding: 524 524 80
Width: 274
Flags: HW
HStem: -137 40<83.1777 234> 97 40<40 190.002>
VStem: 0 40<-54.2732 97> 234 40<-96.7879 54.2725>
LayerCount: 2
Fore
SplineSet
252 137 m 1
 374 259 l 1
 396 237 l 1
 274 115 l 1
 274 -137 l 1
 22 -137 l 1
 -100 -259 l 1
 -122 -237 l 1
 0 -115 l 1
 0 137 l 1
 252 137 l 1
EndSplineSet
EndChar

StartChar: uni020D
Encoding: 525 525 81
Width: 274
Flags: HW
HStem: -137 40<83.1777 234> 97 40<40 190.002>
VStem: 0 40<-54.2732 97> 234 40<-96.7879 54.2725>
LayerCount: 2
Fore
SplineSet
274 -115 m 1
 396 -237 l 1
 374 -259 l 1
 252 -137 l 1
 0 -137 l 1
 0 115 l 1
 -122 237 l 1
 -100 259 l 1
 22 137 l 1
 274 137 l 1
 274 -115 l 1
EndSplineSet
EndChar

StartChar: scommaaccent
Encoding: 537 537 82
Width: 304
VWidth: 0
Flags: W
VStem: 0 167<-75.6873 78.5903> 137 30<-295 -149.041 149.041 295> 264 40<-62.5029 61.7382>
LayerCount: 2
Fore
SplineSet
167 93 m 2x60
 167 -88 l 2
 167 -97 178 -109 189 -105 c 0
 232 -90 264 -49 264 0 c 0
 264 49 231 93 184 107 c 0
 178 109 167 99 167 93 c 2x60
167 -151 m 1
 167 -295 l 1
 137 -295 l 1
 137 -151 l 1x60
 58 -143 0 -75 0 0 c 0xa0
 0 81 63 144 137 151 c 1
 137 295 l 1
 167 295 l 1
 167 151 l 1
 246 143 304 75 304 0 c 0
 304 -81 241 -144 167 -151 c 1
EndSplineSet
EndChar

StartChar: uni0221
Encoding: 545 545 83
Width: 304
VWidth: 0
Flags: W
LayerCount: 2
Fore
SplineSet
228 55 m 2
 100 -73 l 2
 94 -79 93 -95 104 -100 c 0
 145 -120 196 -114 231 -79 c 0
 266 -44 273 10 250 53 c 0
 247 59 232 59 228 55 c 2
56 -117 m 1
 -86 -259 l 1
 -107 -238 l 1
 35 -96 l 1
 -15 -34 -8 54 45 107 c 0
 102 164 191 164 248 117 c 1
 390 259 l 1
 411 238 l 1
 269 96 l 1
 319 34 312 -54 259 -107 c 0
 202 -164 113 -164 56 -117 c 1
EndSplineSet
EndChar

StartChar: uni021B
Encoding: 539 539 84
Width: 304
VWidth: 0
Flags: W
VStem: 137 30<-295 -149.041 149.041 295>
LayerCount: 2
Fore
SplineSet
167 -151 m 1
 167 -295 l 1
 137 -295 l 1
 137 -151 l 1
 58 -143 0 -75 0 0 c 0
 0 81 63 144 137 151 c 1
 137 295 l 1
 167 295 l 1
 167 151 l 1
 246 143 304 75 304 0 c 0
 304 -81 241 -144 167 -151 c 1
EndSplineSet
EndChar

StartChar: uni0224
Encoding: 548 548 85
Width: 304
VWidth: 0
Flags: W
LayerCount: 2
Fore
SplineSet
97 76 m 2
 225 -52 l 2
 231 -58 247 -59 252 -48 c 0
 272 -7 266 44 231 79 c 0
 196 114 142 121 99 98 c 0
 93 95 93 80 97 76 c 2
269 -96 m 1
 411 -238 l 1
 390 -259 l 1
 248 -117 l 1
 186 -167 98 -160 45 -107 c 0
 -12 -50 -12 39 35 96 c 1
 -107 238 l 1
 -86 259 l 1
 56 117 l 1
 118 167 206 160 259 107 c 0
 316 50 316 -39 269 -96 c 1
52 49 m 0
 32 8 38 -44 73 -79 c 0
 106 -112 157 -121 199 -101 c 0
 207 -97 211 -80 204 -73 c 2
 76 54 l 2
 70 60 56 57 52 49 c 0
EndSplineSet
EndChar

StartChar: uni0225
Encoding: 549 549 86
Width: 304
VWidth: 0
Flags: W
LayerCount: 2
Fore
SplineSet
97 76 m 2
 225 -52 l 2
 231 -58 247 -59 252 -48 c 0
 272 -7 266 44 231 79 c 0
 196 114 142 121 99 98 c 0
 93 95 93 80 97 76 c 2
269 -96 m 1
 411 -238 l 1
 390 -259 l 1
 248 -117 l 1
 186 -167 98 -160 45 -107 c 0
 -12 -50 -12 39 35 96 c 1
 -107 238 l 1
 -86 259 l 1
 56 117 l 1
 118 167 206 160 259 107 c 0
 316 50 316 -39 269 -96 c 1
EndSplineSet
EndChar

StartChar: uni0226
Encoding: 550 550 87
Width: 304
VWidth: 0
Flags: W
LayerCount: 2
Fore
SplineSet
269 -96 m 1
 411 -238 l 1
 390 -259 l 1
 248 -117 l 1
 186 -167 98 -160 45 -107 c 0
 -12 -50 -12 39 35 96 c 1
 -107 238 l 1
 -86 259 l 1
 56 117 l 1
 118 167 206 160 259 107 c 0
 316 50 316 -39 269 -96 c 1
52 49 m 0
 32 8 38 -44 73 -79 c 0
 106 -112 157 -121 199 -101 c 0
 207 -97 211 -80 204 -73 c 2
 76 54 l 2
 70 60 56 57 52 49 c 0
EndSplineSet
EndChar

StartChar: uni0227
Encoding: 551 551 88
Width: 304
VWidth: 0
Flags: HW
LayerCount: 2
Fore
SplineSet
269 -96 m 1
 411 -238 l 1
 390 -259 l 1
 248 -117 l 1
 186 -167 98 -160 45 -107 c 0
 -12 -50 -12 39 35 96 c 1
 -107 238 l 1
 -86 259 l 1
 56 117 l 1
 118 167 206 160 259 107 c 0
 316 50 316 -39 269 -96 c 1
EndSplineSet
EndChar

StartChar: uni0228
Encoding: 552 552 89
Width: 304
VWidth: 0
Flags: W
HStem: -15 30<-143 2.86792 44.7347 136.919 167.497 257.857 301.132 447>
VStem: 137 30<-295 -149.132 -104.736 -15.3073 15.3086 106.354 149.132 295>
LayerCount: 2
Fore
SplineSet
167 -151 m 1
 167 -295 l 1
 137 -295 l 1
 137 -151 l 1
 63 -144 8 -84 1 -15 c 1
 -143 -15 l 1
 -143 15 l 1
 1 15 l 1
 8 89 68 144 137 151 c 1
 137 295 l 1
 167 295 l 1
 167 151 l 1
 241 144 296 84 303 15 c 1
 447 15 l 1
 447 -15 l 1
 303 -15 l 1
 296 -89 236 -144 167 -151 c 1
120 -15 m 2
 56 -15 l 2
 51 -15 42 -22 44 -29 c 0
 54 -64 79 -92 114 -105 c 0
 123 -108 137 -98 137 -88 c 2
 137 -31 l 2
 137 -21 125 -15 120 -15 c 2
244 -15 m 2
 184 -15 l 2
 174 -15 167 -24 167 -30 c 2
 167 -88 l 2
 167 -97 178 -109 189 -105 c 0
 222 -93 249 -66 259 -32 c 0
 262 -23 249 -15 244 -15 c 2
258 35 m 0
 247 69 219 97 184 107 c 0
 178 109 167 99 167 93 c 2
 167 33 l 2
 167 29 171 15 183 15 c 2
 243 15 l 2
 253 15 260 29 258 35 c 0
137 31 m 2
 137 92 l 2
 137 101 124 109 116 106 c 0
 83 94 56 68 45 33 c 0
 43 27 49 15 56 15 c 2
 119 15 l 2
 130 15 137 24 137 31 c 2
EndSplineSet
EndChar

StartChar: uni0229
Encoding: 553 553 90
Width: 304
VWidth: 0
Flags: HW
HStem: -15 30<-143 2.86792 44.7347 136.919 167.497 257.857 301.132 447>
VStem: 137 30<-295 -149.132 -104.736 -15.3073 15.3086 106.354 149.132 295>
LayerCount: 2
Fore
SplineSet
167 -151 m 1
 167 -295 l 1
 137 -295 l 1
 137 -151 l 1
 63 -144 8 -84 1 -15 c 1
 -143 -15 l 1
 -143 15 l 1
 1 15 l 1
 8 89 68 144 137 151 c 1
 137 295 l 1
 167 295 l 1
 167 151 l 1
 241 144 296 84 303 15 c 1
 447 15 l 1
 447 -15 l 1
 303 -15 l 1
 296 -89 236 -144 167 -151 c 1
120 -15 m 2
 56 -15 l 2
 51 -15 42 -22 44 -29 c 0
 54 -64 79 -92 114 -105 c 0
 123 -108 137 -98 137 -88 c 2
 137 -31 l 2
 137 -21 125 -15 120 -15 c 2
258 35 m 0
 247 69 219 97 184 107 c 0
 178 109 167 99 167 93 c 2
 167 33 l 2
 167 29 171 15 183 15 c 2
 243 15 l 2
 253 15 260 29 258 35 c 0
EndSplineSet
EndChar

StartChar: uni022A
Encoding: 554 554 91
Width: 304
VWidth: 0
Flags: HW
HStem: -15 30<-143 2.86792 44.7347 136.919 167.497 257.857 301.132 447>
VStem: 137 30<-295 -149.132 -104.736 -15.3073 15.3086 106.354 149.132 295>
LayerCount: 2
Fore
SplineSet
167 -151 m 1
 167 -295 l 1
 137 -295 l 1
 137 -151 l 1
 63 -144 8 -84 1 -15 c 1
 -143 -15 l 1
 -143 15 l 1
 1 15 l 1
 8 89 68 144 137 151 c 1
 137 295 l 1
 167 295 l 1
 167 151 l 1
 241 144 296 84 303 15 c 1
 447 15 l 1
 447 -15 l 1
 303 -15 l 1
 296 -89 236 -144 167 -151 c 1
244 -15 m 2
 184 -15 l 2
 174 -15 167 -24 167 -30 c 2
 167 -88 l 2
 167 -97 178 -109 189 -105 c 0
 222 -93 249 -66 259 -32 c 0
 262 -23 249 -15 244 -15 c 2
137 31 m 2
 137 92 l 2
 137 101 124 109 116 106 c 0
 83 94 56 68 45 33 c 0
 43 27 49 15 56 15 c 2
 119 15 l 2
 130 15 137 24 137 31 c 2
EndSplineSet
EndChar

StartChar: uni022B
Encoding: 555 555 92
Width: 304
VWidth: 0
Flags: HW
HStem: -15 30<-143 2.86792 44.7347 136.919 167.497 257.857 301.132 447>
VStem: 137 30<-295 -149.132 -104.736 -15.3073 15.3086 106.354 149.132 295>
LayerCount: 2
Fore
SplineSet
167 -151 m 1
 167 -295 l 1
 137 -295 l 1
 137 -151 l 1
 63 -144 8 -84 1 -15 c 1
 -143 -15 l 1
 -143 15 l 1
 1 15 l 1
 8 89 68 144 137 151 c 1
 137 295 l 1
 167 295 l 1
 167 151 l 1
 241 144 296 84 303 15 c 1
 447 15 l 1
 447 -15 l 1
 303 -15 l 1
 296 -89 236 -144 167 -151 c 1
244 -15 m 2
 184 -15 l 2
 174 -15 167 -24 167 -30 c 2
 167 -88 l 2
 167 -97 178 -109 189 -105 c 0
 222 -93 249 -66 259 -32 c 0
 262 -23 249 -15 244 -15 c 2
258 35 m 0
 247 69 219 97 184 107 c 0
 178 109 167 99 167 93 c 2
 167 33 l 2
 167 29 171 15 183 15 c 2
 243 15 l 2
 253 15 260 29 258 35 c 0
EndSplineSet
EndChar

StartChar: uni022C
Encoding: 556 556 93
Width: 304
VWidth: 0
Flags: HW
HStem: -15 30<-143 2.86792 44.7347 136.919 167.497 257.857 301.132 447>
VStem: 137 30<-295 -149.132 -104.736 -15.3073 15.3086 106.354 149.132 295>
LayerCount: 2
Fore
SplineSet
167 -151 m 1
 167 -295 l 1
 137 -295 l 1
 137 -151 l 1
 63 -144 8 -84 1 -15 c 1
 -143 -15 l 1
 -143 15 l 1
 1 15 l 1
 8 89 68 144 137 151 c 1
 137 295 l 1
 167 295 l 1
 167 151 l 1
 241 144 296 84 303 15 c 1
 447 15 l 1
 447 -15 l 1
 303 -15 l 1
 296 -89 236 -144 167 -151 c 1
120 -15 m 2
 56 -15 l 2
 51 -15 42 -22 44 -29 c 0
 54 -64 79 -92 114 -105 c 0
 123 -108 137 -98 137 -88 c 2
 137 -31 l 2
 137 -21 125 -15 120 -15 c 2
137 31 m 2
 137 92 l 2
 137 101 124 109 116 106 c 0
 83 94 56 68 45 33 c 0
 43 27 49 15 56 15 c 2
 119 15 l 2
 130 15 137 24 137 31 c 2
EndSplineSet
EndChar

StartChar: uni022D
Encoding: 557 557 94
Width: 304
VWidth: 0
Flags: W
HStem: -15 30<-143 2.86792 301.132 447>
VStem: 137 30<-295 -149.132 149.132 295>
LayerCount: 2
Fore
SplineSet
167 -151 m 1
 167 -295 l 1
 137 -295 l 1
 137 -151 l 1
 63 -144 8 -84 1 -15 c 1
 -143 -15 l 1
 -143 15 l 1
 1 15 l 1
 8 89 68 144 137 151 c 1
 137 295 l 1
 167 295 l 1
 167 151 l 1
 241 144 296 84 303 15 c 1
 447 15 l 1
 447 -15 l 1
 303 -15 l 1
 296 -89 236 -144 167 -151 c 1
EndSplineSet
EndChar

StartChar: uni0230
Encoding: 560 560 95
Width: 304
VWidth: 0
Flags: W
LayerCount: 2
Fore
SplineSet
56 -117 m 1
 -86 -259 l 1
 -107 -238 l 1
 35 -96 l 1
 -12 -39 -9 42 35 96 c 1
 -107 238 l 1
 -86 259 l 1
 56 117 l 1
 113 164 194 161 248 117 c 1
 390 259 l 1
 411 238 l 1
 269 96 l 1
 316 39 313 -42 269 -96 c 1
 411 -238 l 1
 390 -259 l 1
 248 -117 l 1
 191 -164 110 -161 56 -117 c 1
119 12 m 2
 74 57 l 2
 70 61 59 62 55 56 c 0
 37 24 35 -13 51 -47 c 0
 55 -55 72 -59 79 -52 c 2
 119 -11 l 2
 126 -4 123 8 119 12 c 2
206 -76 m 2
 164 -33 l 2
 157 -26 145 -28 141 -32 c 2
 100 -73 l 2
 94 -79 93 -95 104 -100 c 0
 136 -115 174 -115 205 -98 c 0
 213 -94 210 -80 206 -76 c 2
252 -50 m 0
 268 -18 268 21 250 53 c 0
 247 59 232 59 228 55 c 2
 186 13 l 2
 183 10 177 -3 185 -11 c 2
 227 -54 l 2
 234 -61 249 -56 252 -50 c 0
163 33 m 2
 206 76 l 2
 212 82 209 96 201 100 c 0
 169 115 133 116 100 99 c 0
 94 96 90 83 95 78 c 2
 139 34 l 2
 147 26 158 28 163 33 c 2
EndSplineSet
EndChar

StartChar: uni0231
Encoding: 561 561 96
Width: 304
VWidth: 0
Flags: HW
LayerCount: 2
Fore
SplineSet
56 -117 m 1
 -86 -259 l 1
 -107 -238 l 1
 35 -96 l 1
 -12 -39 -9 42 35 96 c 1
 -107 238 l 1
 -86 259 l 1
 56 117 l 1
 113 164 194 161 248 117 c 1
 390 259 l 1
 411 238 l 1
 269 96 l 1
 316 39 313 -42 269 -96 c 1
 411 -238 l 1
 390 -259 l 1
 248 -117 l 1
 191 -164 110 -161 56 -117 c 1
119 12 m 2
 74 57 l 2
 70 61 59 62 55 56 c 0
 37 24 35 -13 51 -47 c 0
 55 -55 72 -59 79 -52 c 2
 119 -11 l 2
 126 -4 123 8 119 12 c 2
252 -50 m 0
 268 -18 268 21 250 53 c 0
 247 59 232 59 228 55 c 2
 186 13 l 2
 183 10 177 -3 185 -11 c 2
 227 -54 l 2
 234 -61 249 -56 252 -50 c 0
EndSplineSet
EndChar

StartChar: uni0232
Encoding: 562 562 97
Width: 304
VWidth: 0
Flags: HW
LayerCount: 2
Fore
SplineSet
56 -117 m 1
 -86 -259 l 1
 -107 -238 l 1
 35 -96 l 1
 -12 -39 -9 42 35 96 c 1
 -107 238 l 1
 -86 259 l 1
 56 117 l 1
 113 164 194 161 248 117 c 1
 390 259 l 1
 411 238 l 1
 269 96 l 1
 316 39 313 -42 269 -96 c 1
 411 -238 l 1
 390 -259 l 1
 248 -117 l 1
 191 -164 110 -161 56 -117 c 1
206 -76 m 2
 164 -33 l 2
 157 -26 145 -28 141 -32 c 2
 100 -73 l 2
 94 -79 93 -95 104 -100 c 0
 136 -115 174 -115 205 -98 c 0
 213 -94 210 -80 206 -76 c 2
163 33 m 2
 206 76 l 2
 212 82 209 96 201 100 c 0
 169 115 133 116 100 99 c 0
 94 96 90 83 95 78 c 2
 139 34 l 2
 147 26 158 28 163 33 c 2
EndSplineSet
EndChar

StartChar: uni0234
Encoding: 564 564 98
Width: 304
VWidth: 0
Flags: HW
LayerCount: 2
Fore
SplineSet
56 -117 m 1
 -86 -259 l 1
 -107 -238 l 1
 35 -96 l 1
 -12 -39 -9 42 35 96 c 1
 -107 238 l 1
 -86 259 l 1
 56 117 l 1
 113 164 194 161 248 117 c 1
 390 259 l 1
 411 238 l 1
 269 96 l 1
 316 39 313 -42 269 -96 c 1
 411 -238 l 1
 390 -259 l 1
 248 -117 l 1
 191 -164 110 -161 56 -117 c 1
119 12 m 2
 74 57 l 2
 70 61 59 62 55 56 c 0
 37 24 35 -13 51 -47 c 0
 55 -55 72 -59 79 -52 c 2
 119 -11 l 2
 126 -4 123 8 119 12 c 2
163 33 m 2
 206 76 l 2
 212 82 209 96 201 100 c 0
 169 115 133 116 100 99 c 0
 94 96 90 83 95 78 c 2
 139 34 l 2
 147 26 158 28 163 33 c 2
EndSplineSet
EndChar

StartChar: uni0233
Encoding: 563 563 99
Width: 304
VWidth: 0
Flags: HW
LayerCount: 2
Fore
SplineSet
56 -117 m 1
 -86 -259 l 1
 -107 -238 l 1
 35 -96 l 1
 -12 -39 -9 42 35 96 c 1
 -107 238 l 1
 -86 259 l 1
 56 117 l 1
 113 164 194 161 248 117 c 1
 390 259 l 1
 411 238 l 1
 269 96 l 1
 316 39 313 -42 269 -96 c 1
 411 -238 l 1
 390 -259 l 1
 248 -117 l 1
 191 -164 110 -161 56 -117 c 1
206 -76 m 2
 164 -33 l 2
 157 -26 145 -28 141 -32 c 2
 100 -73 l 2
 94 -79 93 -95 104 -100 c 0
 136 -115 174 -115 205 -98 c 0
 213 -94 210 -80 206 -76 c 2
252 -50 m 0
 268 -18 268 21 250 53 c 0
 247 59 232 59 228 55 c 2
 186 13 l 2
 183 10 177 -3 185 -11 c 2
 227 -54 l 2
 234 -61 249 -56 252 -50 c 0
EndSplineSet
EndChar

StartChar: uni0235
Encoding: 565 565 100
Width: 304
VWidth: 0
Flags: HW
LayerCount: 2
Fore
SplineSet
56 -117 m 1
 -86 -259 l 1
 -107 -238 l 1
 35 -96 l 1
 -12 -39 -9 42 35 96 c 1
 -107 238 l 1
 -86 259 l 1
 56 117 l 1
 113 164 194 161 248 117 c 1
 390 259 l 1
 411 238 l 1
 269 96 l 1
 316 39 313 -42 269 -96 c 1
 411 -238 l 1
 390 -259 l 1
 248 -117 l 1
 191 -164 110 -161 56 -117 c 1
EndSplineSet
EndChar

StartChar: uni0238
Encoding: 568 568 101
Width: 441
VWidth: 0
Flags: W
HStem: 112 40<128.367 314.049>
LayerCount: 2
Back
SplineSet
55 43 m 1
 220 -122 l 1
 386 44 l 1
 345 84 287 112 221 112 c 0
 158 112 99 87 55 43 c 1
12 56 m 2
 64 116 139 152 221 152 c 0
 306 152 380 114 429 57 c 0
 441 43 l 1
 220 -178 l 1
 -0 42 l 1
 12 56 l 2
27 43 m 1
 74 98 143 132 221 132 c 0
 298 132 367 98 414 44 c 1
 220 -150 l 1
 27 43 l 1
603 233 m 5
 220 -150 l 5
 -163 233 l 5
 603 233 l 5
-34 -123 m 4
 -34 18 80 132 221 132 c 4
 362 132 476 18 476 -123 c 4
 476 -264 362 -378 221 -378 c 4
 80 -378 -34 -264 -34 -123 c 4
EndSplineSet
Fore
SplineSet
70 28 m 2
 202 -104 l 2
 209 -111 230 -112 237 -105 c 2
 369 27 l 2
 375 33 373 56 366 62 c 0
 327 92 277 112 221 112 c 0
 166 112 114 93 72 59 c 0
 63 51 65 33 70 28 c 2
12 56 m 2
 64 116 139 152 221 152 c 0
 306 152 380 114 429 57 c 0
 441 43 l 1
 220 -178 l 1
 0 42 l 1
 12 56 l 2
EndSplineSet
EndChar

StartChar: uni0239
Encoding: 569 569 102
Width: 441
VWidth: 0
Flags: HW
HStem: 112 40<128.367 314.049>
LayerCount: 2
Fore
SplineSet
12 56 m 2
 64 116 139 152 221 152 c 0
 306 152 380 114 429 57 c 0
 441 43 l 1
 220 -178 l 1
 0 42 l 1
 12 56 l 2
EndSplineSet
EndChar

StartChar: uni023A
Encoding: 570 570 103
Width: 302
VWidth: 0
Flags: HW
VStem: 261.979 40<-95.3565 93.6117>
LayerCount: 2
Back
SplineSet
563 263 m 5
 220 -120 l 5
 -123 263 l 5
 563 263 l 5
-34 -123 m 4
 -34 18 80 132 221 132 c 4
 362 132 476 18 476 -123 c 4
 476 -264 362 -378 221 -378 c 4
 80 -378 -34 -264 -34 -123 c 4
EndSplineSet
Fore
SplineSet
199 125 m 2
 81 19 l 2
 75 13 73 -12 80 -18 c 2
 198 -124 l 2
 204 -129 226 -126 230 -119 c 0
 250 -85 262 -45 262 -1 c 0
 262 43 250 84 228 122 c 0
 223 129 203 128 199 125 c 2
233 182 m 2
 277 132 302 67 302 -1 c 0
 302 -72 275 -135 234 -182 c 0
 221 -198 l 1
 0 0 l 1
 219 197 l 1
 233 182 l 2
EndSplineSet
EndChar

StartChar: uni023B
Encoding: 571 571 104
Width: 302
VWidth: 0
Flags: HW
VStem: 261.979 40<-95.3565 93.6117>
LayerCount: 2
Fore
SplineSet
233 182 m 2
 277 132 302 67 302 -1 c 0
 302 -72 275 -135 234 -182 c 0
 221 -198 l 1
 0 0 l 1
 219 197 l 1
 233 182 l 2
EndSplineSet
EndChar

StartChar: uni023C
Encoding: 572 572 105
Width: 441
VWidth: 0
Flags: HW
HStem: -152 40<128.367 314.049>
LayerCount: 2
Fore
SplineSet
70 -28 m 2
 65 -33 63 -51 72 -59 c 0
 114 -93 166 -112 221 -112 c 0
 277 -112 327 -92 366 -62 c 0
 373 -56 375 -33 369 -27 c 2
 237 105 l 2
 230 112 209 111 202 104 c 2
 70 -28 l 2
12 -56 m 2
 0 -42 l 1
 220 178 l 1
 441 -43 l 1
 429 -57 l 0
 380 -114 306 -152 221 -152 c 0
 139 -152 64 -116 12 -56 c 2
EndSplineSet
EndChar

StartChar: uni023E
Encoding: 574 574 106
Width: 302
VWidth: 0
Flags: HW
VStem: 0.0214844 40<-93.6117 95.3565>
LayerCount: 2
Fore
SplineSet
103 -125 m 2
 221 -19 l 2
 227 -13 229 12 222 18 c 2
 104 124 l 2
 98 129 76 126 72 119 c 0
 52 85 40 45 40 1 c 0
 40 -43 52 -84 74 -122 c 0
 79 -129 99 -128 103 -125 c 2
69 -182 m 2
 25 -132 0 -67 0 1 c 0
 0 72 27 135 68 182 c 0
 81 198 l 1
 302 0 l 1
 83 -197 l 1
 69 -182 l 2
EndSplineSet
EndChar

StartChar: uni023D
Encoding: 573 573 107
Width: 441
VWidth: 0
Flags: HW
HStem: -152 40<128.367 314.049>
LayerCount: 2
Fore
SplineSet
12 -56 m 2
 0 -42 l 1
 220 178 l 1
 441 -43 l 1
 429 -57 l 0
 380 -114 306 -152 221 -152 c 0
 139 -152 64 -116 12 -56 c 2
EndSplineSet
EndChar

StartChar: uni023F
Encoding: 575 575 108
Width: 302
VWidth: 0
Flags: HW
VStem: 0.0214844 40<-93.6117 95.3565>
LayerCount: 2
Fore
SplineSet
69 -182 m 2
 25 -132 0 -67 0 1 c 0
 0 72 27 135 68 182 c 0
 81 198 l 1
 302 0 l 1
 83 -197 l 1
 69 -182 l 2
EndSplineSet
EndChar

StartChar: uni0240
Encoding: 576 576 109
Width: 304
Flags: W
LayerCount: 2
Back
SplineSet
118 75 m 2
 60 18 l 2
 53 11 49 5 49 0 c 0
 49 -6 53 -11 60 -18 c 2
 118 -76 l 2
 126 -84 131 -88 136 -88 c 0
 141 -88 146 -84 154 -76 c 2
 211 -19 l 2
 218 -11 223 -6 223 0 c 0
 223 5 219 11 211 19 c 2
 155 75 l 2
 147 83 141 87 136 87 c 0
 130 87 125 83 118 75 c 2
155 123 m 2
 261 17 l 2
 269 9 273 4 273 0 c 0
 273 -4 270 -9 262 -16 c 2
 156 -122 l 2
 147 -131 142 -136 136 -136 c 0
 131 -136 126 -132 116 -122 c 2
 16 -22 l 2
 5 -11 0 -5 0 0 c 0
 0 5 4 11 13 20 c 2
 116 122 l 2
 126 132 131 136 136 136 c 4
 142 136 146 132 155 123 c 2
EndSplineSet
Fore
SplineSet
67 -11 m 2
 139 -82 l 2
 145 -88 160 -87 164 -83 c 2
 232 -16 l 2
 238 -10 239 8 233 14 c 2
 166 81 l 2
 160 87 145 88 139 82 c 2
 68 11 l 2
 64 7 64 -8 67 -11 c 2
0 0 m 1
 152 152 l 1
 304 0 l 1
 152 -152 l 1
 0 0 l 1
EndSplineSet
EndChar

StartChar: uni0242
Encoding: 578 578 110
Width: 354
Flags: HW
LayerCount: 2
Fore
SplineSet
80.5186 -14 m 2
 170.519 -83 l 2
 172.519 -84 180.519 -84 182.519 -83 c 2
 275.519 -11 l 2
 279.519 -8 279.519 8 274.519 12 c 2
 183.519 82 l 2
 180.519 84 172.519 84 169.519 82 c 2
 81.5186 14 l 2
 73.5186 8 74.5186 -9 80.5186 -14 c 2
8.51855 9 m 2
 176.519 137 l 1
 350.519 5 l 2
 356.519 0 355.866 -0.943085 350.519 -5 c 2
 176.519 -137 l 1
 6.51855 -8 l 2
 -2.48145 -1 -2.48145 1 8.51855 9 c 2
EndSplineSet
EndChar

StartChar: uni0243
Encoding: 579 579 111
Width: 354
Flags: HW
LayerCount: 2
Fore
SplineSet
8.51855 9 m 2
 176.519 137 l 1
 350.519 5 l 2
 356.519 0 355.866 -0.943085 350.519 -5 c 2
 176.519 -137 l 1
 6.51855 -8 l 2
 -2.48145 -1 -2.48145 1 8.51855 9 c 2
EndSplineSet
EndChar

StartChar: uni0249
Encoding: 585 585 112
Width: 343
VWidth: 0
Flags: HW
HStem: -137 40<60.9491 295.84>
VStem: 20 40<-96.6449 107.787>
LayerCount: 2
Fore
SplineSet
333 -137 m 2
 0 -137 l 1
 0 202 l 2
 0 209 2 210 7 205 c 2
 337 -125 l 2
 347 -136 345 -137 333 -137 c 2
EndSplineSet
EndChar

StartChar: uni024A
Encoding: 586 586 113
Width: 343
VWidth: 0
Flags: HW
HStem: 97 40<61 296>
VStem: 20 40<-108 97>
LayerCount: 2
Fore
SplineSet
228 73 m 2
 234 79 230 97 220 97 c 2
 57 97 l 2
 49 97 40 86 40 78 c 2
 40 -83 l 2
 40 -92 54 -101 61 -94 c 2
 228 73 l 2
333 137 m 2
 345 137 347 136 337 125 c 2
 7 -205 l 2
 2 -210 0 -209 0 -202 c 2
 0 137 l 5
 333 137 l 2
EndSplineSet
EndChar

StartChar: uni024B
Encoding: 587 587 114
Width: 343
VWidth: 0
Flags: HW
HStem: 97 40<61 296>
VStem: 20 40<-108 97>
LayerCount: 2
Fore
SplineSet
333 137 m 2
 345 137 347 136 337 125 c 2
 7 -205 l 2
 2 -210 0 -209 0 -202 c 2
 0 137 l 1
 333 137 l 2
EndSplineSet
EndChar

StartChar: uni0244
Encoding: 580 580 115
Width: 304
Flags: W
LayerCount: 2
Fore
SplineSet
54 -9 m 2
 136 -134 l 2
 141 -140 160 -142 167 -132 c 2
 248 -9 l 2
 251 -4 250 6 247 10 c 2
 163 138 l 2
 158 145 144 146 139 137 c 2
 54 9 l 2
 50 3 52 -5 54 -9 c 2
0 0 m 1
 147 222 l 2
 151 228 151 228 156 221 c 2
 302 0 l 1
 158 -217 l 2
 151 -228 151 -228 144 -218 c 2
 0 0 l 1
EndSplineSet
EndChar

StartChar: uni0245
Encoding: 581 581 116
Width: 302
Flags: HW
LayerCount: 2
Fore
SplineSet
0 0 m 1
 147 222 l 2
 151 228 151 228 156 221 c 2
 302 0 l 1
 158 -217 l 2
 151 -228 151 -228 144 -218 c 2
 0 0 l 1
EndSplineSet
EndChar

StartChar: uni0246
Encoding: 582 582 117
Width: 320
Flags: HW
LayerCount: 2
Fore
SplineSet
52 -11 m 2
 146 -180 l 2
 151 -189 169 -190 174 -181 c 2
 268 -11 l 2
 271 -6 271 6 268 11 c 2
 169 189 l 2
 166 195 154 195 150 188 c 2
 53 13 l 2
 48 3 48 -4 52 -11 c 2
0 0 m 1
 155 279 l 2
 160 288 161 286 165 279 c 2
 320 0 l 1
 166 -278 l 2
 160 -288 159 -287 154 -278 c 2
 0 0 l 1
EndSplineSet
EndChar

StartChar: uni0247
Encoding: 583 583 118
Width: 320
Flags: HW
LayerCount: 2
Fore
SplineSet
0 0 m 1
 155 279 l 2
 160 288 161 286 165 279 c 2
 320 0 l 1
 166 -278 l 2
 160 -288 159 -287 154 -278 c 2
 0 0 l 1
EndSplineSet
EndChar

StartChar: uni0258
Encoding: 600 600 119
Width: 564
VWidth: 0
Flags: HW
HStem: -137 40<112.288 456.274>
LayerCount: 2
Back
SplineSet
500 -117 m 29
 20 -117 l 29
 260 143 l 29
 500 -117 l 29
EndSplineSet
Fore
SplineSet
454.681 -73 m 2
 292.681 102 l 2
 287.681 108 275.681 106 271.681 102 c 2
 115.681 -68 l 2
 108.681 -75 113.681 -97 124.681 -97 c 2
 443.681 -97 l 2
 451.681 -97 461.681 -80 454.681 -73 c 2
556.682 -137 m 2
 6.68066 -137 l 2
 -1.31934 -137 -2.31934 -136 4.68066 -129 c 2
 282.681 172 l 1
 559.682 -128 l 2
 567.682 -136 565.682 -137 556.682 -137 c 2
EndSplineSet
EndChar

StartChar: uni0259
Encoding: 601 601 120
Width: 564
VWidth: 0
Flags: HW
HStem: -137 40<112.288 456.274>
LayerCount: 2
Fore
SplineSet
556.682 -137 m 2
 6.68066 -137 l 2
 -1.31934 -137 -2.31934 -136 4.68066 -129 c 2
 282.681 172 l 1
 559.682 -128 l 2
 567.682 -136 565.682 -137 556.682 -137 c 2
EndSplineSet
EndChar

StartChar: uni025A
Encoding: 602 602 121
Width: 564
VWidth: 0
Flags: HW
HStem: 97 40<112 456>
LayerCount: 2
Fore
SplineSet
455 73 m 2
 462 80 452 97 444 97 c 2
 125 97 l 2
 114 97 109 75 116 68 c 2
 272 -102 l 2
 276 -106 288 -108 293 -102 c 2
 455 73 l 2
557 137 m 2
 566 137 568 136 560 128 c 2
 283 -172 l 1
 5 129 l 2
 -2 136 -1 137 7 137 c 2
 557 137 l 2
EndSplineSet
EndChar

StartChar: uni025B
Encoding: 603 603 122
Width: 564
VWidth: 0
Flags: HW
HStem: 97 40<112 456>
LayerCount: 2
Fore
SplineSet
557 137 m 2
 566 137 568 136 560 128 c 2
 283 -172 l 1
 5 129 l 2
 -2 136 -1 137 7 137 c 2
 557 137 l 2
EndSplineSet
EndChar

StartChar: uni0260
Encoding: 608 608 123
Width: 382
VWidth: 0
Flags: HW
HStem: -137 40<80.5715 302.002>
LayerCount: 2
Fore
SplineSet
371.236 -137 m 2
 8.23633 -137 l 2
 -0.763672 -137 -1.76367 -136 2.23633 -128 c 2
 187.236 193 l 2
 190.236 199 191.236 198 194.236 193 c 2
 379.236 -127 l 2
 384.236 -136 383.236 -137 371.236 -137 c 2
99.2363 -97 m 2
 279.236 -97 l 2
 293.236 -97 307.236 -83 300.236 -70 c 2
 209.236 89 l 2
 202.236 100 179.236 96 173.236 87 c 2
 82.2363 -70 l 2
 76.2363 -80 87.2363 -97 99.2363 -97 c 2
EndSplineSet
EndChar

StartChar: uni0261
Encoding: 609 609 124
Width: 382
VWidth: 0
Flags: HW
HStem: -137 40<80.5715 302.002>
LayerCount: 2
Fore
SplineSet
371.236 -137 m 2
 8.23633 -137 l 2
 -0.763672 -137 -1.76367 -136 2.23633 -128 c 2
 187.236 193 l 2
 190.236 199 191.236 198 194.236 193 c 2
 379.236 -127 l 2
 384.236 -136 383.236 -137 371.236 -137 c 2
EndSplineSet
EndChar

StartChar: uni0263
Encoding: 611 611 125
Width: 334
VWidth: 0
Flags: HW
VStem: 0 40<-110.766 110.665>
LayerCount: 2
Fore
SplineSet
0 -180 m 2
 0 183 l 2
 0 192 1 193 9 189 c 2
 330 4 l 2
 336 1 335 0 330 -3 c 2
 10 -188 l 2
 1 -193 0 -192 0 -180 c 2
EndSplineSet
EndChar

StartChar: uni0262
Encoding: 610 610 126
Width: 334
VWidth: 0
Flags: HW
VStem: 0 40<-110.766 110.665>
LayerCount: 2
Back
SplineSet
0 159 m 29
 0 -159 l 29
 276 0 l 29
 0 159 l 29
EndSplineSet
Fore
SplineSet
0 -180 m 2
 0 183 l 2
 0 192 1 193 9 189 c 2
 330 4 l 2
 336 1 335 0 330 -3 c 2
 10 -188 l 2
 1 -193 0 -192 0 -180 c 2
40 92 m 2
 40 -88 l 2
 40 -102 54 -116 67 -109 c 2
 226 -18 l 2
 237 -11 233 12 224 18 c 2
 67 109 l 2
 57 115 40 104 40 92 c 2
EndSplineSet
EndChar

StartChar: uni0264
Encoding: 612 612 127
Width: 382
VWidth: 0
Flags: HW
HStem: 97 40<81 302>
LayerCount: 2
Fore
SplineSet
371 137 m 2
 383 137 384 136 379 127 c 2
 194 -193 l 2
 191 -198 190 -199 187 -193 c 2
 2 128 l 2
 -2 136 -1 137 8 137 c 2
 371 137 l 2
99 97 m 2
 87 97 76 80 82 70 c 2
 173 -87 l 2
 179 -96 202 -100 209 -89 c 2
 300 70 l 2
 307 83 293 97 279 97 c 2
 99 97 l 2
EndSplineSet
EndChar

StartChar: uni0265
Encoding: 613 613 128
Width: 382
VWidth: 0
Flags: HW
HStem: 97 40<81 302>
LayerCount: 2
Fore
SplineSet
371 137 m 2
 383 137 384 136 379 127 c 2
 194 -193 l 2
 191 -198 190 -199 187 -193 c 2
 2 128 l 2
 -2 136 -1 137 8 137 c 2
 371 137 l 2
EndSplineSet
EndChar

StartChar: uni0268
Encoding: 616 616 129
Width: 401
VWidth: 0
Flags: W
VStem: 0 40<-105.14 106.465>
LayerCount: 2
Back
SplineSet
0 147 m 29
 0 -147 l 29
 336 0 l 29
 0 147 l 29
EndSplineSet
Fore
SplineSet
0 -178 m 1
 0 178 l 1
 394 5 l 2
 404 1 404 -1 394 -5 c 2
 0 -178 l 1
40 89 m 2
 40 -87 l 2
 40 -95 53 -111 71 -103 c 2
 273 -15 l 2
 281 -11 283 10 271 16 c 2
 63 106 l 2
 54 110 40 99 40 89 c 2
EndSplineSet
EndChar

StartChar: uni0269
Encoding: 617 617 130
Width: 401
VWidth: 0
Flags: HW
VStem: 0 40<-105.14 106.465>
LayerCount: 2
Fore
SplineSet
0 -178 m 1
 0 178 l 1
 394 5 l 2
 404 1 404 -1 394 -5 c 2
 0 -178 l 1
EndSplineSet
EndChar

StartChar: uni0270
Encoding: 624 624 131
Width: 382
VWidth: 0
Flags: W
HStem: -262 40<80.3354 301.766> -10 30<159.336 222.328> 222 40<80.3354 301.766>
LayerCount: 2
Back
SplineSet
79 -219 m 6
 221 -219 l 6
 241 -219 249 -213 249 -203 c 4
 249 -197 246 -190 241 -181 c 6
 174 -65 l 6
 168 -55 162 -50 156 -50 c 4
 150 -50 144 -54 139 -64 c 6
 67 -189 l 6
 62 -198 59 -204 59 -209 c 4
 59 -218 68 -219 79 -219 c 6
7 224 m 6
 3 231 0 238 0 243 c 4
 0 249 5 253 16 253 c 6
 291 253 l 6
 305 253 312 249 312 242 c 4
 312 238 310 232 306 226 c 6
 190 25 l 6
 184 13 180 6 180 -0 c 4
 180 -8 185 -15 192 -28 c 6
 306 -226 l 6
 310 -232 312 -238 312 -242 c 4
 312 -249 305 -253 291 -253 c 6
 16 -253 l 6
 5 -253 0 -249 0 -243 c 4
 0 -238 3 -231 7 -224 c 6
 124 -21 l 6
 129 -12 132 -6 132 0 c 4
 132 6 129 12 123 22 c 6
 7 224 l 6
79 219 m 6
 68 219 59 218 59 209 c 4
 59 204 62 198 67 189 c 6
 139 64 l 6
 144 54 150 50 156 50 c 4
 162 50 168 55 174 65 c 6
 241 181 l 6
 246 190 249 197 249 203 c 4
 249 213 241 219 221 219 c 6
 79 219 l 6
EndSplineSet
Fore
SplineSet
371 262 m 2
 383 262 384 261 379 252 c 2
 226.375 -12 l 1
 153.573 -10 l 1
 2 253 l 2
 -2 261 -1 262 8 262 c 2
 371 262 l 2
99 222 m 2
 87 222 76 205 82 195 c 2
 173 38 l 2
 179 29 202 25 209 36 c 2
 300 195 l 2
 307 208 293 222 279 222 c 2
 99 222 l 2
371 -262 m 2
 8 -262 l 2
 -1 -262 -2 -261 2 -253 c 2
 159.336 20 l 1
 222.328 19 l 1
 379 -252 l 2
 384 -261 383 -262 371 -262 c 2
99 -222 m 2
 279 -222 l 2
 293 -222 307 -208 300 -195 c 2
 209 -36 l 2
 202 -25 179 -29 173 -38 c 2
 82 -195 l 2
 76 -205 87 -222 99 -222 c 2
EndSplineSet
EndChar

StartChar: uni0271
Encoding: 625 625 132
Width: 312
VWidth: 0
Flags: W
HStem: -253 34<59.0066 248.994> -50 100<134.5 177.141> 219 34<59.0066 248.994>
VStem: 0 59<-246 -203.646 203.482 246> 132 48<-43.2031 43.8438> 249 63<-245.5 -200.648 200.648 245.5>
LayerCount: 2
Fore
SplineSet
7 224 m 2
 3 231 0 238 0 243 c 0
 0 249 5 253 16 253 c 2
 291 253 l 2
 305 253 312 249 312 242 c 0
 312 238 310 232 306 226 c 2
 190 25 l 2
 184 13 180 6 180 -0 c 0
 180 -8 185 -15 192 -28 c 2
 306 -226 l 2
 310 -232 312 -238 312 -242 c 0
 312 -249 305 -253 291 -253 c 2
 16 -253 l 2
 5 -253 0 -249 0 -243 c 0
 0 -238 3 -231 7 -224 c 2
 124 -21 l 2
 129 -12 132 -6 132 0 c 0
 132 6 129 12 123 22 c 2
 7 224 l 2
EndSplineSet
EndChar

StartChar: uni0272
Encoding: 626 626 133
Width: 312
VWidth: 0
Flags: W
HStem: -250 34<59.0066 248.994> -47 81<134.5 177.141> 0 34<59.0066 123.996 187.004 248.994> 203 72<137.336 175.062>
VStem: 0 59<-243 -200.646 7 49.5176> 124 63<-45.7656 -1.49997e-007> 249 63<-242.5 -197.802 7.5 52.3516>
LayerCount: 2
Fore
SplineSet
79 -226 m 6xde
 221 -226 l 6
 241 -226 249 -220 249 -210 c 4
 249 -204 246 -197 241 -188 c 6
 174 -72 l 6
 168 -62 162 -57 156 -57 c 4
 150 -57 144 -61 139 -71 c 6
 67 -196 l 6
 62 -205 59 -211 59 -216 c 4
 59 -225 68 -226 79 -226 c 6xde
7 19 m 6
 140 250 l 6
 146 260 151 265 156 265 c 4
 161 265 166 259 173 248 c 6
 306 17 l 6
 310 11 312 5 312 1 c 4
 312 -6 305 -10 291 -10 c 6
 206 -10 l 6
 193 -10 187 -15 187 -22 c 4
 187 -25 189 -29 191 -34 c 6
 306 -233 l 6
 310 -239 312 -245 312 -249 c 4
 312 -256 305 -260 291 -260 c 6
 16 -260 l 6
 5 -260 0 -256 0 -250 c 4
 0 -245 3 -238 7 -231 c 6
 120 -35 l 6
 123 -30 124 -26 124 -22 c 4
 124 -15 118 -10 103 -10 c 6
 16 -10 l 6xbe
 5 -10 0 -6 0 0 c 4
 0 5 3 12 7 19 c 6
79 24 m 6
 221 24 l 6
 241 24 249 30 249 40 c 4
 249 46 246 53 241 62 c 6
 174 178 l 6
 168 188 162 193 156 193 c 4
 150 193 144 189 139 179 c 6
 67 54 l 6
 62 45 59 39 59 34 c 4
 59 25 68 24 79 24 c 6
EndSplineSet
EndChar

StartChar: uni0273
Encoding: 627 627 134
Width: 312
VWidth: 0
Flags: W
HStem: -260 34<59.0066 248.994> -57 81<134.5 177.141> -10 34<59.0066 123.996 187.004 248.994> 193 72<137.336 175.062>
VStem: 0 59<-253 -210.646 -3 39.5176> 124 63<-55.7656 -10> 249 63<-252.5 -207.802 -2.5 42.3516>
LayerCount: 2
Fore
SplineSet
7 19 m 2xbe
 140 250 l 2
 146 260 151 265 156 265 c 0
 161 265 166 259 173 248 c 2
 306 17 l 2
 310 11 312 5 312 1 c 0
 312 -6 305 -10 291 -10 c 2
 206 -10 l 2
 193 -10 187 -15 187 -22 c 0
 187 -25 189 -29 191 -34 c 2
 306 -233 l 2
 310 -239 312 -245 312 -249 c 0
 312 -256 305 -260 291 -260 c 2
 16 -260 l 2
 5 -260 0 -256 0 -250 c 0
 0 -245 3 -238 7 -231 c 2
 120 -35 l 2
 123 -30 124 -26 124 -22 c 0
 124 -15 118 -10 103 -10 c 2
 16 -10 l 2
 5 -10 0 -6 0 0 c 0
 0 5 3 12 7 19 c 2xbe
EndSplineSet
EndChar

StartChar: uni0274
Encoding: 628 628 135
Width: 312
VWidth: 0
Flags: W
HStem: -265 72<137.336 175.062> -24 81<134.5 177.141> -24 34<59.0066 123.996 187.004 248.994> 226 34<59.0066 248.994>
VStem: 0 59<-39.5176 3 210.646 253> 124 63<10.0037 55.7656> 249 63<-42.3516 2.5 207.802 252.5>
LayerCount: 2
Fore
SplineSet
79 226 m 6xde
 68 226 59 225 59 216 c 4
 59 211 62 205 67 196 c 6
 139 71 l 6
 144 61 150 57 156 57 c 4
 162 57 168 62 174 72 c 6
 241 188 l 6
 246 197 249 204 249 210 c 4
 249 220 241 226 221 226 c 6
 79 226 l 6xde
7 -19 m 6
 3 -12 0 -5 0 0 c 4
 0 6 5 10 16 10 c 6
 103 10 l 6
 118 10 124 15 124 22 c 4
 124 26 123 30 120 35 c 6
 7 231 l 6
 3 238 0 245 0 250 c 4
 0 256 5 260 16 260 c 6
 291 260 l 6
 305 260 312 256 312 249 c 4
 312 245 310 239 306 233 c 6
 191 34 l 6
 189 29 187 25 187 22 c 4
 187 15 193 10 206 10 c 6
 291 10 l 6xbe
 305 10 312 6 312 -1 c 4
 312 -5 310 -11 306 -17 c 6
 173 -248 l 6
 166 -259 161 -265 156 -265 c 4
 151 -265 146 -260 140 -250 c 6
 7 -19 l 6
79 -24 m 6
 68 -24 59 -25 59 -34 c 4
 59 -39 62 -45 67 -54 c 6
 139 -179 l 6
 144 -189 150 -193 156 -193 c 4
 162 -193 168 -188 174 -178 c 6
 241 -62 l 6
 246 -53 249 -46 249 -40 c 4
 249 -30 241 -24 221 -24 c 6
 79 -24 l 6
EndSplineSet
EndChar

StartChar: uni0275
Encoding: 629 629 136
Width: 312
VWidth: 0
Flags: W
HStem: 216 34<59.0066 248.994> -34 81<134.5 177.141> -34 34<59.0066 123.996 187.004 248.994> -275 72<137.336 175.062>
VStem: 0 59<200.646 243 -49.5176 -7> 124 63<1.49997e-007 45.7656> 249 63<197.802 242.5 -52.3516 -7.5>
LayerCount: 2
Fore
SplineSet
7 -19 m 6x8e
 3 -12 0 -5 0 0 c 4
 0 6 5 10 16 10 c 6
 103 10 l 6
 118 10 124 15 124 22 c 4
 124 26 123 30 120 35 c 6
 7 231 l 6
 3 238 0 245 0 250 c 4
 0 256 5 260 16 260 c 6
 291 260 l 6
 305 260 312 256 312 249 c 4
 312 245 310 239 306 233 c 6
 191 34 l 6
 189 29 187 25 187 22 c 4
 187 15 193 10 206 10 c 6
 291 10 l 6
 305 10 312 6 312 -1 c 4
 312 -5 310 -11 306 -17 c 6
 173 -248 l 6
 166 -259 161 -265 156 -265 c 4
 151 -265 146 -260 140 -250 c 6
 7 -19 l 6x8e
EndSplineSet
EndChar

StartChar: uni024D
Encoding: 589 589 137
Width: 343
VWidth: 0
Flags: HW
HStem: -137 40<47.4028 282.403>
VStem: 283.403 40<-97 108>
LayerCount: 2
Fore
SplineSet
10.4023 -137 m 2
 -1.59766 -137 -3.59766 -136 6.40234 -125 c 2
 336.402 205 l 2
 341.402 210 343.402 209 343.402 202 c 2
 343.402 -137 l 1
 10.4023 -137 l 2
EndSplineSet
EndChar

StartChar: uni024E
Encoding: 590 590 138
Width: 343
VWidth: 0
Flags: HW
HStem: 97 40<47.4028 282.403>
VStem: 283.403 40<-108 97>
LayerCount: 2
Fore
SplineSet
115.402 73 m 2
 282.402 -94 l 2
 289.402 -101 303.402 -92 303.402 -83 c 2
 303.402 78 l 2
 303.402 86 294.402 97 286.402 97 c 2
 123.402 97 l 2
 113.402 97 109.402 79 115.402 73 c 2
10.4023 137 m 2
 343.402 137 l 5
 343.402 -202 l 2
 343.402 -209 341.402 -210 336.402 -205 c 2
 6.40234 125 l 2
 -3.59766 136 -1.59766 137 10.4023 137 c 2
EndSplineSet
EndChar

StartChar: uni024F
Encoding: 591 591 139
Width: 343
VWidth: 0
Flags: HW
HStem: 97 40<47.4028 282.403>
VStem: 283.403 40<-108 97>
LayerCount: 2
Fore
SplineSet
10.4023 137 m 2
 343.402 137 l 1
 343.402 -202 l 2
 343.402 -209 341.402 -210 336.402 -205 c 2
 6.40234 125 l 2
 -3.59766 136 -1.59766 137 10.4023 137 c 2
EndSplineSet
EndChar

StartChar: uni026A
Encoding: 618 618 140
Width: 401
VWidth: 0
Flags: W
VStem: 361.5 40<-105.14 106.465>
LayerCount: 2
Fore
SplineSet
401.5 -178 m 1
 7.5 -5 l 2
 -2.5 -1 -2.5 1 7.5 5 c 2
 401.5 178 l 1
 401.5 -178 l 1
361.5 89 m 2
 361.5 99 347.5 110 338.5 106 c 2
 130.5 16 l 2
 118.5 10 120.5 -11 128.5 -15 c 2
 330.5 -103 l 2
 348.5 -111 361.5 -95 361.5 -87 c 2
 361.5 89 l 2
EndSplineSet
EndChar

StartChar: uni026B
Encoding: 619 619 141
Width: 401
VWidth: 0
Flags: HW
VStem: 361.5 40<-105 106>
LayerCount: 2
Fore
SplineSet
401.5 -178 m 1
 7.5 -5 l 2
 -2.5 -1 -2.5 1 7.5 5 c 2
 401.5 178 l 1
 401.5 -178 l 1
EndSplineSet
EndChar

StartChar: uni0278
Encoding: 632 632 142
Width: 408
VWidth: 0
Flags: W
HStem: -125 34<65.0051 336.996> 88 57<175.219 224.844>
LayerCount: 2
Fore
SplineSet
83 -219 m 2
 319 -219 l 2
 331 -219 337 -216 337 -211 c 0
 337 -207 334 -201 328 -193 c 2
 218 -51 l 2
 212 -44 206 -40 200 -40 c 0
 194 -40 187 -44 180 -53 c 2
 74 -190 l 2
 68 -198 65 -204 65 -209 c 0
 65 -216 72 -219 83 -219 c 2
2 227 m 2
 -3 235 -7 241 -7 245 c 0
 -7 250 -3 253 8 253 c 2
 394 253 l 2
 404 253 408 249 408 245 c 0
 408 242 407 239 405 236 c 2
 240 24 l 2
 232 14 228 7 228 -0 c 0
 228 -7 232 -13 239 -22 c 2
 405 -236 l 2
 407 -239 408 -242 408 -245 c 0
 408 -249 404 -253 394 -253 c 2
 8 -253 l 2
 -3 -253 -7 -250 -7 -245 c 0
 -7 -241 -3 -235 2 -227 c 2
 162 -21 l 2
 168 -13 172 -7 172 -1 c 0
 172 6 168 14 158 26 c 2
 2 227 l 2
83 219 m 2
 72 219 65 216 65 209 c 0
 65 204 68 198 74 190 c 2
 180 53 l 2
 187 44 194 40 200 40 c 0
 206 40 212 44 218 51 c 2
 328 193 l 2
 334 201 337 207 337 211 c 0
 337 216 331 219 319 219 c 2
 83 219 l 2
EndSplineSet
EndChar

StartChar: uni0279
Encoding: 633 633 143
Width: 408
VWidth: 0
Flags: W
HStem: -125 34<65.0051 336.996> 88 57<175.219 224.844>
LayerCount: 2
Fore
SplineSet
2 227 m 2
 -3 235 -7 241 -7 245 c 0
 -7 250 -3 253 8 253 c 2
 394 253 l 2
 404 253 408 249 408 245 c 0
 408 242 407 239 405 236 c 2
 240 24 l 2
 232 14 228 7 228 -0 c 0
 228 -7 232 -13 239 -22 c 2
 405 -236 l 2
 407 -239 408 -242 408 -245 c 0
 408 -249 404 -253 394 -253 c 2
 8 -253 l 2
 -3 -253 -7 -250 -7 -245 c 0
 -7 -241 -3 -235 2 -227 c 2
 162 -21 l 2
 168 -13 172 -7 172 -1 c 0
 172 6 168 14 158 26 c 2
 2 227 l 2
EndSplineSet
EndChar

StartChar: uni027A
Encoding: 634 634 144
Width: 408
VWidth: 0
Flags: W
HStem: -125 34<65.0051 336.996> 88 57<175.219 224.844>
LayerCount: 2
Fore
SplineSet
83 -226 m 2
 319 -226 l 2
 331 -226 337 -223 337 -218 c 0
 337 -214 334 -208 328 -200 c 2
 218 -58 l 2
 212 -51 206 -47 200 -47 c 0
 194 -47 187 -51 180 -60 c 2
 74 -197 l 2
 68 -205 65 -211 65 -216 c 0
 65 -223 72 -226 83 -226 c 2
2 16 m 2
 181 246 l 2
 189 256 194 260 200 260 c 0
 206 260 212 255 219 246 c 2
 405 7 l 2
 407 4 408 1 408 -2 c 0
 408 -6 404 -10 394 -10 c 2
 266 -10 l 2
 249 -10 239 -13 239 -22 c 0
 239 -27 242 -33 249 -42 c 2
 405 -243 l 2
 407 -246 408 -249 408 -252 c 0
 408 -256 404 -260 394 -260 c 2
 8 -260 l 2
 -3 -260 -7 -257 -7 -252 c 0
 -7 -248 -3 -242 2 -234 c 2
 152 -42 l 2
 158 -34 160 -28 160 -23 c 3
 160 -14 149 -10 129 -10 c 2
 8 -10 l 2
 -3 -10 -7 -7 -7 -2 c 0
 -7 2 -3 8 2 16 c 2
83 24 m 2
 319 24 l 2
 331 24 337 27 337 32 c 0
 337 36 334 42 328 50 c 2
 218 192 l 2
 212 199 206 203 200 203 c 0
 194 203 187 199 180 190 c 2
 74 53 l 2
 68 45 65 39 65 34 c 0
 65 27 72 24 83 24 c 2
EndSplineSet
EndChar

StartChar: uni027B
Encoding: 635 635 145
Width: 408
VWidth: 0
Flags: W
HStem: -125 34<65.0051 336.996> 88 57<175.219 224.844>
LayerCount: 2
Fore
SplineSet
2 16 m 2
 181 246 l 2
 189 256 194 260 200 260 c 0
 206 260 212 255 219 246 c 2
 405 7 l 2
 407 4 408 1 408 -2 c 0
 408 -6 404 -10 394 -10 c 2
 266 -10 l 2
 249 -10 239 -13 239 -22 c 0
 239 -27 242 -33 249 -42 c 2
 405 -243 l 2
 407 -246 408 -249 408 -252 c 0
 408 -256 404 -260 394 -260 c 2
 8 -260 l 2
 -3 -260 -7 -257 -7 -252 c 0
 -7 -248 -3 -242 2 -234 c 2
 152 -42 l 2
 158 -34 160 -28 160 -23 c 3
 160 -14 149 -10 129 -10 c 2
 8 -10 l 2
 -3 -10 -7 -7 -7 -2 c 0
 -7 2 -3 8 2 16 c 2
EndSplineSet
EndChar

StartChar: uni027C
Encoding: 636 636 146
Width: 408
VWidth: 0
Flags: W
HStem: -260 57<175.219 224.844> -24 71<173.375 224.875> -24 34<65.0051 159.992 239.007 336.996> 226 34<65.0051 336.996>
VStem: 160 79<10.3596 45>
LayerCount: 2
Fore
SplineSet
83 226 m 2xd8
 319 226 l 2
 331 226 337 223 337 218 c 0
 337 214 334 208 328 200 c 2
 218 58 l 2
 212 51 206 47 200 47 c 0
 194 47 187 51 180 60 c 2
 74 197 l 2
 68 205 65 211 65 216 c 0
 65 223 72 226 83 226 c 2xd8
2 -16 m 2
 181 -246 l 2
 189 -256 194 -260 200 -260 c 0
 206 -260 212 -255 219 -246 c 2
 405 -7 l 2
 407 -4 408 -1 408 2 c 0
 408 6 404 10 394 10 c 2
 266 10 l 2
 249 10 239 13 239 22 c 0
 239 27 242 33 249 42 c 2
 405 243 l 2
 407 246 408 249 408 252 c 0
 408 256 404 260 394 260 c 2
 8 260 l 2
 -3 260 -7 257 -7 252 c 0
 -7 248 -3 242 2 234 c 2
 152 42 l 2
 158 34 160 28 160 23 c 3
 160 14 149 10 129 10 c 2
 8 10 l 2xb8
 -3 10 -7 7 -7 2 c 0
 -7 -2 -3 -8 2 -16 c 2
83 -24 m 2
 319 -24 l 2
 331 -24 337 -27 337 -32 c 0
 337 -36 334 -42 328 -50 c 2
 218 -192 l 2
 212 -199 206 -203 200 -203 c 0
 194 -203 187 -199 180 -190 c 2
 74 -53 l 2
 68 -45 65 -39 65 -34 c 0
 65 -27 72 -24 83 -24 c 2
EndSplineSet
EndChar

StartChar: uni027D
Encoding: 637 637 147
Width: 408
VWidth: 0
Flags: W
HStem: 91 34<65.0051 336.996> -145 57<175.219 224.844>
LayerCount: 2
Fore
SplineSet
2 -16 m 2x00
 -3 -8 -7 -2 -7 2 c 0
 -7 7 -3 10 8 10 c 2
 129 10 l 2
 149 10 160 14 160 23 c 3
 160 28 158 34 152 42 c 2
 2 234 l 2
 -3 242 -7 248 -7 252 c 0
 -7 257 -3 260 8 260 c 2
 394 260 l 2
 404 260 408 256 408 252 c 0
 408 249 407 246 405 243 c 2
 249 42 l 2
 242 33 239 27 239 22 c 0
 239 13 249 10 266 10 c 2
 394 10 l 2
 404 10 408 6 408 2 c 0
 408 -1 407 -4 405 -7 c 2
 219 -246 l 2
 212 -255 206 -260 200 -260 c 0
 194 -260 189 -256 181 -246 c 2
 2 -16 l 2x00
EndSplineSet
EndChar

StartChar: uni0280
Encoding: 640 640 148
Width: 508
VWidth: 0
Flags: W
HStem: -135 34<80.0051 427.995>
LayerCount: 2
Fore
SplineSet
238 -40 m 2
 91 -192 l 2
 84 -200 80 -207 80 -211 c 0
 80 -218 87 -221 102 -221 c 2
 406 -221 l 2
 421 -221 428 -218 428 -211 c 0
 428 -207 424 -200 417 -192 c 2
 270 -39 l 2
 263 -32 258 -29 254 -29 c 0
 249 -29 244 -33 238 -40 c 2
238 45 m 2
 244 38 249 34 254 34 c 0
 258 34 263 37 270 44 c 2
 417 197 l 2
 424 205 428 212 428 216 c 0
 428 223 421 226 406 226 c 2
 102 226 l 2
 87 226 80 223 80 216 c 0
 80 212 84 205 91 197 c 2
 238 45 l 2
295 -16 m 2
 502 -233 l 2
 506 -236 508 -241 508 -245 c 0
 508 -250 504 -255 493 -255 c 2
 15 -255 l 2
 4 -255 0 -250 0 -245 c 0
 0 -241 2 -236 6 -233 c 2
 210 -19 l 2
 218 -11 223 -4 223 2 c 0
 223 9 219 15 211 24 c 2
 6 238 l 2
 2 241 0 246 0 250 c 0
 0 255 4 260 15 260 c 2
 493 260 l 2
 504 260 508 255 508 250 c 0
 508 246 506 241 502 238 c 2
 298 24 l 2
 290 16 286 9 286 2 c 0
 286 -4 289 -10 295 -16 c 2
EndSplineSet
EndChar

StartChar: uni0281
Encoding: 641 641 149
Width: 508
VWidth: 0
Flags: W
HStem: -135 34<80.0051 427.995>
LayerCount: 2
Fore
SplineSet
295 -16 m 2
 502 -233 l 2
 506 -236 508 -241 508 -245 c 0
 508 -250 504 -255 493 -255 c 2
 15 -255 l 2
 4 -255 0 -250 0 -245 c 0
 0 -241 2 -236 6 -233 c 2
 210 -19 l 2
 218 -11 223 -4 223 2 c 0
 223 9 219 15 211 24 c 2
 6 238 l 2
 2 241 0 246 0 250 c 0
 0 255 4 260 15 260 c 2
 493 260 l 2
 504 260 508 255 508 250 c 0
 508 246 506 241 502 238 c 2
 298 24 l 2
 290 16 286 9 286 2 c 0
 286 -4 289 -10 295 -16 c 2
EndSplineSet
EndChar

StartChar: uni0282
Encoding: 642 642 150
Width: 508
VWidth: 0
Flags: W
HStem: -260 34<80.0051 427.995> -34 58<228.812 281.484> -10 34<80.0051 205.993 300.007 427.995> 216 50<228.922 279.078>
LayerCount: 2
Fore
SplineSet
238 -45 m 2xd0
 91 -197 l 2
 84 -205 80 -212 80 -216 c 0
 80 -223 87 -226 102 -226 c 2
 406 -226 l 2
 421 -226 428 -223 428 -216 c 0
 428 -212 424 -205 417 -197 c 2
 270 -44 l 2
 263 -37 258 -34 254 -34 c 0
 249 -34 244 -38 238 -45 c 2xd0
268 257 m 2
 502 12 l 2
 506 9 508 4 508 0 c 0
 508 -5 504 -10 493 -10 c 2
 328 -10 l 2
 310 -10 300 -13 300 -20 c 0
 300 -25 304 -30 311 -38 c 2
 502 -238 l 2
 506 -241 508 -246 508 -250 c 0
 508 -255 504 -260 493 -260 c 2
 15 -260 l 6
 4 -260 0 -255 0 -250 c 0
 0 -246 2 -241 6 -238 c 2
 197 -38 l 2
 204 -31 206 -25 206 -21 c 3
 206 -13 196 -10 177 -10 c 2
 15 -10 l 2xb0
 4 -10 0 -5 0 0 c 0
 0 4 2 9 6 12 c 2
 240 257 l 2
 246 263 250 266 254 266 c 0
 259 266 263 263 268 257 c 2
238 205 m 2
 91 53 l 2
 84 45 80 38 80 34 c 0
 80 27 87 24 102 24 c 2
 406 24 l 2
 421 24 428 27 428 34 c 0
 428 38 424 45 417 53 c 2
 270 206 l 2
 263 213 258 216 254 216 c 0
 249 216 244 212 238 205 c 2
EndSplineSet
EndChar

StartChar: uni0283
Encoding: 643 643 151
Width: 508
VWidth: 0
Flags: W
HStem: -260 34<80.0051 427.995> -34 58<228.812 281.484> -10 34<80.0051 205.993 300.007 427.995> 216 50<228.922 279.078>
LayerCount: 2
Fore
SplineSet
268 257 m 2xb0
 502 12 l 2
 506 9 508 4 508 0 c 0
 508 -5 504 -10 493 -10 c 2
 328 -10 l 2
 310 -10 300 -13 300 -20 c 0
 300 -25 304 -30 311 -38 c 2
 502 -238 l 2
 506 -241 508 -246 508 -250 c 0
 508 -255 504 -260 493 -260 c 2
 15 -260 l 2
 4 -260 0 -255 0 -250 c 0
 0 -246 2 -241 6 -238 c 2
 197 -38 l 2
 204 -31 206 -25 206 -21 c 3
 206 -13 196 -10 177 -10 c 2
 15 -10 l 2
 4 -10 0 -5 0 0 c 0
 0 4 2 9 6 12 c 2
 240 257 l 2
 246 263 250 266 254 266 c 0
 259 266 263 263 268 257 c 2xb0
EndSplineSet
EndChar

StartChar: uni0204
Encoding: 516 516 152
Width: 554
Flags: HW
HStem: -137 40<40 300> 97 40<40 300>
VStem: 0 40<-97 97> 300 40<-96.7879 97>
LayerCount: 2
Fore
SplineSet
40 82 m 2
 40 -79 l 2
 40 -88 52 -97 57 -97 c 2
 492 -97 l 2
 501 -97 514 -85 514 -77 c 2
 514 77 l 2
 514 85 503 97 495 97 c 2
 56 97 l 2
 50 97 40 86 40 82 c 2
0 137 m 1
 554 137 l 1
 554 -137 l 1
 0 -137 l 1
 0 137 l 1
EndSplineSet
EndChar

StartChar: uni0205
Encoding: 517 517 153
Width: 554
Flags: HW
HStem: -137 40<40 300> 97 40<40 300>
VStem: 0 40<-97 97> 300 40<-96.7879 97>
LayerCount: 2
Fore
SplineSet
0 137 m 1
 554 137 l 1
 554 -137 l 1
 0 -137 l 1
 0 137 l 1
EndSplineSet
EndChar

StartChar: uni0288
Encoding: 648 648 154
Width: 240
VWidth: 0
Flags: W
HStem: -135 34<84.3959 205.538> 101 34<85.885 205.579>
VStem: 0 34<-52.76 54.2675> 206 34<-100.715 100.534>
LayerCount: 2
Back
SplineSet
427.89 226.401 m 4
 438.173 214.145 437.284 212.094 427.325 203.736 c 6
 -83.627 -225.003 l 6
 -95.1172 -234.644 -97.4141 -236.573 -107.057 -225.082 c 4
 -117.985 -212.06 -116.452 -210.773 -102.663 -199.203 c 6
 406.756 228.249 l 6
 416.716 236.606 418.246 237.892 427.89 226.401 c 4
EndSplineSet
Fore
SplineSet
155 -101 m 2
 182 -101 l 2
 200 -101 206 -98 206 -75 c 2
 206 76 l 2
 206 95 202 101 181 101 c 2
 155 101 l 0
 79 101 34 56 34 0 c 0
 34 -53 76 -101 155 -101 c 2
155 -135 m 2
 60 -135 0 -74 0 0 c 0
 0 78 65 135 155 135 c 0
 223 135 l 2
 237 135 240 132 240 119 c 2
 240 -115 l 2
 240 -131 233 -135 218 -135 c 2
 155 -135 l 2
EndSplineSet
EndChar

StartChar: uni0289
Encoding: 649 649 155
Width: 240
VWidth: 0
Flags: W
HStem: -135 34<84.3959 205.538> 101 34<85.885 205.579>
VStem: 0 34<-52.76 54.2675> 206 34<-100.715 100.534>
LayerCount: 2
Fore
SplineSet
155 -135 m 2
 60 -135 0 -74 0 0 c 0
 0 78 65 135 155 135 c 0
 223 135 l 2
 237 135 240 132 240 119 c 2
 240 -115 l 2
 240 -131 233 -135 218 -135 c 2
 155 -135 l 2
EndSplineSet
EndChar

StartChar: uni028A
Encoding: 650 650 156
Width: 240
VWidth: 0
Flags: W
HStem: -135 34<34.4623 155.604> 101 34<34.4205 154.115>
VStem: 206 34<-52.76 54.2675> 0 34<-100.715 100.534>
LayerCount: 2
Back
SplineSet
-114.659 213.954 m 4
 -115.354 217.894 -101.854 233.475 -96.9307 234.343 c 4
 -93.9756 234.863 -91.6592 233.241 -85.8672 229.186 c 6
 19.2031 140.077 l 6
 27.4854 133.414 33.916 131.501 40.8096 132.717 c 4
 44.748 133.411 48.5137 135.091 53.0908 137.929 c 4
 62.418 142.62 71.1074 145.167 80.9561 146.904 c 4
 138.074 156.976 208.916 123.772 245.232 90.5742 c 4
 273.267 64.0391 304.31 14.6797 312.818 -33.5752 c 4
 315.597 -49.332 316.231 -64.4521 313.564 -78.123 c 4
 311.826 -85.5371 311.883 -91.6201 312.751 -96.5439 c 4
 314.314 -105.407 318.311 -110.795 326.594 -117.458 c 6
 425.523 -200.541 l 6
 431.489 -205.582 434.965 -208.015 435.659 -211.954 c 4
 436.527 -216.878 422.854 -231.475 418.915 -232.169 c 4
 414.976 -232.863 410.342 -229.619 403.218 -223.768 c 6
 305.62 -142.48 l 6
 298.321 -135.644 292.703 -132.572 283.84 -134.136 c 4
 273.007 -136.045 255.338 -145.254 242.535 -147.511 c 4
 185.416 -157.583 113.242 -122.584 76.9258 -89.3857 c 4
 48.8916 -62.8506 19.0078 -14.3027 10.6729 32.9688 c 4
 7.37305 51.6797 7.20215 69.9268 12.3018 87.0732 c 4
 13.5771 91.3604 13.8672 95.4727 13.3467 98.4268 c 4
 12.4785 103.352 8.8291 106.77 4.02148 110.999 c 6
 -106.841 204.163 l 6
 -111.647 208.393 -114.139 211 -114.659 213.954 c 4
EndSplineSet
Fore
SplineSet
85 -101 m 2xe0
 164 -101 206 -53 206 0 c 0
 206 56 161 101 85 101 c 0
 59 101 l 2
 38 101 34 95 34 76 c 2
 34 -75 l 2
 34 -98 40 -101 58 -101 c 2
 85 -101 l 2xe0
85 -135 m 2
 22 -135 l 2
 7 -135 0 -131 0 -115 c 2
 0 119 l 2
 0 132 3 135 17 135 c 2
 85 135 l 0
 175 135 240 78 240 0 c 0
 240 -74 180 -135 85 -135 c 2
EndSplineSet
EndChar

StartChar: uni028C
Encoding: 652 652 157
Width: 270
VWidth: 0
Flags: W
HStem: -135 34<99.3959 220.538> 101 34<100.885 220.579>
VStem: 15 34<-52.76 54.2675> 221 34<-100.715 100.534>
LayerCount: 2
Fore
SplineSet
34 -35 m 6
 34 -62 l 6
 34 -80 37 -86 60 -86 c 6
 211 -86 l 6
 230 -86 236 -82 236 -61 c 6
 236 -35 l 4
 236 41 191 86 135 86 c 4
 82 86 34 44 34 -35 c 6
0 -35 m 6
 0 60 61 120 135 120 c 4
 213 120 270 55 270 -35 c 4
 270 -103 l 6
 270 -117 267 -120 254 -120 c 6
 20 -120 l 6
 4 -120 0 -113 0 -98 c 6
 0 -35 l 6
EndSplineSet
EndChar

StartChar: uni028B
Encoding: 651 651 158
Width: 240
VWidth: 0
Flags: W
HStem: -135 34<34.4623 155.604> 101 34<34.4205 154.115>
VStem: 206 34<-52.76 54.2675> 0 34<-100.715 100.534>
LayerCount: 2
Fore
SplineSet
85 -135 m 2xe0
 22 -135 l 2
 7 -135 0 -131 0 -115 c 2
 0 119 l 2
 0 132 3 135 17 135 c 2
 85 135 l 0
 175 135 240 78 240 0 c 0
 240 -74 180 -135 85 -135 c 2xe0
EndSplineSet
EndChar

StartChar: uni0285
Encoding: 645 645 159
Width: 508
VWidth: 0
Flags: W
HStem: 232 34<80.0051 427.995> -18 58<226.516 279.188> -18 34<302.007 427.995 80.0051 207.993> -260 50<228.922 279.078>
LayerCount: 2
Fore
SplineSet
240 -251 m 2x80
 6 -6 l 2
 2 -3 0 2 0 6 c 0
 0 11 4 16 15 16 c 2
 180 16 l 2
 198 16 208 19 208 26 c 0
 208 31 204 36 197 44 c 2
 6 244 l 2
 2 247 0 252 0 256 c 0
 0 261 4 266 15 266 c 2
 493 266 l 2
 504 266 508 261 508 256 c 0
 508 252 506 247 502 244 c 2
 311 44 l 2
 304 37 302 31 302 27 c 3
 302 19 312 16 331 16 c 2
 493 16 l 2
 504 16 508 11 508 6 c 0
 508 2 506 -3 502 -6 c 2
 268 -251 l 2
 262 -257 258 -260 254 -260 c 0
 249 -260 245 -257 240 -251 c 2x80
EndSplineSet
EndChar

StartChar: uni028D
Encoding: 653 653 160
Width: 270
VWidth: 0
Flags: W
HStem: -135 34<99.3959 220.538> 101 34<100.885 220.579>
VStem: 15 34<-52.76 54.2675> 221 34<-100.715 100.534>
LayerCount: 2
Fore
SplineSet
0 -35 m 2
 0 60 61 120 135 120 c 0
 213 120 270 55 270 -35 c 0
 270 -103 l 2
 270 -117 267 -120 254 -120 c 2
 20 -120 l 2
 4 -120 0 -113 0 -98 c 2
 0 -35 l 2
EndSplineSet
EndChar

StartChar: uni028E
Encoding: 654 654 161
Width: 270
VWidth: 0
Flags: W
HStem: 101 34<49.4623 170.604> -135 34<49.4205 169.115>
VStem: 221 34<-54.2675 52.76> 15 34<-100.534 100.715>
LayerCount: 2
Fore
SplineSet
236 35 m 6x00
 236 62 l 6
 236 80 233 86 210 86 c 6
 59 86 l 6
 40 86 34 82 34 61 c 6
 34 35 l 4
 34 -41 79 -86 135 -86 c 4
 188 -86 236 -44 236 35 c 6x00
270 35 m 6
 270 -60 209 -120 135 -120 c 4
 57 -120 0 -55 0 35 c 4
 0 103 l 6
 0 117 3 120 16 120 c 6
 250 120 l 6
 266 120 270 113 270 98 c 6
 270 35 l 6
EndSplineSet
EndChar

StartChar: uni028F
Encoding: 655 655 162
Width: 270
VWidth: 0
Flags: W
HStem: 101 34<49.4623 170.604> -135 34<49.4205 169.115>
VStem: 221 34<-54.2675 52.76> 15 34<-100.534 100.715>
LayerCount: 2
Fore
SplineSet
270 35 m 2x00
 270 -60 209 -120 135 -120 c 0
 57 -120 0 -55 0 35 c 0
 0 103 l 2
 0 117 3 120 16 120 c 2
 250 120 l 2
 266 120 270 113 270 98 c 2
 270 35 l 2x00
EndSplineSet
EndChar

StartChar: uni0297
Encoding: 663 663 163
Width: 260
VWidth: 0
Flags: W
LayerCount: 2
Fore
SplineSet
427.89 226.401 m 4
 438.173 214.145 437.284 212.094 427.325 203.736 c 6
 -83.627 -225.003 l 6
 -95.1172 -234.644 -97.4141 -236.573 -107.057 -225.082 c 4
 -117.985 -212.06 -116.452 -210.773 -102.663 -199.203 c 6
 406.756 228.249 l 6
 416.716 236.606 418.246 237.892 427.89 226.401 c 4
411.152 212.886 m 0
 421.437 200.629 420.547 198.578 410.589 190.222 c 2
 -69.7217 -212.807 l 2
 -81.2119 -222.448 -83.5098 -224.377 -93.1523 -212.886 c 0
 -104.079 -199.863 -102.547 -198.578 -88.7588 -187.008 c 2
 390.02 214.734 l 2
 399.978 223.091 401.51 224.377 411.152 212.886 c 0
EndSplineSet
EndChar

StartChar: uni0290
Encoding: 656 656 164
Width: 396
VWidth: 0
Flags: W
HStem: -135 34<117.26 276.994> 101 34<34.279 361.704>
VStem: 0 34<-27.8833 100.653> 362 34<-25.1929 100.407>
LayerCount: 2
Fore
SplineSet
34 25 m 2
 34 -44 102 -106 198 -106 c 0
 290 -106 362 -47 362 25 c 2
 362 76 l 2
 362 96 359 101 333 101 c 2
 61 101 l 2
 38 101 34 98 34 76 c 2
 34 25 l 2
396 25 m 2
 396 -72 302 -140 198 -140 c 0
 90 -140 0 -69 0 25 c 2
 0 111 l 2
 0 134 0 135 23 135 c 2
 365 135 l 2
 393 135 396 134 396 104 c 2
 396 25 l 2
EndSplineSet
EndChar

StartChar: uni0291
Encoding: 657 657 165
Width: 396
VWidth: 0
Flags: W
HStem: -140 275<100.045 294.177>
LayerCount: 2
Fore
SplineSet
396 25 m 2
 396 -72 302 -140 198 -140 c 0
 90 -140 0 -69 0 25 c 2
 0 111 l 2
 0 134 0 135 23 135 c 2
 365 135 l 2
 393 135 396 134 396 104 c 2
 396 25 l 2
EndSplineSet
EndChar

StartChar: uni0292
Encoding: 658 658 166
Width: 396
VWidth: 0
Flags: W
HStem: 101 34<117.26 276.994> -135 34<34.279 361.704>
VStem: 0 34<-100.653 27.8833> 362 34<-100.407 25.1929>
CounterMasks: 1 fc
LayerCount: 2
Back
SplineSet
-43 0 m 4
 -43 -96.8467 35.6309 -179 136 -179 c 4
 232.847 -179 315 -100.369 315 0 c 4
 315 96.8467 236.369 179 136 179 c 4
 39.1533 179 -43 100.369 -43 0 c 4
-77 0 m 4
 -77 119.508 20.6816 213 136 213 c 4
 255.508 213 349 115.318 349 0 c 4
 349 -119.508 251.318 -213 136 -213 c 4
 16.4922 -213 -77 -115.318 -77 0 c 4
EndSplineSet
Fore
SplineSet
34 -25 m 2x30
 34 -76 l 2
 34 -98 38 -101 61 -101 c 2
 333 -101 l 2
 359 -101 362 -96 362 -76 c 2
 362 -25 l 2
 362 47 290 106 198 106 c 0
 102 106 34 44 34 -25 c 2x30
396 -25 m 2
 396 -104 l 2
 396 -134 393 -135 365 -135 c 2
 23 -135 l 2
 0 -135 0 -134 0 -111 c 2
 0 -25 l 2
 0 69 90 140 198 140 c 0
 302 140 396 72 396 -25 c 2
EndSplineSet
EndChar

StartChar: uni0284
Encoding: 644 644 167
Width: 508
VWidth: 0
Flags: W
HStem: -260 50<228.922 279.078> -18 58<226.516 279.188> -18 34<80.0051 207.993 302.007 427.995> 232 34<80.0051 427.995>
LayerCount: 2
Fore
SplineSet
270 51 m 2xd0
 417 203 l 2
 424 211 428 218 428 222 c 0
 428 229 421 232 406 232 c 2
 102 232 l 2
 87 232 80 229 80 222 c 0
 80 218 84 211 91 203 c 2
 238 50 l 2
 245 43 250 40 254 40 c 0
 259 40 264 44 270 51 c 2xd0
240 -251 m 2
 6 -6 l 2
 2 -3 0 2 0 6 c 0
 0 11 4 16 15 16 c 2
 180 16 l 2
 198 16 208 19 208 26 c 0
 208 31 204 36 197 44 c 2
 6 244 l 2
 2 247 0 252 0 256 c 0
 0 261 4 266 15 266 c 2
 493 266 l 2
 504 266 508 261 508 256 c 0
 508 252 506 247 502 244 c 2
 311 44 l 2
 304 37 302 31 302 27 c 3
 302 19 312 16 331 16 c 2
 493 16 l 2xb0
 504 16 508 11 508 6 c 0
 508 2 506 -3 502 -6 c 2
 268 -251 l 2
 262 -257 258 -260 254 -260 c 4
 249 -260 245 -257 240 -251 c 2
270 -199 m 2
 417 -47 l 2
 424 -39 428 -32 428 -28 c 0
 428 -21 421 -18 406 -18 c 2
 102 -18 l 2
 87 -18 80 -21 80 -28 c 0
 80 -32 84 -39 91 -47 c 2
 238 -200 l 2
 245 -207 250 -210 254 -210 c 0
 259 -210 264 -206 270 -199 c 2
EndSplineSet
EndChar

StartChar: uni0293
Encoding: 659 659 168
Width: 396
VWidth: 0
Flags: W
HStem: 101 34<117.26 276.994> -135 34<34.279 361.704>
VStem: 0 34<-100.653 27.8833> 362 34<-100.407 25.1929>
LayerCount: 2
Fore
SplineSet
396 -25 m 2x30
 396 -104 l 2
 396 -134 393 -135 365 -135 c 2
 23 -135 l 2
 0 -135 0 -134 0 -111 c 2
 0 -25 l 2
 0 69 90 140 198 140 c 0
 302 140 396 72 396 -25 c 2x30
EndSplineSet
EndChar

StartChar: uni0295
Encoding: 661 661 170
Width: 353
Flags: W
LayerCount: 2
Fore
SplineSet
456.575 186.988 m 4
 465.053 173.42 463.887 171.513 452.862 164.622 c 6
 -112.787 -188.834 l 6
 -125.507 -196.781 -128.05 -198.372 -135.999 -185.651 c 4
 -145.01 -171.234 -143.312 -170.174 -128.047 -160.636 c 6
 435.904 191.76 l 6
 446.931 198.649 448.625 199.709 456.575 186.988 c 4
EndSplineSet
EndChar

StartChar: uni0296
Encoding: 662 662 171
Width: 260
VWidth: 0
Flags: W
HStem: 360.33 20G<151.208 166.708>
VStem: 143.708 32<-379.661 380.324>
LayerCount: 2
Fore
SplineSet
158.709 380.33 m 4
 174.708 380.33 175.708 378.33 175.708 365.33 c 6
 175.708 -361.67 l 6
 175.708 -376.67 175.709 -379.67 160.708 -379.67 c 4
 143.708 -379.67 143.708 -377.67 143.708 -359.67 c 6
 143.709 365.33 l 6
 143.709 378.33 143.708 380.33 158.709 380.33 c 4
EndSplineSet
EndChar

StartChar: uni0298
Encoding: 664 664 172
Width: 318
VWidth: 0
Flags: W
HStem: -143 272<99.2515 284.5> -132 275<33.5 227.5>
VStem: 0 311<-75.2393 99.5>
LayerCount: 2
Fore
SplineSet
418 235 m 0xa0
 422 235 435 219 435 214 c 0
 435 211 433 209 428 204 c 2
 322 116 l 2
 314 109 311 103 311 96 c 0
 311 92 312 88 314 83 c 0
 317 73 318 64 318 54 c 0
 318 -4 273 -68 234 -98 c 0
 203 -121 149 -143 100 -143 c 0xa0
 84 -143 69 -141 56 -136 c 0
 49 -133 43 -132 38 -132 c 0
 29 -132 23 -135 15 -142 c 2
 -84 -225 l 2
 -90 -230 -93 -233 -97 -233 c 0
 -102 -233 -114 -217 -114 -213 c 0
 -114 -209 -110 -205 -103 -199 c 2
 -6 -117 l 2
 2 -111 6 -106 6 -97 c 0
 6 -86 0 -67 0 -54 c 0
 0 4 47 69 86 99 c 0
 117 122 170 143 218 143 c 0x60
 237 143 255 140 271 132 c 0
 275 130 279 129 282 129 c 0
 287 129 291 132 296 136 c 2
 407 229 l 2
 412 233 415 235 418 235 c 0xa0
EndSplineSet
EndChar

StartChar: uni0299
Encoding: 665 665 173
Width: 318
VWidth: 0
Flags: W
HStem: -143 242<47.9563 122.854> -96 239<201.151 273.778> 202 20G<-84 -80.5>
LayerCount: 2
Fore
SplineSet
-100 201 m 0xa0
 -100 207 -86 222 -82 222 c 0
 -79 222 -76 220 -71 216 c 2
 58 108 l 2
 64 102 70 99 76 99 c 0xa0
 83 99 90 102 100 109 c 0
 132 127 177 143 218 143 c 0
 251 143 282 133 301 107 c 0
 313 91 318 73 318 54 c 0
 318 21 303 -15 283 -44 c 0
 277 -54 274 -60 274 -65 c 0
 274 -72 278 -77 286 -84 c 2
 409 -187 l 2
 416 -193 419 -196 419 -199 c 0
 419 -205 406 -220 402 -220 c 0
 398 -220 394 -216 387 -210 c 2
 262 -105 l 2
 255 -99 250 -96 244 -96 c 0x60
 239 -96 233 -99 225 -104 c 0
 193 -125 144 -143 100 -143 c 0
 67 -143 36 -133 17 -107 c 0
 5 -91 0 -73 0 -54 c 0
 0 -18 18 20 41 51 c 0
 45 57 47 62 47 66 c 0
 47 73 43 79 35 85 c 2
 -92 191 l 2
 -97 196 -100 198 -100 201 c 0xa0
EndSplineSet
EndChar

StartChar: uni029A
Encoding: 666 666 174
Width: 318
VWidth: 0
Flags: W
HStem: -143 245<44.5391 131.081> -98 241<197.723 274.381>
LayerCount: 2
Fore
SplineSet
-106 207 m 0x80
 -106 213 -92 227 -88 227 c 0
 -85 227 -82 225 -78 221 c 2
 49 115 l 2
 59 107 68 102 78 102 c 0x80
 86 102 94 105 104 110 c 0
 135 128 178 143 218 143 c 0
 237 143 255 140 271 132 c 0
 275 130 279 129 282 129 c 0
 287 129 291 132 296 136 c 2
 407 229 l 2
 412 233 415 235 418 235 c 0
 422 235 435 219 435 214 c 0
 435 211 433 209 428 204 c 2
 322 116 l 2
 314 109 311 103 311 96 c 0
 311 92 312 88 314 83 c 0
 317 73 318 64 318 54 c 0
 318 21 303 -14 283 -44 c 0
 278 -53 275 -59 275 -65 c 0
 275 -72 279 -78 288 -85 c 2
 416 -192 l 2
 422 -198 426 -201 426 -205 c 0
 426 -211 412 -225 408 -225 c 0
 404 -225 400 -221 393 -216 c 2
 268 -111 l 2
 259 -102 251 -98 243 -98 c 0x40
 238 -98 231 -100 223 -106 c 0
 191 -126 144 -143 100 -143 c 0
 84 -143 69 -141 56 -136 c 0
 49 -133 43 -132 38 -132 c 0
 29 -132 23 -135 15 -142 c 2
 -84 -225 l 2
 -90 -230 -93 -233 -97 -233 c 0
 -102 -233 -114 -217 -114 -213 c 0
 -114 -209 -110 -205 -103 -199 c 2
 -6 -117 l 2
 2 -111 6 -106 6 -97 c 0
 6 -86 0 -67 0 -54 c 0
 0 -21 15 15 36 44 c 0
 42 53 44 60 44 66 c 0
 44 75 38 82 28 91 c 2
 -98 197 l 2
 -104 201 -106 204 -106 207 c 0x80
EndSplineSet
EndChar

StartChar: uni029B
Encoding: 667 667 175
Width: 353
Flags: W
VStem: 0 60<-104.859 -79.25> 0 32<-64.9985 -31.8584> 322 31<32.3948 63.9993>
LayerCount: 2
Fore
SplineSet
463 194 m 0x60
 467 194 478 177 478 172 c 0
 478 168 475 166 469 162 c 2
 368 99 l 2
 355 91 353 87 353 65 c 0
 353 10 310 -64 243 -106 c 0
 202 -131 154 -144 112 -144 c 0
 88 -144 65 -140 46 -132 c 0
 34 -127 26 -125 19 -125 c 0
 12 -125 6 -127 -2 -132 c 2
 -97 -191 l 2
 -103 -195 -107 -198 -110 -198 c 0
 -115 -198 -125 -182 -125 -176 c 0
 -125 -172 -121 -169 -112 -163 c 2
 -15 -102 l 2
 -1 -94 0 -88 0 -72 c 0
 0 -70 -0 -67 0 -64 c 0
 0 -10 44 64 111 106 c 0
 152 132 200 144 243 144 c 0
 270 144 296 140 315 129 c 0
 326 124 332 121 337 121 c 0
 342 121 347 124 355 128 c 2
 452 189 l 2
 457 192 460 194 463 194 c 0x60
54 -59 m 2
 284 84 l 2
 289 87 296 94 296 100 c 0
 296 103 292 106 284 106 c 0
 281 106 277 106 273 105 c 0
 243 100 203 75 151 42 c 1
 96 9 54 -18 38 -43 c 0
 34 -50 32 -55 32 -59 c 0
 32 -63 34 -65 38 -65 c 0
 43 -65 49 -63 54 -59 c 2
87 -103 m 0
 117 -96 155 -73 203 -42 c 1
 261 -7 304 20 318 47 c 0
 321 52 322 57 322 59 c 0
 322 63 321 64 318 64 c 0
 314 64 309 62 303 58 c 2
 71 -86 l 2
 64 -91 60 -96 60 -100 c 0xa0
 60 -103 63 -105 71 -105 c 0
 75 -105 80 -105 87 -103 c 0
EndSplineSet
EndChar

StartChar: uni029C
Encoding: 668 668 176
Width: 353
Flags: W
HStem: -144 39<38.2812 130.325> -88 73<237.19 277.598> 14 75<75.3 119.611> 106 38<226.052 315.306>
VStem: 0 31<-95.2785 -32.8263> 323 30<33.3036 95.6859>
LayerCount: 2
Fore
SplineSet
-110 162 m 0
 -110 169 -98 185 -94 185 c 0
 -92 185 -88 183 -84 180 c 2
 48 98 l 2
 58 92 66 89 74 89 c 0
 83 89 92 93 104 101 c 0
 145 128 191 144 243 144 c 0
 303 144 353 123 353 65 c 0
 353 34 340 -2 317 -35 c 0
 310 -44 307 -51 307 -56 c 0
 307 -61 311 -66 319 -71 c 2
 453 -154 l 2
 461 -160 465 -162 465 -166 c 0
 465 -172 453 -188 449 -188 c 0
 446 -188 442 -184 435 -180 c 2
 297 -95 l 2
 290 -91 284 -88 278 -88 c 0
 268 -88 253 -100 243 -106 c 0
 202 -131 154 -144 112 -144 c 0
 51 -144 0 -122 0 -64 c 0
 0 -34 13 2 37 35 c 0
 43 43 46 49 46 54 c 0
 46 61 40 66 30 72 c 2
 -101 153 l 2
 -107 157 -110 159 -110 162 c 0
323 65 m 0
 323 88 302 106 283 106 c 0
 256 106 219 85 171 55 c 0
 160 48 155 42 155 37 c 0
 155 33 159 29 164 26 c 2
 216 -7 l 2
 225 -12 232 -15 238 -15 c 0
 244 -15 250 -13 258 -7 c 0
 299 19 323 42 323 65 c 0
181 -22 m 2
 134 7 l 2
 127 11 121 14 115 14 c 0
 108 14 101 11 90 3 c 0
 53 -21 31 -43 31 -65 c 0
 31 -88 52 -105 71 -105 c 0
 98 -105 134 -86 180 -57 c 0
 191 -50 196 -44 196 -39 c 0
 196 -33 190 -28 181 -22 c 2
EndSplineSet
EndChar

StartChar: uni029D
Encoding: 669 669 177
Width: 353
Flags: W
HStem: -88 73<237.19 278.582> -24 47<153.5 197.781> 15 74<75.1535 118.767>
VStem: 0 60<-104.859 -80.0938> 0 32<-64.9985 -30.781> 138 77<-14.4375 14.6719> 322 31<31.5837 63.9993>
LayerCount: 2
Fore
SplineSet
199 -39 m 0x56
 199 -33 186 -24 178 -24 c 0
 172 -24 166 -27 159 -32 c 2
 71 -86 l 2
 64 -91 60 -96 60 -100 c 0
 60 -103 63 -105 71 -105 c 0
 75 -105 80 -105 87 -103 c 0
 114 -97 147 -78 188 -52 c 0
 195 -47 199 -43 199 -39 c 0x56
-117 167 m 0
 -117 174 -105 189 -101 189 c 0
 -98 189 -95 187 -90 184 c 2
 48 98 l 2
 58 92 66 89 74 89 c 0
 85 89 100 99 111 106 c 0
 152 132 200 144 243 144 c 0
 270 144 296 140 315 129 c 1
 326 124 332 121 337 121 c 0
 342 121 347 124 355 128 c 2
 452 189 l 2
 457 192 460 194 463 194 c 0
 467 194 478 177 478 172 c 0
 478 168 475 166 469 162 c 2
 368 99 l 2
 355 91 353 87 353 65 c 0
 353 34 340 -2 317 -35 c 0
 311 -43 308 -50 308 -55 c 0
 308 -61 311 -66 319 -71 c 2
 460 -159 l 2
 468 -164 472 -166 472 -170 c 0
 472 -177 460 -192 456 -192 c 0
 452 -192 448 -189 441 -185 c 2
 296 -95 l 2
 290 -90 284 -88 278 -88 c 0
 266 -88 252 -100 243 -106 c 0
 202 -131 154 -144 112 -144 c 0
 88 -144 65 -140 46 -132 c 0
 34 -127 26 -125 19 -125 c 0
 12 -125 6 -127 -2 -132 c 2
 -97 -191 l 2
 -103 -195 -107 -198 -110 -198 c 0
 -115 -198 -125 -182 -125 -176 c 0
 -125 -172 -121 -169 -112 -163 c 2
 -15 -102 l 2
 -1 -94 0 -88 0 -72 c 2
 0 -64 l 2xae
 0 -35 13 0 35 33 c 0
 41 41 44 48 44 53 c 0
 44 62 36 68 24 75 c 2
 -107 157 l 2
 -114 161 -117 163 -117 167 c 0
138 -1 m 0
 138 5 124 15 114 15 c 0
 109 15 104 13 99 9 c 0
 70 -9 48 -27 38 -43 c 0
 34 -50 32 -55 32 -59 c 0
 32 -63 34 -65 38 -65 c 0
 43 -65 49 -63 54 -59 c 2
 128 -13 l 2
 135 -9 138 -5 138 -1 c 0
215 -2 m 0
 215 -10 230 -15 238 -15 c 0
 243 -15 249 -14 254 -11 c 0
 286 10 308 29 318 47 c 0
 321 52 322 57 322 59 c 0
 322 63 321 64 318 64 c 0
 314 64 309 62 303 58 c 2
 227 11 l 2
 220 6 215 2 215 -2 c 0
153 37 m 0
 153 29 169 23 177 23 c 0x46
 183 23 189 25 195 29 c 2
 284 84 l 2
 289 87 296 94 296 100 c 0
 296 103 292 106 284 106 c 0
 281 106 277 106 273 105 c 0
 245 100 209 79 164 50 c 0
 157 46 153 42 153 37 c 0
EndSplineSet
EndChar

StartChar: uni029E
Encoding: 670 670 178
Width: 318
VWidth: 0
Flags: W
HStem: -273 32<75.8757 240.581> 123 20G<194 234.5> 241 32<77.4194 242.124>
VStem: -115 32<-81.4731 83.0023> 401 32<-83.0023 81.4731>
LayerCount: 2
Back
SplineSet
-117 0 m 4
 -117 154.508 8.76074 275 159 275 c 4
 313.364 275 435 150.397 435 0 c 4
 435 -154.508 309.239 -275 159 -275 c 4
 4.63574 -275 -117 -150.397 -117 0 c 4
EndSplineSet
Fore
SplineSet
-83 0 m 0
 -83 -132 23 -241 159 -241 c 0
 291 -241 401 -135 401 0 c 0
 401 132 295 241 159 241 c 0
 27 241 -83 135 -83 0 c 0
-115 0 m 0
 -115 154 10 273 159 273 c 4
 312 273 433 149 433 0 c 0
 433 -154 308 -273 159 -273 c 0
 6 -273 -115 -149 -115 0 c 0
86 99 m 0
 117 122 170 143 218 143 c 0
 251 143 282 133 301 107 c 0
 313 91 318 73 318 54 c 0
 318 -4 273 -68 234 -98 c 0
 203 -121 149 -143 100 -143 c 0
 67 -143 36 -133 17 -107 c 0
 5 -91 0 -73 0 -54 c 0
 0 4 47 69 86 99 c 0
EndSplineSet
EndChar

StartChar: uni029F
Encoding: 671 671 179
Width: 353
Flags: W
HStem: -273 32<92.8757 257.581> -144 39<38.2812 129.68> 106 38<226.895 315.306> 241 32<94.4194 259.124>
VStem: -98 32<-81.4731 83.0023> 0 31<-95.2785 -33.6574> 323 30<33.9414 95.6859> 418 32<-83.0023 81.4731>
LayerCount: 2
Fore
SplineSet
-66 0 m 0
 -66 -132 40 -241 176 -241 c 0
 308 -241 418 -135 418 0 c 0
 418 132 312 241 176 241 c 0
 44 241 -66 135 -66 0 c 0
-98 0 m 4
 -98 154 27 273 176 273 c 4
 329 273 450 149 450 0 c 4
 450 -154 325 -273 176 -273 c 4
 23 -273 -98 -149 -98 0 c 4
323 65 m 0
 323 88 302 106 283 106 c 0
 252 106 209 79 151 42 c 0
 80 -1 31 -32 31 -65 c 0
 31 -88 52 -105 71 -105 c 0
 102 -105 146 -79 203 -42 c 0
 274 1 323 32 323 65 c 0
243 144 m 0
 303 144 353 123 353 65 c 0
 353 10 310 -64 243 -106 c 0
 202 -131 154 -144 112 -144 c 0
 51 -144 0 -122 0 -64 c 0
 0 -10 44 64 111 106 c 0
 152 132 200 144 243 144 c 0
EndSplineSet
EndChar

StartChar: uni02A0
Encoding: 672 672 180
Width: 280
Flags: W
HStem: -29 60<114.375 165.625> 120 19G<17.5 22 257.5 261.5>
VStem: 109 63<-27.0625 27.375>
LayerCount: 2
Fore
SplineSet
259 140 m 0
 264 140 279 124 279 119 c 0
 279 116 277 113 273 109 c 0
 182 18 l 0
 175 11 172 5 172 0 c 0
 172 -6 175 -11 181 -17 c 0
 273 -109 l 0
 277 -113 280 -116 280 -119 c 0
 280 -125 264 -140 259 -140 c 0
 256 -140 253 -137 249 -133 c 0
 157 -41 l 0
 149 -33 144 -29 140 -29 c 0
 136 -29 132 -32 126 -38 c 0
 33 -131 l 0
 27 -137 24 -140 20 -140 c 0
 15 -140 0 -124 0 -120 c 0
 0 -116 4 -112 11 -105 c 0
 99 -16 l 0
 105 -9 109 -5 109 0 c 0
 109 4 106 9 99 16 c 0
 9 107 l 0
 3 113 0 116 0 119 c 0
 0 125 15 139 20 139 c 0
 24 139 28 136 35 129 c 0
 121 43 l 0
 129 35 135 31 140 31 c 0
 145 31 150 34 157 41 c 0
 249 133 l 0
 253 137 256 140 259 140 c 0
EndSplineSet
EndChar

StartChar: uni02A1
Encoding: 673 673 181
Width: 280
VWidth: 0
Flags: W
HStem: -211 32<69.3508 212.566> -29 60<113.969 166.25> 179 32<68.092 210.649>
VStem: -71 32<-72.892 73.6274> 109 63<-27.25 26.9688> 319 32<-70.5999 72.1764>
LayerCount: 2
Fore
SplineSet
-71 0 m 0
 -71 119 26 211 140 211 c 0
 259 211 351 114 351 0 c 0
 351 -119 254 -211 140 -211 c 0
 21 -211 -71 -114 -71 0 c 0
45 119 m 2
 121 43 l 2
 129 35 135 31 140 31 c 0
 145 31 150 34 157 41 c 2
 234 118 l 2
 241 125 245 131 245 137 c 0
 245 143 240 149 229 155 c 0
 203 170 173 179 140 179 c 0
 106 179 74 169 46 152 c 0
 37 146 33 142 33 137 c 0
 33 132 38 126 45 119 c 2
-14 92 m 0
 -30 65 -39 34 -39 0 c 0
 -39 -32 -31 -62 -16 -88 c 0
 -8 -102 -2 -107 4 -107 c 0
 11 -107 18 -98 27 -88 c 2
 99 -16 l 2
 105 -9 109 -5 109 0 c 0
 109 4 106 9 99 16 c 2
 22 94 l 2
 15 101 8 106 3 106 c 0
 -3 106 -8 101 -14 92 c 0
256 92 m 2
 182 18 l 2
 175 11 172 5 172 0 c 0
 172 -6 175 -11 181 -17 c 2
 254 -90 l 2
 262 -98 269 -103 277 -103 c 0
 283 -103 289 -99 295 -89 c 0
 310 -63 319 -32 319 0 c 0
 319 34 310 65 293 93 c 0
 287 103 283 108 278 108 c 0
 273 108 267 103 256 92 c 2
231 -115 m 2
 157 -41 l 2
 149 -33 144 -29 140 -29 c 0
 136 -29 132 -32 126 -38 c 2
 49 -115 l 2
 40 -124 35 -131 35 -137 c 0
 35 -143 40 -149 51 -155 c 0
 77 -170 107 -179 140 -179 c 0
 171 -179 200 -171 226 -157 c 0
 239 -150 245 -144 245 -137 c 0
 245 -131 240 -124 231 -115 c 2
EndSplineSet
EndChar

StartChar: uni02A2
Encoding: 674 674 182
Width: 272
Flags: W
HStem: -211 32<62.1226 208.176> -28 56<108.365 163.635> 179 32<64.1407 210.114>
VStem: -75 32<-72.2344 74.0651> 108 56<-27.8361 27.4565> 315 32<-73.3838 72.3946>
CounterMasks: 1 fc
LayerCount: 2
Fore
SplineSet
136 -28 m 2
 135 -28 l 2
 112 -28 93 -62 93 -107 c 0
 93 -120 92 -125 79 -127 c 0
 66 -128 30 -131 30 -140 c 0
 30 -143 34 -147 42 -153 c 0
 69 -169 101 -179 136 -179 c 0
 170 -179 201 -170 229 -153 c 0
 236 -149 240 -144 240 -141 c 0
 240 -131 204 -127 193 -126 c 0
 180 -125 179 -120 179 -106 c 0
 179 -60 159 -28 136 -28 c 2
-75 0 m 0
 -75 119 22 211 136 211 c 0
 255 211 347 114 347 0 c 0
 347 -119 250 -211 136 -211 c 0
 17 -211 -75 -114 -75 0 c 0
37 142 m 0
 37 130 67 127 79 126 c 0
 92 125 93 120 93 106 c 0
 93 60 113 28 136 28 c 2
 137 28 l 2
 160 28 179 62 179 107 c 0
 179 120 180 125 193 127 c 0
 207 129 237 131 237 141 c 0
 237 147 230 153 219 159 c 0
 194 172 166 179 136 179 c 0
 104 179 74 170 47 155 c 0
 40 151 37 146 37 142 c 0
-21 87 m 0
 -35 61 -43 32 -43 0 c 0
 -43 -30 -35 -60 -21 -85 c 0
 -16 -94 -11 -99 -6 -99 c 0
 6 -99 9 -69 10 -57 c 0
 11 -44 16 -43 30 -43 c 0
 76 -43 108 -23 108 0 c 0
 108 24 75 43 29 43 c 0
 16 43 11 44 9 57 c 0
 8 70 6 103 -5 103 c 0
 -9 103 -15 98 -21 87 c 0
277 103 m 0
 268 103 263 70 262 57 c 0
 261 44 256 43 242 43 c 0
 196 43 164 24 164 0 c 0
 164 -23 197 -43 243 -43 c 0
 256 -43 261 -44 263 -57 c 0
 264 -66 265 -103 276 -103 c 0
 281 -103 286 -98 289 -93 c 0
 305 -66 315 -34 315 0 c 0
 315 31 307 61 292 87 c 0
 287 96 282 103 277 103 c 0
EndSplineSet
EndChar

StartChar: uni02A3
Encoding: 675 675 183
Width: 285
Flags: W
HStem: 121 20G<134 150>
LayerCount: 2
Fore
SplineSet
285 -114 m 0
 285 -121 280 -122 275 -122 c 0
 246 -122 209 -67 142 -67 c 0
 77 -67 28 -122 6 -122 c 0
 0 -122 0 -120 0 -114 c 0
 0 -98 26 -70 80 24 c 0
 125 102 126 141 142 141 c 0
 158 141 160 104 208 22 c 0
 259 -63 285 -95 285 -114 c 0
EndSplineSet
EndChar

StartChar: uni02A4
Encoding: 676 676 184
Width: 285
Flags: W
HStem: 102 20G<7.5 24.5 268 282>
LayerCount: 2
Fore
SplineSet
0 114 m 0
 0 121 5 122 10 122 c 0
 39 122 76 67 143 67 c 0
 208 67 257 122 279 122 c 0
 285 122 285 120 285 114 c 0
 285 98 259 70 205 -24 c 0
 160 -102 159 -141 143 -141 c 0
 127 -141 125 -104 77 -22 c 0
 26 63 0 95 0 114 c 0
EndSplineSet
EndChar

StartChar: uni025C
Encoding: 604 604 185
Width: 450
VWidth: 0
Flags: HW
HStem: -137 40<92.8825 357.84>
LayerCount: 2
Back
SplineSet
400 -117 m 29
 20 -117 l 29
 210 143 l 29
 400 -117 l 29
EndSplineSet
Fore
SplineSet
355.249 -67 m 2
 236.249 95 l 2
 233.249 99 220.249 101 215.249 94 c 2
 94.249 -72 l 2
 90.249 -77 93.249 -97 102.249 -97 c 2
 342.249 -97 l 2
 354.249 -97 362.249 -77 355.249 -67 c 2
437.249 -137 m 2
 9.24902 -137 l 2
 -1.75098 -137 -2.75098 -136 5.24902 -125 c 2
 221.249 170 l 2
 225.249 176 227.249 175 231.249 170 c 2
 444.249 -121 l 2
 454.249 -135 452.249 -137 437.249 -137 c 2
EndSplineSet
EndChar

StartChar: uni025D
Encoding: 605 605 186
Width: 450
VWidth: 0
Flags: HW
HStem: -137 40<92.8825 357.84>
LayerCount: 2
Fore
SplineSet
437.249 -137 m 2
 9.24902 -137 l 2
 -1.75098 -137 -2.75098 -136 5.24902 -125 c 2
 221.249 170 l 2
 225.249 176 227.249 175 231.249 170 c 2
 444.249 -121 l 2
 454.249 -135 452.249 -137 437.249 -137 c 2
EndSplineSet
EndChar

StartChar: uni025E
Encoding: 606 606 187
Width: 450
VWidth: 0
Flags: HW
HStem: 97 40<93 358>
LayerCount: 2
Fore
SplineSet
355 67 m 2
 362 77 354 97 342 97 c 2
 102 97 l 2
 93 97 90 77 94 72 c 2
 215 -94 l 2
 220 -101 233 -99 236 -95 c 2
 355 67 l 2
437 137 m 2
 452 137 454 135 444 121 c 2
 231 -170 l 2
 227 -175 225 -176 221 -170 c 2
 5 125 l 2
 -3 136 -2 137 9 137 c 2
 437 137 l 2
EndSplineSet
EndChar

StartChar: uni025F
Encoding: 607 607 188
Width: 450
VWidth: 0
Flags: HW
HStem: 97 40<93 358>
LayerCount: 2
Fore
SplineSet
437 137 m 2
 452 137 454 135 444 121 c 2
 231 -170 l 2
 227 -175 225 -176 221 -170 c 2
 5 125 l 2
 -3 136 -2 137 9 137 c 2
 437 137 l 2
EndSplineSet
EndChar

StartChar: uni0266
Encoding: 614 614 189
Width: 334
VWidth: 0
Flags: HW
VStem: 294.133 40<-111 111>
LayerCount: 2
Fore
SplineSet
334.134 -180 m 2
 334.134 -192 333.134 -193 324.134 -188 c 2
 4.13379 -3 l 2
 -0.866211 0 -1.86621 1 4.13379 4 c 2
 325.134 189 l 2
 333.134 193 334.134 192 334.134 183 c 2
 334.134 -180 l 2
294.134 92 m 2
 294.134 104 277.134 115 267.134 109 c 2
 110.134 18 l 2
 101.134 12 97.1338 -11 108.134 -18 c 2
 267.134 -109 l 2
 280.134 -116 294.134 -102 294.134 -88 c 2
 294.134 92 l 2
EndSplineSet
EndChar

StartChar: uni0267
Encoding: 615 615 190
Width: 334
VWidth: 0
Flags: HW
VStem: 294.133 40<-111 111>
LayerCount: 2
Fore
SplineSet
334.134 -180 m 2
 334.134 -192 333.134 -193 324.134 -188 c 2
 4.13379 -3 l 2
 -0.866211 0 -1.86621 1 4.13379 4 c 2
 325.134 189 l 2
 333.134 193 334.134 192 334.134 183 c 2
 334.134 -180 l 2
EndSplineSet
EndChar

StartChar: Ydieresis
Encoding: 376 376 191
Width: 326
Flags: W
VStem: 300 26<123.911 444.688 602.26 653.583 804.95 850> 542 33<78.4353 293.641 385.735 528.197>
LayerCount: 2
Fore
SplineSet
95 101 m 0
 130 125 178 141 221 141 c 0
 246 141 269 136 287 124 c 0
 291 122 300 126 300 129 c 2
 300 850 l 1
 327 850 l 1
 327 802 363 763 426 713 c 0
 505 650 575 564 575 446 c 0
 575 401 564 365 552 341 c 1
 567 299 575 251 575 195 c 0
 575 108 544 19 527 -11 c 1
 498 0 l 1
 514 37 542 109 542 196 c 0
 542 318 471 445 342 445 c 0
 333 445 326 438 326 432 c 2
 326 49 l 1
 325 -7 280 -68 231 -101 c 0
 196 -125 148 -141 105 -141 c 0
 68 -141 34 -130 15 -100 c 1
 4 -85 0 -68 0 -50 c 0
 0 6 46 68 95 101 c 0
327 642 m 0
 327 602 368 553 426 508 c 0
 472 472 508 432 533 385 c 1
 538 403 542 424 542 447 c 0
 542 520 507 594 421 635 c 0
 398 646 368 654 343 654 c 0
 334 654 327 648 327 642 c 0
EndSplineSet
EndChar

StartChar: Zacute
Encoding: 377 377 192
Width: 326
Flags: W
VStem: 0 27<-850 -802.878 -653.793 -600.177 -444.92 -123.911> 242 33<-528.197 -385.735 -293.641 -102.041>
LayerCount: 2
Fore
SplineSet
231 -101 m 1
 196 -125 148 -141 105 -141 c 0
 80 -141 57 -136 39 -124 c 0
 35 -122 26 -126 26 -129 c 2
 26 -432 l 2
 26 -438 33 -445 42 -445 c 0
 171 -445 242 -318 242 -196 c 0
 242 -161 238 -129 231 -101 c 1
27 -642 m 0
 27 -648 34 -654 43 -654 c 0
 68 -654 98 -646 121 -635 c 0
 207 -594 242 -520 242 -447 c 0
 242 -424 238 -403 233 -385 c 1
 208 -432 172 -472 126 -508 c 0
 68 -553 27 -602 27 -642 c 0
0 -850 m 1
 0 -49 l 1
 1 7 46 68 95 101 c 0
 130 125 178 141 221 141 c 0
 258 141 292 130 311 100 c 1
 322 85 326 68 326 50 c 0
 326 5 296 -44 259 -78 c 1
 268 -113 275 -154 275 -195 c 0
 275 -251 267 -299 252 -341 c 1
 264 -365 275 -401 275 -446 c 0
 275 -564 205 -650 126 -713 c 0
 63 -763 27 -802 27 -850 c 1
 0 -850 l 1
EndSplineSet
EndChar

StartChar: uni0198
Encoding: 408 408 193
Width: 202
Flags: HW
HStem: -95 190<59.623 143.943>
VStem: 178 24<90.7285 575>
LayerCount: 2
Fore
SplineSet
0 -26 m 0
 0 37 62 95 129 95 c 0
 140 95 151 93 161 89 c 0
 166 86 178 91 178 96 c 2
 178 575 l 1
 202 575 l 1
 202 27 l 2
 202 -37 141 -95 74 -95 c 0
 35 -95 0 -68 0 -26 c 0
EndSplineSet
EndChar

StartChar: uni0199
Encoding: 409 409 194
Width: 202
Flags: HW
HStem: -95 190<58 142>
VStem: 0 24<-575 -91>
LayerCount: 2
Fore
SplineSet
202 26 m 0
 202 -37 140 -95 73 -95 c 0
 62 -95 51 -93 41 -89 c 0
 36 -86 24 -91 24 -96 c 2
 24 -575 l 1
 0 -575 l 1
 0 -27 l 2
 0 37 61 95 128 95 c 0
 167 95 202 68 202 26 c 0
EndSplineSet
EndChar

StartChar: uni019A
Encoding: 410 410 195
Width: 202
Flags: W
HStem: -95 190<59.623 143.943>
VStem: 175 27<94.8786 235.002 291.998 393.816 523.258 601.978> 347 30<104.381 282.073>
LayerCount: 2
Fore
SplineSet
0 -26 m 0
 0 37 62 95 129 95 c 0
 135 95 146 94 152 94 c 0
 165 94 175 97 175 116 c 0
 175 219 l 0
 175 237 170 241 153 235 c 0
 74 206 l 0
 62 201 59 203 55 214 c 0
 51 227 51 229 62 233 c 0
 154 266 l 0
 170 272 175 278 175 294 c 0
 175 589 l 0
 175 600 178 602 187 602 c 0
 201 602 202 599 204 568 c 0
 209 488 287 446 336 359 c 0
 345 344 349 337 368 344 c 0
 433 368 l 0
 444 372 446 370 450 359 c 0
 455 346 455 344 443 340 c 0
 380 317 l 0
 365 312 361 306 365 291 c 0
 372 264 377 232 377 196 c 0
 377 149 358 82 344 51 c 0
 336 36 312 41 320 62 c 0
 338 112 347 148 347 196 c 0
 347 229 342 258 333 282 c 0
 328 295 320 295 303 289 c 0
 224 261 l 0
 208 255 202 245 202 230 c 0
 202 27 l 0
 202 -37 141 -95 74 -95 c 0
 35 -95 0 -68 0 -26 c 0
223 292 m 0
 289 316 l 0
 306 322 310 328 297 344 c 0
 287 355 277 365 266 374 c 0
 252 385 232 394 218 394 c 0
 205 394 202 384 202 363 c 0
 202 307 l 0
 202 292 207 286 223 292 c 0
EndSplineSet
EndChar

StartChar: uni019B
Encoding: 411 411 196
Width: 202
Flags: HW
LayerCount: 2
Fore
SplineSet
461 366 m 5
 469 343 l 5
 71 198 l 5
 63 221 l 5
 461 366 l 5
EndSplineSet
EndChar

StartChar: uni02A5
Encoding: 677 677 197
Width: 370
Flags: W
LayerCount: 2
Fore
SplineSet
370 -149 m 0
 370 -158 365 -159 359 -159 c 0
 321 -159 272 -87 185 -87 c 0
 101 -87 36 -159 7 -159 c 0
 1 -159 0 -157 0 -149 c 0
 0 -128 34 -91 104 31 c 0
 162 132 166 185 185 185 c 0
 204 185 208 136 270 29 c 0
 336 -81 370 -124 370 -149 c 0
EndSplineSet
EndChar

StartChar: uni02A6
Encoding: 678 678 198
Width: 370
Flags: W
HStem: 139 20G<8 30 348.5 366>
LayerCount: 2
Fore
SplineSet
0 149 m 0
 0 158 5 159 11 159 c 0
 49 159 98 87 185 87 c 0
 269 87 334 159 363 159 c 0
 369 159 370 157 370 149 c 0
 370 128 336 91 266 -31 c 0
 208 -132 204 -185 185 -185 c 0
 166 -185 162 -136 100 -29 c 0
 34 81 0 124 0 149 c 0
EndSplineSet
EndChar

StartChar: uni02A8
Encoding: 680 680 199
Width: 210
Flags: W
HStem: -27 55<76.8125 133.219> 85 20G<13.5 18 192.5 196>
VStem: 76 59<-26.375 27.25>
LayerCount: 2
Fore
SplineSet
194 105 m 0
 198 105 210 93 210 89 c 0
 210 86 208 83 203 78 c 2
 145 20 l 2
 139 14 135 7 135 0 c 0
 135 -7 138 -13 144 -19 c 2
 203 -78 l 2
 208 -83 210 -86 210 -89 c 0
 210 -94 199 -105 194 -105 c 0
 191 -105 188 -103 183 -98 c 2
 124 -39 l 2
 116 -31 111 -27 105 -27 c 0
 100 -27 95 -30 89 -36 c 2
 29 -96 l 2
 23 -102 19 -105 15 -105 c 0
 11 -105 0 -95 0 -90 c 0
 0 -86 3 -82 11 -74 c 2
 66 -18 l 2
 72 -11 76 -6 76 0 c 0
 76 5 73 11 66 18 c 2
 9 76 l 2
 2 83 0 86 0 90 c 0
 0 94 11 105 16 105 c 0
 20 105 24 101 31 94 c 2
 84 41 l 2
 93 32 100 28 106 28 c 0
 112 28 117 32 124 39 c 2
 183 98 l 2
 188 103 191 105 194 105 c 0
EndSplineSet
EndChar

StartChar: lcaron
Encoding: 318 318 200
Width: 124
Flags: HW
HStem: -61 122<15.2003 108.463>
VStem: 0 124<-46.5665 46.2296>
LayerCount: 2
Fore
SplineSet
0 0 m 0
 0 34 28 61 62 61 c 0
 95 61 124 34 124 0 c 0
 124 -35 95 -61 62 -61 c 0
 28 -61 0 -35 0 0 c 0
EndSplineSet
EndChar

StartChar: ohorn
Encoding: 417 417 201
Width: 202
Flags: W
HStem: -95 190<58.0566 143.887>
VStem: 0 24<-575 -523.761 -396.996 -90.7285> 174 30<-287.017 -105.653>
LayerCount: 2
Fore
SplineSet
35 -397 m 0
 57 -397 73 -390 93 -376 c 0
 134 -347 174 -286 174 -205 c 0
 174 -154 162 -107 147 -71 c 1
 125 -86 100 -95 73 -95 c 0
 62 -95 51 -93 41 -89 c 0
 36 -86 24 -91 24 -96 c 2
 24 -388 l 2
 24 -392 29 -397 35 -397 c 0
0 -575 m 1
 0 -27 l 2
 0 37 61 95 128 95 c 0
 167 95 202 68 202 26 c 0
 202 -3 189 -30 169 -52 c 1
 183 -81 204 -141 204 -204 c 0
 204 -354 101 -432 51 -496 c 0
 36 -515 25 -549 25 -575 c 1
 0 -575 l 1
EndSplineSet
EndChar

StartChar: afii10082
Encoding: 1088 1088 202
Width: 271
VWidth: 1372
Flags: W
HStem: -171 71<78.5 194.811> 430 20G<24 63.6962>
VStem: 0 93<-269.439 -170>
LayerCount: 2
Fore
SplineSet
179 -171 m 0
 136 -171 93 -206 93 -257 c 0
 93 -298 123 -336 165 -362 c 1
 150 -383 l 1
 43 -324 0 -254 0 -198 c 0
 0 -142 44 -100 113 -100 c 0
 128 -100 143 -102 160 -106 c 1
 91 -33 27 51 27 51 c 1
 76 159 l 2
 95 201 107 238 107 273 c 0
 107 307 96 340 68 375 c 2
 24 430 l 1
 48 450 l 1
 234 213 l 1
 219 177 l 2
 189 104 165 48 165 -4 c 0
 165 -52 185 -97 236 -149 c 2
 271 -185 l 1
 255 -203 l 1
 234 -182 206 -171 179 -171 c 0
EndSplineSet
EndChar

StartChar: afii10085
Encoding: 1091 1091 203
Width: 271
VWidth: 1372
Flags: HW
HStem: -173 71<78.5 195.432>
VStem: 0 93<-271.439 -172>
LayerCount: 2
Back
SplineSet
179 -173 m 4
 136 -173 93 -208 93 -259 c 4
 93 -300 123 -338 165 -364 c 5
 150 -385 l 5
 43 -326 0 -256 0 -200 c 4
 0 -144 44 -102 113 -102 c 4
 128 -102 143 -104 160 -108 c 5
 91 -35 31 44 31 44 c 5
 49 80 l 6
 89 160 128 298 50 396 c 6
 24 428 l 5
 48 448 l 5
 230 216 l 5
 213 180 l 6
 165 78 135 -48 236 -151 c 6
 271 -187 l 5
 255 -205 l 5
 234 -184 206 -173 179 -173 c 4
EndSplineSet
Fore
SplineSet
179 -173 m 0
 136 -173 93 -208 93 -259 c 0
 93 -300 123 -338 165 -364 c 1
 150 -385 l 1
 43 -326 0 -256 0 -200 c 0
 0 -144 44 -102 113 -102 c 0
 118 -102 122 -102 127 -103 c 0
 133 -103 142 -88 136 -82 c 0
 78 -17 31 44 31 44 c 1
 49 80 l 2
 89 160 128 298 50 396 c 2
 24 428 l 1
 48 448 l 1
 230 216 l 1
 213 180 l 2
 165 78 135 -48 236 -151 c 2
 271 -187 l 1
 255 -205 l 1
 234 -184 206 -173 179 -173 c 0
EndSplineSet
EndChar

StartChar: uni0207
Encoding: 519 519 204
Width: 357
Flags: W
LayerCount: 2
Back
SplineSet
204 -89 m 5
 288 -19 l 5
 288 -19 262 -3 216 36 c 4
 186 61 160 88 160 88 c 5
 76 18 l 5
 76 18 102 2 148 -37 c 4
 178 -62 204 -89 204 -89 c 5
0 -6 m 5
 189 153 l 5
 189 153 239 101 270 75 c 4
 316 37 364 6 364 6 c 5
 175 -153 l 5
 175 -153 133 -107 102 -81 c 4
 56 -43 0 -6 0 -6 c 5
EndSplineSet
Fore
SplineSet
212.5 -80 m 2
 273.5 -29 l 2
 278.5 -25 273.5 -11 269.5 -8 c 0
 257.5 0 238.5 15 213.5 36 c 0
 195.5 51 178.5 67 168.5 77 c 0
 163.5 82 152.5 84 146.5 79 c 2
 83.5 27 l 2
 80.5 24 81.5 13 84.5 11 c 0
 95.5 2 116.5 -13 145.5 -37 c 0
 163.5 -52 181.5 -68 191.5 -79 c 0
 197.5 -84 207.5 -84 212.5 -80 c 2
4.5 0 m 2
 186.5 153 l 1
 186.5 153 236.5 101 267.5 75 c 0
 301.5 47 337.5 22 353.5 11 c 0
 359.5 7 358.5 3 353.5 -1 c 2
 172.5 -153 l 1
 172.5 -153 130.5 -107 99.5 -81 c 0
 63.5 -51 21.5 -22 4.5 -11 c 0
 -1.5 -7 -1.5 -5 4.5 0 c 2
EndSplineSet
EndChar

StartChar: uni0206
Encoding: 518 518 205
Width: 372
Flags: W
LayerCount: 2
Back
SplineSet
208 -89 m 5
 292 -19 l 5
 292 -19 266 -3 220 36 c 4
 190 61 164 88 164 88 c 5
 80 18 l 5
 80 18 106 2 152 -37 c 4
 182 -62 208 -89 208 -89 c 5
0 -3 m 5
 189 156 l 5
 189 156 239 104 270 78 c 4
 316 40 372 3 372 3 c 5
 183 -156 l 5
 183 -156 133 -104 102 -78 c 4
 56 -40 0 -3 0 -3 c 5
46 -121 m 1
 375 156 l 1025
166 90 m 1
 78 16 l 1
 206 -91 l 1
 294 -17 l 1
 166 90 l 1
189 156 m 1
 372 3 l 1
 182 -156 l 1
 0 -3 l 1
 189 156 l 1
-183 79 m 1
 57.5371 -122.836 l 1
 15.7559 -172.629 l 1
 -224.781 29.207 l 1
 -183 79 l 1
-14.3184 170.207 m 1
 226.219 -31.6289 l 1
 184.438 -81.4219 l 1
 -56.0996 120.414 l 1
 -14.3184 170.207 l 1
-77.9648 -173.551 m 1
 229.219 84.207 l 1
 251.717 57.3955 l 1
 -55.4668 -200.363 l 1
 -77.9648 -173.551 l 1
-256.463 -61.5508 m 1
 50.7207 196.207 l 1
 73.2188 169.396 l 1
 -233.965 -88.3633 l 1
 -256.463 -61.5508 l 1
EndSplineSet
Fore
SplineSet
219 -80 m 2
 272 -36 l 2
 280 -29 277 -9 272 -5 c 0
 259 4 242 17 220 36 c 0
 201 52 183 69 173 79 c 0
 170 82 158 83 154 79 c 2
 98 33 l 2
 91 28 92 10 97 7 c 0
 109 -2 128 -16 152 -37 c 0
 169 -51 185 -66 196 -76 c 0
 201 -82 214 -84 219 -80 c 2
9 4 m 2
 189 156 l 1
 189 156 239 104 270 78 c 0
 307 47 350 18 366 7 c 0
 371 3 370 2 368 -1 c 2
 183 -156 l 1
 183 -156 133 -104 102 -78 c 0
 67 -49 26 -19 8 -9 c 0
 2 -4 2 -1 9 4 c 2
EndSplineSet
EndChar

StartChar: uni0450
Encoding: 1104 1104 206
Width: 276
VWidth: 1372
Flags: W
HStem: 51 149<21.453 114.284> 88.25 20G<202.5 214.163>
VStem: 0 136<85.886 179.137> 110 56<-254 -231>
LayerCount: 2
Back
SplineSet
0 125 m 4
 0 166 30 199 68 199 c 4
 106 199 136 166 136 125 c 4
 136 84 106 51 68 51 c 4
 30 51 0 84 0 125 c 4
166 -254 m 25xa0
 276 182 l 25
 254 187 l 25
 234 165 225 149 202 130 c 24
 181 112 153 94 142 94 c 0
 136 94 132 98 132 104 c 0
 132 111 136 117 136 126 c 0
 136 162 110 200 72 200 c 24
 32 200 0 166 0 126 c 24xc0
 0 85 32 51 72 51 c 0
 116 51 144 64 180 82 c 0
 201 92 213 85 204 55 c 10
 110 -254 l 25
 166 -254 l 25xa0
EndSplineSet
Fore
SplineSet
125 85 m 1x50
 131 96 136 108 136 126 c 0
 136 167 106 200 68 200 c 0
 30 200 0 166 0 125 c 0
 0 79 35 51 77 51 c 0xa0
 130 51 184.75 84.5 220.25 108.25 c 9
 110 -254 l 25
 166 -254 l 25
 276 182 l 25
 262 185 l 17
 223 139 171 96 125 85 c 1x50
EndSplineSet
EndChar

StartChar: afii10105
Encoding: 1112 1112 207
Width: 276
VWidth: 1372
Flags: W
HStem: 51 149<21.453 114.451> 165 20G<242.5 276>
VStem: 0 136<85.886 179.137> 110 56<-254 -231.009>
LayerCount: 2
Back
SplineSet
125 85 m 5x50
 131 96 136 108 136 126 c 4
 136 167 106 200 68 200 c 4
 30 200 0 166 0 125 c 4
 0 79 35 51 77 51 c 4xa0
 130 51 184.75 84.5 220.25 108.25 c 13
 110 -254 l 25
 166 -254 l 25
 276 182 l 29
 262 185 l 21
 223 139 171 96 125 85 c 5x50
EndSplineSet
Fore
SplineSet
221 109 m 17x60
 186 85 130 51 77 51 c 0
 35 51 0 79 0 125 c 0
 0 166 30 200 68 200 c 0xa0
 106 200 136 167 136 126 c 0
 136 108 131 96 125 85 c 1
 171 96 223 139 262 185 c 9
 276 182 l 25
 221 109 l 17x60
226 127 m 25
 276 182 l 25
 166 -254 l 25
 110 -254 l 25x10
 226 127 l 25
EndSplineSet
EndChar

StartChar: afii10106
Encoding: 1113 1113 208
Width: 276
VWidth: 1372
Flags: W
HStem: 51 149<21.453 114.729> 162 20G<242.5 276 334.702 349.33>
VStem: 0 136<85.886 179.137> 140 56<-254 -222.988>
LayerCount: 2
Back
SplineSet
221 109 m 21x70
 186 85 130 51 77 51 c 4
 35 51 0 79 0 125 c 4
 0 166 30 200 68 200 c 4xb0
 106 200 136 167 136 126 c 4
 136 108 131 96 125 85 c 5
 171 96 223 139 262 185 c 13
 276 182 l 29
 221 109 l 21x70
EndSplineSet
Fore
SplineSet
353 182 m 13x70
 273 -254 l 29
 239 -254 l 21
 310 135 l 5
 353 182 l 13x70
223 110 m 21
 188 86 130 51 77 51 c 4
 35 51 0 79 0 125 c 4
 0 166 30 200 68 200 c 4xb0
 106 200 136 167 136 126 c 4
 136 108 131 96 125 85 c 5
 171 96 223 139 262 185 c 13
 276 182 l 29
 223 110 l 21
226 127 m 29
 276 182 l 29x70
 196 -254 l 29
 140 -254 l 29
 226 127 l 29
EndSplineSet
EndChar

StartChar: afii10107
Encoding: 1114 1114 209
Width: 276
VWidth: 1372
Flags: HW
LayerCount: 2
Back
SplineSet
226 127 m 29
 276 182 l 29
 196 -254 l 29
 140 -254 l 29
 226 127 l 29
EndSplineSet
Fore
SplineSet
368 682 m 9x40
 311 372 l 25
 274 370 l 17
 328 634 l 1
 368 682 l 9x40
326 619 m 17
 285 587 222 551 169 551 c 0
 127 551 92 579 92 625 c 0
 92 666 122 700 160 700 c 0
 198 700 228 667 228 626 c 0x14
 228 608 223 596 217 585 c 1
 263 596 315 639 354 685 c 9
 368 682 l 25
 326 619 l 17
322 432 m 9x40
 261 100.5 l 25
 224.5 100.5 l 17
 282.5 384.5 l 1
 322 432 l 9x40
280.5 369 m 17
 239.25 337 176 301 123 301 c 0
 81 301 46 329 46 375 c 0
 46 416 76 450 114 450 c 0
 152 450 182 417 182 376 c 0x14
 182 358 177 346 171 335 c 1
 217 346 269 389 308 435 c 9
 322 432 l 25
 280.5 369 l 17
EndSplineSet
EndChar

StartChar: uni0460
Encoding: 1120 1120 210
Width: 322
VWidth: 1372
Flags: HW
HStem: 51 149<21.453 114.59> 301 149<67.453 161.102> 415 20G<288.5 322>
VStem: 0 136<85.886 179.137> 46 136<335.886 429.137> 140 56<-254 -223.012>
LayerCount: 2
Back
SplineSet
269 360 m 21
 234 336 176 301 123 301 c 4
 81 301 46 329 46 375 c 4
 46 416 76 450 114 450 c 4xb0
 152 450 182 417 182 376 c 4
 182 358 177 346 171 335 c 5
 217 346 269 389 308 435 c 13
 322 432 l 29
 269 360 l 21
223 110 m 17
 188 86 130 51 77 51 c 0
 35 51 0 79 0 125 c 0
 0 166 30 200 68 200 c 0xb0
 106 200 136 167 136 126 c 0
 136 108 131 96 125 85 c 1
 171 96 223 139 262 185 c 9
 276 182 l 25
 223 110 l 17
226 127 m 25
 276 182 l 25x70
 196 -254 l 25
 140 -254 l 25
 226 127 l 25
EndSplineSet
Fore
SplineSet
235.997 156.796 m 1xb4
 279.116 367.931 l 1
 237.845 336.204 175.411 301 123 301 c 0
 81 301 46 329 46 375 c 0
 46 416 76 450 114 450 c 0
 152 450 182 417 182 376 c 0xc8
 182 358 177 346 171 335 c 1
 217 346 269 389 308 435 c 1
 322 432 l 1
 196 -254 l 1
 140 -254 l 1
 222 109 l 1
 187 85 130 51 77 51 c 0
 35 51 0 79 0 125 c 0
 0 166 30 200 68 200 c 0
 106 200 136 167 136 126 c 0
 136 108 131 96 125 85 c 1
 161.379 93.6993 201.511 122.413 235.997 156.796 c 1xb4
EndSplineSet
EndChar

StartChar: uni0461
Encoding: 1121 1121 211
Width: 368
VWidth: 1372
Flags: W
HStem: -199 149<21.453 114.59> 51 149<67.453 160.95> 301 149<113.453 206.95> 415 20G<334.5 368>
VStem: 0 136<-164.114 -70.8628> 46 136<85.886 179.137> 92 136<335.886 429.137> 140 56<-504 -473.012>
LayerCount: 2
Back
SplineSet
368 682 m 13x40
 307 350 l 29
 270 350 l 21
 328 634 l 5
 368 682 l 13x40
326 619 m 21
 285 587 222 551 169 551 c 4
 127 551 92 579 92 625 c 4
 92 666 122 700 160 700 c 4
 198 700 228 667 228 626 c 4x14
 228 608 223 596 217 585 c 5
 263 596 315 639 354 685 c 13
 368 682 l 29
 326 619 l 21
EndSplineSet
Fore
SplineSet
236 -93 m 1xd9
 279 118 l 1
 238 86 175 51 123 51 c 0
 81 51 46 79 46 125 c 0
 46 166 76 200 114 200 c 0
 152 200 182 167 182 126 c 0xd4
 182 108 177 96 171 85 c 1
 207 94 247 122 281 156 c 1
 325 368 l 1
 284 336 221 301 169 301 c 0
 127 301 92 329 92 375 c 0
 92 416 122 450 160 450 c 0
 198 450 228 417 228 376 c 0xe2
 228 358 223 346 217 335 c 1
 263 346 315 389 354 435 c 1
 368 432 l 1
 196 -504 l 1
 140 -504 l 1
 222 -141 l 1
 187 -165 130 -199 77 -199 c 0
 35 -199 0 -171 0 -125 c 0
 0 -84 30 -50 68 -50 c 0
 106 -50 136 -83 136 -124 c 0
 136 -142 131 -154 125 -165 c 1
 161 -156 202 -127 236 -93 c 1xd9
EndSplineSet
EndChar

StartChar: afii10146
Encoding: 1122 1122 212
Width: 414
VWidth: 1372
Flags: W
HStem: -449 149<21.453 114.59> -199 149<67.453 160.95> 51 149<113.453 206.95> 301 149<159.453 252.95> 415 20G<380.5 414>
VStem: 0 136<-414.114 -320.863> 46 136<-164.114 -70.8628> 92 136<85.886 179.137> 138 136<335.886 429.137> 140 56<-754 -723.012>
LayerCount: 2
Fore
SplineSet
236 -343 m 1xec40
 279 -132 l 1
 238 -164 175 -199 123 -199 c 0
 81 -199 46 -171 46 -125 c 0
 46 -84 76 -50 114 -50 c 0
 152 -50 182 -83 182 -124 c 0xea
 182 -142 177 -154 171 -165 c 1
 207 -156 247 -128 281 -94 c 1
 325 118 l 1
 284 86 221 51 169 51 c 0
 127 51 92 79 92 125 c 0
 92 166 122 200 160 200 c 0
 198 200 228 167 228 126 c 0xe9
 228 108 223 96 217 85 c 1
 253 94 293 122 327 156 c 1
 371 368 l 1
 330 336 267 301 215 301 c 0
 173 301 138 329 138 375 c 0
 138 416 168 450 206 450 c 0
 244 450 274 417 274 376 c 0xf080
 274 358 269 346 263 335 c 1
 309 346 361 389 400 435 c 1
 414 432 l 1
 196 -754 l 1
 140 -754 l 1
 222 -391 l 1
 187 -415 130 -449 77 -449 c 0
 35 -449 0 -421 0 -375 c 0
 0 -334 30 -300 68 -300 c 0
 106 -300 136 -333 136 -374 c 0
 136 -392 131 -404 125 -415 c 1
 161 -406 202 -377 236 -343 c 1xec40
EndSplineSet
EndChar

StartChar: afii10194
Encoding: 1123 1123 213
Width: 460
VWidth: 1372
Flags: W
HStem: -699 149<21.453 114.59> -449 149<67.453 160.95> -199 149<113.453 206.95> 51 149<159.453 252.95> 301 149<205.453 298.95> 415 20G<426.5 460>
VStem: 0 136<-664.114 -570.863> 46 136<-414.114 -320.863> 92 136<-164.114 -70.8628> 138 136<85.886 179.137> 184 136<335.886 429.137>
LayerCount: 2
Fore
SplineSet
236 -593 m 1xf620
 279 -382 l 1
 238 -414 175 -449 123 -449 c 0
 81 -449 46 -421 46 -375 c 0
 46 -334 76 -300 114 -300 c 0
 152 -300 182 -333 182 -374 c 0xf5
 182 -392 177 -404 171 -415 c 1
 207 -406 247 -378 281 -344 c 1
 325 -132 l 1
 284 -164 221 -199 169 -199 c 0
 127 -199 92 -171 92 -125 c 0
 92 -84 122 -50 160 -50 c 0
 198 -50 228 -83 228 -124 c 0xf480
 228 -142 223 -154 217 -165 c 1
 253 -156 293 -128 327 -94 c 1
 371 118 l 1
 330 86 267 51 215 51 c 0
 173 51 138 79 138 125 c 0
 138 166 168 200 206 200 c 0
 244 200 274 167 274 126 c 0xf440
 274 108 269 96 263 85 c 1
 299 94 339 122 373 156 c 1
 417 368 l 1
 376 336 313 301 261 301 c 0
 219 301 184 329 184 375 c 0
 184 416 214 450 252 450 c 0xf820
 290 450 320 417 320 376 c 0
 320 358 315 346 309 335 c 1
 355 346 407 389 446 435 c 1
 460 432 l 1
 196 -1004 l 1
 140 -1004 l 1
 222 -641 l 1
 187 -665 130 -699 77 -699 c 0
 35 -699 0 -671 0 -625 c 0
 0 -584 30 -550 68 -550 c 0
 106 -550 136 -583 136 -624 c 0
 136 -642 131 -654 125 -665 c 1
 161 -656 202 -627 236 -593 c 1xf620
EndSplineSet
EndChar

StartChar: afii10090
Encoding: 1096 1096 214
Width: 350
VWidth: 0
Flags: HW
HStem: 104 147<3.0001e-008 349.999> 238 13<-15 -3.42773 353.428 365>
LayerCount: 2
Fore
SplineSet
0 104 m 17x80
 0 104 0 209 0 223 c 0
 0 232 -10 238 -15 238 c 1
 -15 251 l 9
 365 251 l 17
 365 238 l 1x40
 360 238 350 232 350 223 c 0
 350 104 l 9
 0 104 l 17x80
EndSplineSet
EndChar

StartChar: afii10091
Encoding: 1097 1097 215
Width: 324
VWidth: 0
Flags: HW
HStem: 0 147<3.0001e-008 323.999> 0 13<-15 -3.42773 327.428 339>
LayerCount: 2
Fore
SplineSet
0 147 m 9x80
 324 147 l 17
 324 147 324 42.5816 324 28 c 0
 324 19 334 13 339 13 c 1x40
 339 0 l 9
 -15 0 l 17
 -15 13 l 1
 -10 13 0 19 0 28 c 0
 0 147 l 9x80
EndSplineSet
EndChar

StartChar: afii10092
Encoding: 1098 1098 216
Width: 160
VWidth: 0
Flags: W
HStem: 0 13<-15 -3.42773 163.428 175> 238 13<-15 -3.42773 163.428 175>
VStem: 0 160<13.0044 237.996>
LayerCount: 2
Fore
SplineSet
160 28 m 2
 160 19 170 13 175 13 c 1
 175 0 l 9
 -15 0 l 17
 -15 13 l 1
 -10 13 0 19 0 28 c 2
 0 223 l 2
 0 232 -10 238 -15 238 c 1
 -15 251 l 9
 175 251 l 17
 175 238 l 1
 170 238 160 232 160 223 c 2
 160 28 l 2
EndSplineSet
EndChar

StartChar: afii10109
Encoding: 1116 1116 217
Width: 276
VWidth: 1372
Flags: HW
HStem: 44 163<25.6828 125.658> 165 20G<253.936 283>
VStem: 0 150<89.4754 181.988> 109 64<-254 -231.009>
LayerCount: 2
Back
SplineSet
221 109 m 21x60
 186 85 130 51 77 51 c 4
 35 51 0 79 0 125 c 4
 0 166 30 200 68 200 c 4xa0
 106 200 136 167 136 126 c 4
 136 108 131 96 125 85 c 5
 171 96 223 139 262 185 c 13
 276 182 l 29
 221 109 l 21x60
226 127 m 29
 276 182 l 29
 166 -254 l 29
 110 -254 l 29x10
 226 127 l 29
EndSplineSet
Fore
SplineSet
276 182 m 1
 167 -250 l 2
 166 -254 166 -254 162 -254 c 2
 114 -254 l 2
 110 -254 110 -254 111 -251 c 2
 211 77 l 2
 213 84 200 95 191 90 c 0
 158 70 117 51 77 51 c 0
 35 51 0 79 0 125 c 0
 0 166 30 200 68 200 c 0
 106 200 136 172 136 131 c 0
 136 124 135 117 135 112 c 0
 135 105 141 97 152 97 c 0
 155 97 159 98 161 99 c 0
 197 118 233 151 262 185 c 1
 276 182 l 1
EndSplineSet
EndChar

StartChar: uni045D
Encoding: 1117 1117 218
Width: 276
VWidth: 1372
Flags: HW
HStem: 100 21G<224 264.675> 301 46<102 205.753> 415 20G<293.5 322>
VStem: 46 136<347.501 429.137>
LayerCount: 2
Back
SplineSet
278.736 368.018 m 5
 237.713 336.268 175.458 301 123 301 c 0
 81 301 46 329 46 375 c 0
 46 416 76 450 114 450 c 0
 152 450 182 422 182 381 c 0
 182 374 181 367 181 362 c 0
 181 355 187 347 198 347 c 0
 201 347 205 348 207 349 c 0
 243 368 279 401 308 435 c 1
 322 432 l 5
 261 100 l 5
 224 100 l 5
 278.736 368.018 l 5
EndSplineSet
Fore
SplineSet
252 349 m 0
 213 323 165 301 123 301 c 0
 81 301 46 329 46 375 c 0
 46 416 76 450 114 450 c 0
 152 450 182 422 182 381 c 0
 182 374 181 367 181 362 c 0
 181 355 187 347 198 347 c 0
 201 347 205 348 207 349 c 0
 243 368 279 401 308 435 c 1
 322 432 l 1
 261 100 l 1
 224 100 l 1
 273 340 l 2
 274 347 260 354 252 349 c 0
EndSplineSet
EndChar

StartChar: uni0464
Encoding: 1124 1124 219
Width: 322
VWidth: 1372
Flags: HW
HStem: 301 46<102 205.753> 415 20G<293.5 322>
VStem: 0 136<97.5012 179.137> 46 136<347.501 429.137> 140 56<-254 -222.92>
LayerCount: 2
Fore
SplineSet
252 349 m 0xe8
 213 323 165 301 123 301 c 0
 81 301 46 329 46 375 c 0
 46 416 76 450 114 450 c 0
 152 450 182 422 182 381 c 0xd0
 182 374 181 367 181 362 c 0
 181 355 187 347 198 347 c 0
 201 347 205 348 207 349 c 0
 243 368 279 401 308 435 c 1
 322 432 l 1
 310.677 370.405 196 -254 196 -254 c 9
 140 -254 l 17
 140 -254 141.949 -245.781 215 79 c 0
 217 89 201 96 195 92 c 0
 161 72 116 51 77 51 c 0
 35 51 0 79 0 125 c 0
 0 166 30 200 68 200 c 0
 106 200 136 172 136 131 c 0
 136 124 135 117 135 112 c 0
 135 105 141 97 152 97 c 0
 155 97 159 98 161 99 c 0
 172 105 183 112 194 120 c 0
 227 145 241 181 253 242 c 2
 273 340 l 2
 274 347 260 354 252 349 c 0xe8
EndSplineSet
EndChar

StartChar: uni0465
Encoding: 1125 1125 220
Width: 368
VWidth: 1372
Flags: W
HStem: 51 46<102 205.753> 301 46<148 251.753> 415 20G<339.5 368>
VStem: 0 136<-152.499 -70.8628> 46 136<97.5012 179.137> 92 136<347.501 429.137>
LayerCount: 2
Fore
SplineSet
252 99 m 0xf0
 213 73 165 51 123 51 c 0
 81 51 46 79 46 125 c 0
 46 166 76 200 114 200 c 0
 152 200 182 172 182 131 c 0xe8
 182 124 181 117 181 112 c 0
 181 105 187 97 198 97 c 0
 201 97 205 98 207 99 c 0
 217 104 227 110 236 118 c 0
 270 142 286 177 298 238 c 2
 319 340 l 2
 320 347 306 354 298 349 c 0
 259 323 211 301 169 301 c 0
 127 301 92 329 92 375 c 0
 92 416 122 450 160 450 c 0
 198 450 228 422 228 381 c 0xe4
 228 374 227 367 227 362 c 0
 227 355 233 347 244 347 c 0
 247 347 251 348 253 349 c 0
 289 368 325 401 354 435 c 1
 368 432 l 1
 353 349 196 -504 196 -504 c 9
 140 -504 l 17
 140 -504 142 -496 215 -171 c 0
 217 -161 201 -154 195 -158 c 0
 161 -178 116 -199 77 -199 c 0
 35 -199 0 -171 0 -125 c 0
 0 -84 30 -50 68 -50 c 0
 106 -50 136 -78 136 -119 c 0
 136 -126 135 -133 135 -138 c 0
 135 -145 141 -153 152 -153 c 0
 155 -153 159 -152 161 -151 c 0
 172 -145 183 -138 194 -130 c 0
 227 -105 241 -69 253 -8 c 2
 273 90 l 2
 274 97 260 104 252 99 c 0xf0
EndSplineSet
EndChar

StartChar: uni0466
Encoding: 1126 1126 221
Width: 414
VWidth: 1372
Flags: W
HStem: -199 46<102 205.753> 51 46<148 251.753> 301 46<194 297.753> 415 20G<385.5 414>
VStem: 0 136<-402.499 -320.863> 46 136<-152.499 -70.8628> 92 136<97.5012 179.137> 138 136<347.501 429.137> 140 56<-754 -722.92>
LayerCount: 2
Fore
SplineSet
252 -151 m 0xf880
 213 -177 165 -199 123 -199 c 0
 81 -199 46 -171 46 -125 c 0
 46 -84 76 -50 114 -50 c 0
 152 -50 182 -78 182 -119 c 0xf4
 182 -126 181 -133 181 -138 c 0
 181 -145 187 -153 198 -153 c 0
 201 -153 205 -152 207 -151 c 0
 217 -146 227 -140 236 -132 c 1
 270 -108 285 -73 298 -12 c 2
 319 90 l 2
 320 97 306 104 298 99 c 0
 259 73 211 51 169 51 c 0
 127 51 92 79 92 125 c 0
 92 166 122 200 160 200 c 0
 198 200 228 172 228 131 c 0xf2
 228 124 227 117 227 112 c 0
 227 105 233 97 244 97 c 0
 247 97 251 98 253 99 c 0
 262 104 272 110 281 116 c 0
 315 141 331 172 343 233 c 2
 365 340 l 2
 366 347 352 354 344 349 c 0
 305 323 257 301 215 301 c 0
 173 301 138 329 138 375 c 0
 138 416 168 450 206 450 c 0
 244 450 274 422 274 381 c 0xf1
 274 374 273 367 273 362 c 0
 273 355 279 347 290 347 c 0
 293 347 297 348 299 349 c 0
 335 368 371 401 400 435 c 1
 414 432 l 1
 196 -754 l 1
 140 -754 l 1
 215 -421 l 2
 217 -411 201 -404 195 -408 c 0
 161 -428 116 -449 77 -449 c 0
 35 -449 0 -421 0 -375 c 0
 0 -334 30 -300 68 -300 c 0
 106 -300 136 -328 136 -369 c 0
 136 -376 135 -383 135 -388 c 0
 135 -395 141 -403 152 -403 c 0
 155 -403 159 -402 161 -401 c 0
 172 -395 183 -388 194 -380 c 0
 227 -355 241 -319 253 -258 c 2
 273 -160 l 2
 274 -153 260 -146 252 -151 c 0xf880
EndSplineSet
EndChar

StartChar: uni0467
Encoding: 1127 1127 222
Width: 460
VWidth: 1372
Flags: HW
HStem: -449 46<102 205.753> -199 46<148 251.753> 51 46<194 297.753> 301 46<240 343.753> 415 20G<431.5 460>
VStem: 0 136<-652.499 -570.863> 46 136<-402.499 -320.863> 92 136<-152.499 -70.8628> 138 136<97.5012 179.137> 184 136<347.501 429.137>
LayerCount: 2
Fore
SplineSet
252 -401 m 0xfc40
 213 -427 165 -449 123 -449 c 0
 81 -449 46 -421 46 -375 c 0
 46 -334 76 -300 114 -300 c 0
 152 -300 182 -328 182 -369 c 0xfa
 182 -376 181 -383 181 -388 c 0
 181 -395 187 -403 198 -403 c 0
 201 -403 205 -402 207 -401 c 0
 217 -396 227 -390 236 -382 c 1
 270 -358 285 -323 298 -262 c 2
 319 -160 l 2
 320 -153 306 -146 298 -151 c 0
 259 -177 211 -199 169 -199 c 0
 127 -199 92 -171 92 -125 c 0
 92 -84 122 -50 160 -50 c 0
 198 -50 228 -78 228 -119 c 0xf9
 228 -126 227 -133 227 -138 c 0
 227 -145 233 -153 244 -153 c 0
 247 -153 251 -152 253 -151 c 0
 305 -122 327 -94 343 -17 c 2
 365 90 l 2
 366 97 352 104 344 99 c 0
 305 73 257 51 215 51 c 0
 173 51 138 79 138 125 c 0
 138 166 168 200 206 200 c 0
 244 200 274 172 274 131 c 0xf880
 274 124 273 117 273 112 c 0
 273 105 279 97 290 97 c 0
 293 97 297 98 299 99 c 0
 348 125 372 151 387 224 c 2
 411 340 l 2
 412 347 398 354 390 349 c 0
 351 323 303 301 261 301 c 0
 219 301 184 329 184 375 c 0
 184 416 214 450 252 450 c 0
 290 450 320 422 320 381 c 0
 320 374 319 367 319 362 c 0
 319 355 325 347 336 347 c 0
 339 347 343 348 345 349 c 0
 381 368 417 401 446 435 c 1
 460 432 l 1
 196 -1004 l 1
 140 -1004 l 1
 215 -671 l 2
 217 -661 201 -654 195 -658 c 0
 161 -678 116 -699 77 -699 c 0
 35 -699 0 -671 0 -625 c 0
 0 -584 30 -550 68 -550 c 0
 106 -550 136 -578 136 -619 c 0
 136 -626 135 -633 135 -638 c 0
 135 -645 141 -653 152 -653 c 0
 155 -653 159 -652 161 -651 c 0
 172 -645 183 -638 194 -630 c 0
 227 -605 241 -569 253 -508 c 2
 273 -410 l 2
 274 -403 260 -396 252 -401 c 0xfc40
EndSplineSet
EndChar

StartChar: afii10110
Encoding: 1118 1118 223
Width: 276
VWidth: 1372
Flags: W
HStem: 51 46<56 158.711> 165 20G<247.5 276 276.5 305> 301 46<85 187.538>
VStem: 0 136<97.5012 179.137> 29 136<347.501 429.137> 170 56<-254 -207.745>
LayerCount: 2
Back
SplineSet
249.6 333 m 2
 250.658 339.991 238.6 351 229.6 346 c 0
 197.6 325 145.6 301 105.6 301 c 0
 63.5996 301 28.5996 329 28.5996 375 c 0
 28.5996 416 58.5996 450 96.5996 450 c 0
 134.6 450 164.6 422 164.6 381 c 0
 164.6 374 163.6 367 163.6 362 c 0
 163.6 355 169.6 347 180.6 347 c 0
 183.6 347 187.6 348 189.6 349 c 0
 225.6 368 261.6 401 290.6 435 c 1
 304.6 432 l 1025
304.6 432 m 5
 254.6 -4 l 5
 220.6 -4 l 5
 263.6 385 l 5
 304.6 432 l 5
353 182 m 9x70
 303 -254 l 25
 269 -254 l 17
 312 135 l 1
 353 182 l 9x70
231.664 116.999 m 17
 196 89.3333 130 51 77 51 c 0
 35 51 0 79 0 125 c 0
 0 166 30 200 68 200 c 0xb0
 106 200 136 167 136 126 c 0
 136 108 131 96 125 85 c 1
 171 96 223 139 262 185 c 9
 276 182 l 25
 231.664 116.999 l 17
228 127 m 25
 276 182 l 25x70
 226 -254 l 25
 170 -254 l 25
 228 127 l 25
EndSplineSet
Fore
SplineSet
221 83 m 2xf4
 222 90 210 101 201 96 c 0
 169 75 117 51 77 51 c 0
 35 51 0 79 0 125 c 0
 0 166 30 200 68 200 c 0
 106 200 136 172 136 131 c 0
 136 124 135 117 135 112 c 0
 135 105 141 97 152 97 c 0
 155 97 159 98 161 99 c 0
 197 118 233 151 262 185 c 1
 276 182 l 1
 226 -254 l 1
 170 -254 l 1
 221 83 l 2xf4
305 432 m 1
 255 -4 l 1
 221 -4 l 1
 259 340 l 2
 260 348 248 357 240 352 c 0
 196 323 146 301 106 301 c 0
 64 301 29 329 29 375 c 0
 29 416 59 450 97 450 c 0
 135 450 165 422 165 381 c 0xec
 165 374 164 367 164 362 c 0
 164 355 170 347 181 347 c 0
 184 347 188 348 190 349 c 0
 226 368 262 401 291 435 c 1
 305 432 l 1
EndSplineSet
EndChar

StartChar: uni046C
Encoding: 1132 1132 224
Width: 305
VWidth: 1372
Flags: HW
HStem: 51 46<56 158.711> 301 46<85 187.538> 415 20G<276.5 305>
VStem: 0 136<97.5012 179.137> 29 136<347.501 429.137> 170 56<-254 -207.745>
LayerCount: 2
Fore
SplineSet
221 83 m 2xec
 222 90 210 101 201 96 c 0
 169 75 117 51 77 51 c 0
 35 51 0 79 0 125 c 0
 0 166 30 200 68 200 c 0
 106 200 136 172 136 131 c 0xf4
 136 124 135 117 135 112 c 0
 135 105 141 97 152 97 c 0
 155 97 159 98 161 99 c 0
 212 126 237 149 246 226 c 2
 259 340 l 2
 260 348 248 357 240 352 c 0
 196 323 146 301 106 301 c 0
 64 301 29 329 29 375 c 0
 29 416 59 450 97 450 c 0
 135 450 165 422 165 381 c 0
 165 374 164 367 164 362 c 0
 164 355 170 347 181 347 c 0
 184 347 188 348 190 349 c 0
 226 368 262 401 291 435 c 1
 305 432 l 1
 226 -254 l 1
 170 -254 l 1
 221 83 l 2xec
EndSplineSet
EndChar

StartChar: afii10193
Encoding: 1119 1119 225
Width: 276
VWidth: 1372
Flags: HW
LayerCount: 2
Fore
SplineSet
304.6 432 m 5
 254.6 -4 l 5
 220.6 -4 l 5
 258.6 340 l 6
 259.6 348 247.6 357 239.6 352 c 4
 195.6 323 145.6 301 105.6 301 c 4
 63.5996 301 28.5996 329 28.5996 375 c 4
 28.5996 416 58.5996 450 96.5996 450 c 4
 134.6 450 164.6 422 164.6 381 c 4xec
 164.6 374 163.6 367 163.6 362 c 4
 163.6 355 169.6 347 180.6 347 c 4
 183.6 347 187.6 348 189.6 349 c 4
 225.6 368 261.6 401 290.6 435 c 5
 304.6 432 l 5
EndSplineSet
EndChar

StartChar: uni046D
Encoding: 1133 1133 226
Width: 333
VWidth: 1372
Flags: W
HStem: -199 46<56 158.711> 51 46<85 187.538> 301 46<113 215.538> 415 20G<304.5 333>
VStem: 0 136<-152.499 -70.8628> 29 136<97.5012 179.137> 57 136<347.501 429.137> 170 56<-504 -457.745>
LayerCount: 2
Fore
SplineSet
221 -167 m 2xf1
 222 -160 210 -149 201 -154 c 0
 169 -175 117 -199 77 -199 c 0
 35 -199 0 -171 0 -125 c 0
 0 -84 30 -50 68 -50 c 0
 106 -50 136 -78 136 -119 c 0xf9
 136 -126 135 -133 135 -138 c 0
 135 -145 141 -153 152 -153 c 0
 155 -153 159 -152 161 -151 c 0
 212 -124 237 -101 246 -24 c 2
 259 90 l 2
 260 98 248 107 240 102 c 0
 196 73 146 51 106 51 c 0
 64 51 29 79 29 125 c 0
 29 166 59 200 97 200 c 0
 135 200 165 172 165 131 c 0xf4
 165 124 164 117 164 112 c 0
 164 105 170 97 181 97 c 0
 184 97 188 98 190 99 c 0
 251 131 267 162 277 252 c 2
 287 340 l 2
 288 348 276 357 268 352 c 0
 224 323 174 301 134 301 c 0
 92 301 57 329 57 375 c 0
 57 416 87 450 125 450 c 0
 163 450 193 422 193 381 c 0xf2
 193 374 192 367 192 362 c 0
 192 355 198 347 209 347 c 0
 212 347 216 348 218 349 c 0
 254 368 290 401 319 435 c 1
 333 432 l 1
 226 -504 l 1
 170 -504 l 1
 221 -167 l 2xf1
EndSplineSet
EndChar

StartChar: uni046E
Encoding: 1134 1134 227
Width: 362
VWidth: 1372
Flags: HW
HStem: -449 46<56 158.711> -199 46<85 187.538> 51 46<113 215.538> 301 46<142 244.538> 415 20G<333.5 362>
VStem: 0 136<-402.499 -320.863> 29 136<-152.499 -70.8628> 57 136<97.5012 179.137> 86 136<347.501 429.137>
LayerCount: 2
Fore
SplineSet
221 -417 m 2xf880
 222 -410 210 -399 201 -404 c 0
 169 -425 117 -449 77 -449 c 0
 35 -449 0 -421 0 -375 c 0
 0 -334 30 -300 68 -300 c 0
 106 -300 136 -328 136 -369 c 0xfc
 136 -376 135 -383 135 -388 c 0
 135 -395 141 -403 152 -403 c 0
 155 -403 159 -402 161 -401 c 0
 212 -374 237 -351 246 -274 c 2
 259 -160 l 2
 260 -152 248 -143 240 -148 c 0
 196 -177 146 -199 106 -199 c 0
 64 -199 29 -171 29 -125 c 0
 29 -84 59 -50 97 -50 c 0
 135 -50 165 -78 165 -119 c 0xfa
 165 -126 164 -133 164 -138 c 0
 164 -145 170 -153 181 -153 c 0
 184 -153 188 -152 190 -151 c 0
 251 -119 267 -88 277 2 c 2
 287 90 l 2
 288 98 276 107 268 102 c 0
 224 73 174 51 134 51 c 0
 92 51 57 79 57 125 c 0
 57 166 87 200 125 200 c 0
 163 200 193 172 193 131 c 0xf9
 193 124 192 117 192 112 c 0
 192 105 198 97 209 97 c 0
 212 97 216 98 218 99 c 0
 278 131 296 159 306 249 c 2
 316 340 l 2
 317 348 305 357 297 352 c 0
 253 323 203 301 163 301 c 0
 121 301 86 329 86 375 c 0
 86 416 116 450 154 450 c 0
 192 450 222 422 222 381 c 0
 222 374 221 367 221 362 c 0
 221 355 227 347 238 347 c 0
 241 347 245 348 247 349 c 0
 283 368 319 401 348 435 c 1
 362 432 l 1
 226 -754 l 1
 170 -754 l 1
 221 -417 l 2xf880
EndSplineSet
EndChar

StartChar: uni046F
Encoding: 1135 1135 228
Width: 390
VWidth: 1372
Flags: HW
HStem: -699 46<56 158.711> -449 46<85 187.538> -199 46<113 215.538> 51 46<142 244.538> 301 46<170 272.538> 415 20G<361.5 390>
VStem: 0 136<-652.499 -570.863> 29 136<-402.499 -320.863> 57 136<-152.499 -70.8628> 86 136<97.5012 179.137> 114 136<347.501 429.137>
LayerCount: 2
Fore
SplineSet
221 -667 m 2xfc20
 222 -660 210 -649 201 -654 c 0
 169 -675 117 -699 77 -699 c 0
 35 -699 0 -671 0 -625 c 0
 0 -584 30 -550 68 -550 c 0
 106 -550 136 -578 136 -619 c 0xfe
 136 -626 135 -633 135 -638 c 0
 135 -645 141 -653 152 -653 c 0
 155 -653 159 -652 161 -651 c 0
 212 -624 237 -601 246 -524 c 2
 259 -410 l 2
 260 -402 248 -393 240 -398 c 0
 196 -427 146 -449 106 -449 c 0
 64 -449 29 -421 29 -375 c 0
 29 -334 59 -300 97 -300 c 0
 135 -300 165 -328 165 -369 c 0xfd
 165 -376 164 -383 164 -388 c 0
 164 -395 170 -403 181 -403 c 0
 184 -403 188 -402 190 -401 c 0
 251 -369 267 -338 277 -248 c 2
 287 -160 l 2
 288 -152 276 -143 268 -148 c 0
 224 -177 174 -199 134 -199 c 0
 92 -199 57 -171 57 -125 c 0
 57 -84 87 -50 125 -50 c 0
 163 -50 193 -78 193 -119 c 0xfc80
 193 -126 192 -133 192 -138 c 0
 192 -145 198 -153 209 -153 c 0
 212 -153 216 -152 218 -151 c 0
 278 -119 296 -91 306 -1 c 2
 316 90 l 2
 317 98 305 107 297 102 c 0
 253 73 203 51 163 51 c 0
 121 51 86 79 86 125 c 0
 86 166 116 200 154 200 c 0
 192 200 222 172 222 131 c 0xfc40
 222 124 221 117 221 112 c 0
 221 105 227 97 238 97 c 0
 241 97 245 98 247 99 c 0
 305 130 324 157 334 244 c 2
 344 340 l 2
 345 348 333 357 325 352 c 0
 281 323 231 301 191 301 c 0
 149 301 114 329 114 375 c 0
 114 416 144 450 182 450 c 0
 220 450 250 422 250 381 c 0
 250 374 249 367 249 362 c 0
 249 355 255 347 266 347 c 0
 269 347 273 348 275 349 c 0
 311 368 347 401 376 435 c 1
 390 432 l 1
 226 -1004 l 1
 170 -1004 l 1
 221 -667 l 2xfc20
EndSplineSet
EndChar

StartChar: afii10083
Encoding: 1089 1089 230
Width: 271
VWidth: 1372
Flags: W
HStem: -173 71<78.5 195.432> 428 20G<24 63.6897>
VStem: 0 93<-271.439 -172>
LayerCount: 2
Fore
SplineSet
179 -173 m 0
 136 -173 93 -208 93 -259 c 0
 93 -300 123 -338 165 -364 c 1
 150 -385 l 1
 43 -326 0 -256 0 -200 c 0
 0 -144 44 -102 113 -102 c 0
 128 -102 143 -104 160 -108 c 1
 91 -35 31 44 31 44 c 1
 47 80 l 2
 85 163 128 298 50 396 c 2
 24 428 l 1
 48 448 l 1
 230 216 l 1
 215 180 l 2
 171 74 135 -48 236 -151 c 2
 271 -187 l 1
 255 -205 l 1
 234 -184 206 -173 179 -173 c 0
EndSplineSet
EndChar

StartChar: afii10084
Encoding: 1090 1090 231
Width: 271
VWidth: 1372
Flags: HW
HStem: -173 71<78.5 195.432> 428 20G<24 63.6897>
VStem: 0 93<-271.439 -172>
LayerCount: 2
Fore
SplineSet
179 -173 m 0
 136 -173 93 -208 93 -259 c 0
 93 -300 123 -338 165 -364 c 1
 150 -385 l 1
 43 -326 0 -256 0 -200 c 0
 0 -144 44 -102 113 -102 c 0
 128 -102 143 -104 160 -108 c 1
 91 -35 31 44 31 44 c 1
 49 80 l 2
 89 160 128 298 50 396 c 2
 24 428 l 1
 48 448 l 1
 230 216 l 1
 213 180 l 2
 165 78 135 -48 236 -151 c 2
 271 -187 l 1
 255 -205 l 1
 234 -184 206 -173 179 -173 c 0
EndSplineSet
EndChar

StartChar: uhungarumlaut
Encoding: 369 369 232
Width: 326
Flags: HW
VStem: 0 26<-582 -123.911> 241 34<-431.585 -197.466>
LayerCount: 2
Fore
SplineSet
42 -595 m 0
 69 -595 95 -588 125 -569 c 0
 198 -521 241 -437 241 -321 c 0
 241 -241 220 -172 197 -120 c 1
 168 -133 135 -141 105 -141 c 0
 80 -141 57 -136 39 -124 c 0
 35 -122 26 -126 26 -129 c 2
 26 -582 l 2
 26 -588 33 -595 42 -595 c 0
326 50 m 0
 326 -9 276 -71 225 -105 c 1
 246 -147 275 -228 275 -320 c 0
 275 -535 145 -637 73 -728 c 0
 40 -769 27 -818 27 -850 c 1
 0 -850 l 1
 0 -49 l 1
 1 7 46 68 95 101 c 0
 130 125 178 141 221 141 c 0
 258 141 292 130 311 100 c 1
 322 85 326 68 326 50 c 0
EndSplineSet
EndChar

StartChar: uni019C
Encoding: 412 412 233
Width: 100
VWidth: 0
Flags: W
HStem: -513 26<0 700> -263 26<0 700> -13 26<0 700> 237 26<0 700> 487 26<0 700>
LayerCount: 2
Fore
SplineSet
0 -263 m 0
 0 -237 l 0
 700 -237 l 0
 700 -263 l 0
 0 -263 l 0
0 -513 m 0
 0 -487 l 0
 700 -487 l 0
 700 -513 l 0
 0 -513 l 0
0 487 m 0
 0 513 l 0
 700 513 l 0
 700 487 l 0
 0 487 l 0
0 237 m 0
 0 263 l 0
 700 263 l 0
 700 237 l 0
 0 237 l 0
0 -13 m 0
 0 13 l 0
 700 13 l 0
 700 -13 l 0
 0 -13 l 0
EndSplineSet
EndChar

StartChar: uni019D
Encoding: 413 413 234
Width: 100
VWidth: 0
Flags: W
HStem: -388 26<0 700> -138 26<0 700> 112 26<0 700> 362 26<0 700> 612 26<0 700>
LayerCount: 2
Fore
SplineSet
0 -138 m 4
 0 -112 l 4
 700 -112 l 4
 700 -138 l 4
 0 -138 l 4
0 -388 m 4
 0 -362 l 4
 700 -362 l 4
 700 -388 l 4
 0 -388 l 4
0 612 m 4
 0 638 l 4
 700 638 l 4
 700 612 l 4
 0 612 l 4
0 362 m 4
 0 388 l 4
 700 388 l 4
 700 362 l 4
 0 362 l 4
0 112 m 4
 0 138 l 4
 700 138 l 4
 700 112 l 4
 0 112 l 4
EndSplineSet
EndChar

StartChar: uni01A3
Encoding: 419 419 235
Width: 202
Flags: W
HStem: -95 190<59.623 143.943>
VStem: 178 24<90.7285 379.996 513.587 575> 352 30<75.8092 254.977>
LayerCount: 2
Fore
SplineSet
0 -26 m 0
 0 37 62 95 129 95 c 0
 140 95 151 93 161 89 c 0
 166 86 178 91 178 96 c 2
 178 575 l 1
 203 575 l 1
 203 522 223 482 260 438 c 0
 319 367 382 295 382 179 c 0
 382 126 370 82 356 39 c 1
 329 47 l 1
 340 86 352 121 352 179 c 0
 352 268 292 355 229 377 c 0
 223 379 218 380 213 380 c 0
 207 380 202 375 202 371 c 2
 202 27 l 2
 202 -37 141 -95 74 -95 c 0
 35 -95 0 -68 0 -26 c 0
EndSplineSet
EndChar

StartChar: Lcommaaccent
Encoding: 315 315 236
Width: 202
Flags: W
HStem: -95 190<59.623 142.377>
VStem: 0 202<-37.7876 37.7876>
LayerCount: 2
Back
SplineSet
-86.6816 -67.7227 m 0
 -119.927 -25.1699 -91.1162 35.4102 -51.7158 66.1934 c 0
 -12.3154 96.9756 53.4355 110.275 86.6816 67.7227 c 0
 119.927 25.1699 91.1162 -35.4102 51.7158 -66.1934 c 0
 12.3154 -96.9756 -53.4355 -110.275 -86.6816 -67.7227 c 0
-0 -110 m 4
 -54 -110 -84 -50 -84 0 c 4
 -84 50 -54 110 0 110 c 4
 54 110 84 50 84 -0 c 4
 84 -50 54 -110 -0 -110 c 4
EndSplineSet
Fore
SplineSet
74 -95 m 0
 35 -95 0 -67 0 -25 c 0
 0 37 63 95 128 95 c 0
 167 95 202 67 202 25 c 0
 202 -37 139 -95 74 -95 c 0
EndSplineSet
EndChar

StartChar: uhorn
Encoding: 432 432 237
Width: 178
Flags: HW
HStem: -82 164<42.7653 127.202>
VStem: 0 178<-40.0579 39.5804> 154 24<82.4935 575>
LayerCount: 2
Back
SplineSet
154 575 m 5
 178 575 l 5
 178 17 l 5
 154 17 l 5
 154 575 l 5
70 -82 m 4
 35 -82 0 -57 0 -17 c 4
 0 36 51 82 108 82 c 4
 143 82 178 57 178 17 c 4
 178 -36 127 -82 70 -82 c 4
EndSplineSet
Fore
SplineSet
70 -82 m 0xc0
 35 -82 0 -57 0 -17 c 0xc0
 0 36 51 82 108 82 c 0
 115 82 121 81 128 79 c 0
 140 76 154 90 154 98 c 2
 154 575 l 1
 178 575 l 1xa0
 178 17 l 2
 178 -36 127 -82 70 -82 c 0xc0
EndSplineSet
EndChar

StartChar: uni01B1
Encoding: 433 433 238
Width: 178
Flags: HW
HStem: -82 164<42.7653 127.673>
VStem: 154 24<81.8954 379.996 513.587 575> 328 30<75.8092 254.977>
LayerCount: 2
Fore
SplineSet
178 16 m 2
 177 -37 127 -82 70 -82 c 0
 35 -82 0 -57 0 -17 c 0
 0 36 51 82 108 82 c 0
 115 82 121 81 128 79 c 0
 140 76 154 90 154 98 c 2
 154 575 l 1
 179 575 l 1
 179 522 199 482 236 438 c 0
 295 367 358 295 358 179 c 0
 358 126 346 82 332 39 c 1
 305 47 l 1
 316 86 328 121 328 179 c 0
 328 268 268 355 205 377 c 0
 199 379 194 380 189 380 c 0
 183 380 178 375 178 371 c 2
 178 16 l 2
EndSplineSet
EndChar

StartChar: uni01B2
Encoding: 434 434 239
Width: 178
Flags: W
HStem: -82 164<42.7653 127.673>
VStem: 154 24<81.8954 241 276 396.996 523.761 575> 328 30<107.571 287.941>
LayerCount: 2
Fore
SplineSet
178 17 m 2
 178 -36 127 -82 70 -82 c 0
 35 -82 0 -57 0 -17 c 0
 0 36 51 82 108 82 c 0
 115 82 121 81 128 79 c 0
 140 76 154 90 154 98 c 2
 154 241 l 1
 43 201 l 1
 35 224 l 1
 154 267 l 1
 154 575 l 1
 179 575 l 1
 179 549 190 515 205 496 c 0
 238 453 296 404 330 331 c 1
 433 369 l 1
 441 346 l 1
 339 309 l 1
 351 278 358 244 358 204 c 0
 358 133 331 66 318 42 c 1
 293 54 l 1
 311 91 328 146 328 205 c 0
 328 240 321 271 309 298 c 1
 178 250 l 1
 178 17 l 2
178 276 m 1
 298 320 l 1
 283 344 265 363 247 376 c 0
 227 390 211 397 189 397 c 0
 183 397 178 392 178 388 c 2
 178 276 l 1
EndSplineSet
EndChar

StartChar: uni01E0
Encoding: 480 480 240
Width: 338
Flags: W
VStem: 298 40<-109.678 111.842>
LayerCount: 2
Back
SplineSet
308 -100 m 6
 308 104 l 6
 308 120 288 120 280 116 c 6
 110 16 l 6
 99 10 100 -10 110 -16 c 6
 282 -114 l 6
 291 -120 308 -111 308 -100 c 6
348 -200 m 5
 0 0 l 5
 348 202 l 5
 348 -200 l 5
EndSplineSet
Fore
SplineSet
298 -94 m 2
 298 98 l 2
 298 114 278 114 270 110 c 2
 110 16 l 2
 99.1963 9.65332 99.8594 -10.2412 110 -16 c 2
 272 -108 l 2
 281 -114 298 -105 298 -94 c 2
338 -194 m 1
 0 0 l 1
 338 196 l 1
 338 -194 l 1
EndSplineSet
EndChar

StartChar: uni01E1
Encoding: 481 481 241
Width: 338
Flags: W
LayerCount: 2
Fore
SplineSet
338 -194 m 1
 0 0 l 1
 338 196 l 1
 338 -194 l 1
EndSplineSet
EndChar

StartChar: uni01E2
Encoding: 482 482 242
Width: 338
Flags: W
VStem: 0 40<-111.842 109.678>
LayerCount: 2
Fore
SplineSet
40 94 m 2
 40 -98 l 2
 40 -114 60 -114 68 -110 c 2
 228 -16 l 2
 239 -10 238 10 228 16 c 2
 66 108 l 2
 57 114 40 105 40 94 c 2
0 194 m 1
 338 0 l 1
 0 -196 l 1
 0 194 l 1
EndSplineSet
EndChar

StartChar: uni01E3
Encoding: 483 483 243
Width: 338
Flags: W
LayerCount: 2
Fore
SplineSet
0 194 m 1
 338 0 l 1
 0 -196 l 1
 0 194 l 1
EndSplineSet
EndChar

StartChar: uni0217
Encoding: 535 535 244
Width: 304
VWidth: 0
Flags: HW
HStem: -15 30<-141 120.244 158.813 419>
VStem: 124 30<-280 -19.2403 19.3176 280>
LayerCount: 2
Fore
SplineSet
191 15 m 2
 432 15 l 1
 432 -15 l 1
 190 -15 l 2
 184 -15 167 -25 167 -37 c 2
 167 -280 l 1
 137 -280 l 1
 137 -38 l 2
 137 -26 118 -15 110 -15 c 2
 -128 -15 l 1
 -128 15 l 1
 110 15 l 2
 122 15 137 29 137 41 c 2
 137 280 l 1
 167 280 l 1
 167 42 l 2
 167 30 183 15 191 15 c 2
EndSplineSet
EndChar

StartChar: uni0212
Encoding: 530 530 245
Width: 304
VWidth: 0
Flags: W
HStem: -152 40<90.4229 213.111> 112 40<90.8888 213.577>
VStem: 0 40<-61.1112 61.5771> 264 40<-61.5771 61.1112>
LayerCount: 2
Fore
SplineSet
0 0 m 0
 0 86 72 152 152 152 c 0
 238 152 304 80 304 0 c 0
 304 -86 232 -152 152 -152 c 0
 66 -152 0 -80 0 0 c 0
40 0 m 0
 40 -59 89 -112 152 -112 c 0
 211 -112 264 -63 264 0 c 0
 264 59 215 112 152 112 c 0
 93 112 40 63 40 0 c 0
EndSplineSet
EndChar

StartChar: uni0216
Encoding: 534 534 246
Width: 304
VWidth: 0
Flags: HW
LayerCount: 2
Fore
SplineSet
137 -295 m 1
 137 295 l 1
 167 295 l 1
 167 -295 l 1
 137 -295 l 1
EndSplineSet
EndChar

StartChar: uni0236
Encoding: 566 566 247
Width: 100
VWidth: 0
Flags: W
HStem: -513 26<0 700> -263 26<0 700> -13 26<0 700> 237 26<0 700> 487 26<0 700>
LayerCount: 2
Fore
SplineSet
0 -263 m 0
 0 -237 l 0
 700 -237 l 0
 700 -263 l 0
 0 -263 l 0
0 -513 m 0
 0 -487 l 0
 700 -487 l 0
 700 -513 l 0
 0 -513 l 0
0 487 m 0
 0 513 l 0
 700 513 l 0
 700 487 l 0
 0 487 l 0
0 237 m 0
 0 263 l 0
 700 263 l 0
 700 237 l 0
 0 237 l 0
0 -13 m 0
 0 13 l 0
 700 13 l 0
 700 -13 l 0
 0 -13 l 0
EndSplineSet
EndChar

StartChar: uni0237
Encoding: 567 567 248
Width: 100
VWidth: 0
Flags: W
HStem: -388 26<0 700> -138 26<0 700> 112 26<0 700> 362 26<0 700> 612 26<0 700>
LayerCount: 2
Fore
SplineSet
0 -138 m 0
 0 -112 l 0
 700 -112 l 0
 700 -138 l 0
 0 -138 l 0
0 -388 m 0
 0 -362 l 0
 700 -362 l 0
 700 -388 l 0
 0 -388 l 0
0 612 m 0
 0 638 l 0
 700 638 l 0
 700 612 l 0
 0 612 l 0
0 362 m 0
 0 388 l 0
 700 388 l 0
 700 362 l 0
 0 362 l 0
0 112 m 0
 0 138 l 0
 700 138 l 0
 700 112 l 0
 0 112 l 0
EndSplineSet
EndChar

StartChar: Idotaccent
Encoding: 304 304 250
Width: 0
Flags: HW
LayerCount: 2
Back
SplineSet
68.2216796875 -101.142578125 m 0
 6.0439453125 -143.08203125 -104.780273438 -164.760742188 -148.397460938 -100.095703125 c 0
 -192.014648438 -35.4306640625 -130.399414062 59.203125 -68.2216796875 101.142578125 c 0
 -6.0439453125 143.08203125 104.780273438 164.760742188 148.397460938 100.095703125 c 0
 192.014648438 35.4306640625 130.399414062 -59.203125 68.2216796875 -101.142578125 c 0
122 -0 m 7
 122 -75 78 -179 0 -179 c 7
 -78 -179 -122 -75 -122 0 c 7
 -122 75 -78 179 -0 179 c 7
 78 179 122 75 122 -0 c 7
EndSplineSet
EndChar

StartChar: dotlessi
Encoding: 305 305 251
Width: 296
Flags: HW
LayerCount: 2
Back
SplineSet
228.991210938 -96.521484375 m 0
 171.538085938 -144.73046875 70.578125 -162.870117188 22.369140625 -105.416992188 c 0
 -25.8408203125 -47.9638671875 9.5556640625 48.3125 67.0087890625 96.521484375 c 0
 124.461914062 144.73046875 225.421875 162.870117188 273.630859375 105.416992188 c 0
 321.840820312 47.9638671875 286.444335938 -48.3125 228.991210938 -96.521484375 c 0
274 0 m 3
 274 -75 223 -164 148 -164 c 3
 73 -164 22 -75 22 0 c 3
 22 75 73 164 148 164 c 3
 223 164 274 75 274 0 c 3
EndSplineSet
Fore
SplineSet
296 39 m 0
 296 -55 207 -141 108 -141 c 3
 49 -141 0 -106 0 -39 c 3
 0 55 89 141 188 141 c 0
 247 141 296 106 296 39 c 0
EndSplineSet
EndChar

StartChar: IJ
Encoding: 306 306 252
Width: 320
VWidth: 0
Flags: HW
HStem: -146 39<-512.901 -425.73> 107 39<-316.27 -229.099>
VStem: -548 23<-100.079 -50.348> -217 23<50.348 100.079>
LayerCount: 2
Back
SplineSet
286.870117188 99.12109375 m 4
 264.706054688 127.490234375 204.939453125 104.907226562 126.138671875 43.3408203125 c 4
 47.337890625 -18.2255859375 10.966796875 -70.7529296875 33.1298828125 -99.12109375 c 4
 55.2939453125 -127.490234375 115.060546875 -104.907226562 193.861328125 -43.3408203125 c 4
 272.662109375 18.2255859375 309.033203125 70.7529296875 286.870117188 99.12109375 c 4
302.629882812 111.434570312 m 4
 342.647460938 60.2138671875 309.479492188 -53.2626953125 242.499023438 -105.59375 c 4
 175.517578125 -157.924804688 57.3876953125 -162.655273438 17.3701171875 -111.434570312 c 4
 -22.6474609375 -60.2138671875 10.5205078125 53.2626953125 77.5009765625 105.59375 c 4
 144.482421875 157.924804688 262.612304688 162.655273438 302.629882812 111.434570312 c 4
160 161 m 3
 124 161 105 100 105 0 c 3
 105 -100 124 -161 160 -161 c 3
 196 -161 215 -100 215 0 c 3
 215 100 196 161 160 161 c 3
160 181 m 3
 225 181 294 85 294 0 c 3
 294 -85 225 -181 160 -181 c 3
 95 -181 26 -85 26 0 c 3
 26 85 95 181 160 181 c 3
EndSplineSet
Fore
SplineSet
293 80 m 0
 293 100 278 111 259 111 c 0
 229 111 182 87 126 43 c 0
 63 -6 27 -50 27 -80 c 0
 27 -100 42 -111 61 -111 c 0
 91 -111 138 -87 194 -43 c 0
 257 6 293 50 293 80 c 0
207 147 m 0
 273 147 320 119 320 53 c 0
 320 -2 290 -69 242 -106 c 0
 207 -133 158 -147 113 -147 c 0
 47 -147 0 -119 0 -53 c 0
 0 2 30 69 78 106 c 0
 113 133 162 147 207 147 c 0
EndSplineSet
EndChar

StartChar: ij
Encoding: 307 307 253
Width: 434
Flags: HW
LayerCount: 2
Fore
SplineSet
0 -2 m 0
 0 108 137 140 222 140 c 0
 304 140 434 110 434 2 c 0
 434 -108 297 -140 212 -140 c 0
 130 -140 -0 -110 0 -2 c 0
290 52 m 0
 278 97 236 122 181 115 c 0
 103 106 115 43 130 -7 c 0
 144 -52 l 0
 156 -93 198 -122 253 -115 c 0
 331 -105 318 -43 304 4 c 0
 290 52 l 0
EndSplineSet
EndChar
